<?xml version="1.0" standalone="no"?>
<!DOCTYPE svg PUBLIC "-//W3C//DTD SVG 1.1//EN" "http://www.w3.org/Graphics/SVG/1.1/DTD/svg11.dtd" >
<svg xmlns="http://www.w3.org/2000/svg">
<metadata>
This is a custom SVG webfont generated by Font Squirrel.
Copyright   : Copyright c Typoasis Manfred Klein  Paul Lloyd 2004 All rights reserved
</metadata>
<defs>
<font id="webfonthAKxBK9o" horiz-adv-x="179" >
<font-face units-per-em="1000" ascent="800" descent="-200" />
<missing-glyph horiz-adv-x="185" />
<glyph unicode=" "  horiz-adv-x="185" />
<glyph unicode="&#x09;" horiz-adv-x="185" />
<glyph unicode="&#xa0;" horiz-adv-x="185" />
<glyph unicode="!" horiz-adv-x="99" d="M13 13q3 -19 17 -19q15 0 30 19q16 21 26 46q5 14 6.5 25.5t-0.5 21.5q-3 20 -17 20q-15 0 -30 -20q-8 -10 -14 -21.5t-11 -25.5q-10 -29 -7 -46zM61 158q0 -5 4 -5q2 1 5 2t7 3q7 4 12 4t10 -3q6 -4 8 -4q3 0 8 6q4 5 5 24q3 28 13 53q5 14 11 28.5l12 28.5l26 58 q7 14 12.5 28t10.5 28q4 15 -3 21q-8 6 -20 5q-13 -1 -25 -9q-14 -8 -18 -22q-5 -14 -8 -27.5l-6 -27.5t-6.5 -28.5t-6.5 -28.5q-4 -14 -7.5 -28t-8.5 -28q-9 -26 -23 -53q-11 -20 -12 -25z" />
<glyph unicode="&#x22;" horiz-adv-x="119" d="M100 256q0 -5 5 -5q4 -1 10 3q7 5 11 13l25 45.5l24 45.5q11 23 20.5 47t16.5 49q3 9 -3 15t-12 6q-8 0 -16 -4q-7 -4 -12 -14q-15 -36 -24 -72q-9 -35 -21 -69q-2 -6 -4.5 -11.5t-4.5 -11.5q-2 -5 -5 -11t-7 -11q-5 -9 -3 -15zM152 251q2 -5 6 -5q5 0 10 4q7 3 11 12 l25.5 44.5t24.5 47.5q26 51 38 102q4 9 -1 15q-5 5 -14 5t-16 -5q-7 -4 -12 -14q-5 -12 -9 -24l-8 -25q-4 -12 -7 -24t-7 -24t-7.5 -24t-8.5 -24q-7 -23 -21 -46q-4 -8 -4 -15z" />
<glyph unicode="&#x26;" horiz-adv-x="190" d="M-90 -155q-2 -18 1 -29q3 -12 13 -19q9 -6 28 -6q7 0 21 8q13 7 29 20l16.5 14.5l17.5 15.5t17 17l16 18q16 19 27 37q12 17 18 35q4 11 6.5 21.5t3.5 20.5q3 22 2 36q18 15 30 33q12 15 19 35q1 8 3 13q1 4 1 10q0 5 -1 8q-1 2 -6 7q-3 1 -9 -3q-5 -4 -10 -12t-8 -16 q-2 -5 -2 -8v-6l-4 -6t-5 -6q-3 -4 -11 -12q-2 8 -4 14.5l-4 13.5t-3.5 13.5t-3.5 13.5q11 10 23 19l25 19q14 10 26.5 20.5t25.5 23.5q27 25 51 60q12 17 23.5 37.5t20.5 45.5q12 30 17 53t5 39q0 32 -26 32q-9 -2 -18 -7q-10 -4 -22 -13q-5 -5 -9.5 -9t-9.5 -9 q-7 -7 -11 -17q-5 -12 -2 -17q1 -6 7 -6t12 6q5 4 12 16q2 2 3.5 4t3.5 5t4.5 5.5t4.5 5.5q3 4 9 10q3 4 5 4q6 -2 6 -13q1 -11 -2 -29l-4 -16.5l-4 -16.5q-3 -9 -5.5 -15.5l-4.5 -11.5l-13 -30.5t-14 -26.5q-7 -12 -14 -22.5l-14 -20.5l-15 -16.5l-15 -15.5 q-15 -14 -30 -24l-30 -21q-7 -5 -14 -9.5t-14 -9.5q-2 8 -2 15v15q0 16 3 34q1 5 3 11t4 14q5 17 10 28q7 16 14 23q8 10 17 10q7 0 9 -6t2 -12q-1 -3 -1 -6t-2 -6q-2 -7 -3 -8q-6 -6 -5 -12q1 -7 8 -7q5 -2 13 5q8 6 15 27q3 10 2 18q0 8 -3 14q-3 7 -8 10q-6 4 -10 4 q-10 0 -25 -12q-8 -6 -15 -13t-14 -16q-8 -9 -14.5 -18.5l-13.5 -19.5q-11 -19 -16 -39q-7 -25 -6 -44q0 -9 1 -18t3 -18q-13 -11 -22 -25q-10 -12 -16 -33q-5 -12 -7 -28v-13t2 -12q3 -10 10 -17q6 -6 14 -6q9 0 22 5q11 3 24 11q0 -8 -1 -16t-3 -16q-2 -9 -4.5 -18 t-6.5 -20q-4 -10 -9.5 -19.5t-12.5 -20.5q-14 -20 -30 -36l-17.5 -15.5t-18.5 -13.5q-18 -12 -34 -15q-8 -2 -11 5q-4 7 -4 18q-1 6 0 12t3 13q3 13 11 26q4 3 7.5 6t5.5 8q2 4 3 7.5t2 8.5q0 7 -3 12t-11 2q-4 -1 -12 -7q-7 -7 -11 -15q-3 -5 -6 -9t-5 -9t-3.5 -9.5 t-3.5 -9.5q-6 -19 -9 -34zM48 25q0 4 0.5 7.5t1.5 8.5q2 5 3 10t3 10t4.5 8.5t4.5 8.5l12 18q2 -3 2.5 -6t2.5 -7t2.5 -7.5t2.5 -7.5t2.5 -7.5t2.5 -7.5q1 -3 2 -6.5t1 -6.5q-1 -1 -9 -7q-4 -4 -12 -10t-11 -9q-5 -4 -8 -4q-4 0 -5 4q-2 6 -2 11z" />
<glyph unicode="'" horiz-adv-x="59" d="M126 281q1 -2 4 -1q2 1 7 9q2 3 3.5 7.5t3.5 9.5q5 11 9.5 22.5t9.5 22.5q5 12 9.5 24t9.5 24l9.5 23.5t8.5 23.5q8 20 13 43q1 8 -2 15q-4 6 -9 6q-6 0 -11 -4q-6 -3 -9 -13q-1 -3 -4.5 -9.5l-8.5 -16.5t-10 -22t-9 -26t-5.5 -28.5t-3.5 -30.5q-1 -15 -4.5 -31.5 t-8.5 -34.5q-3 -10 -2 -13z" />
<glyph unicode="," horiz-adv-x="94" d="M-5 -47q2 -5 7 -6q4 -1 13 2q6 3 12 12q3 8 6.5 14.5t8.5 14.5q5 7 8.5 13.5l7.5 13.5q3 7 6 13t5 11q4 11 4 19q-1 8 -7 11q-5 3 -13 1q-9 -2 -14 -7q-8 -7 -11 -16q-5 -12 -5 -21q0 -5 -0.5 -10.5t-0.5 -10.5q-2 -9 -6 -21q-3 -11 -16 -22q-7 -7 -5 -11z" />
<glyph unicode="-" d="M4 100q0 -4 4 -2q2 1 4.5 2t5.5 3t6.5 3.5t6.5 3.5q6 4 13 6q17 6 28 3q6 -1 11.5 -3t10.5 -4q5 -3 10.5 -5.5t10.5 -4.5q9 -5 26 -5q10 0 16 5q7 4 14 13l5.5 7.5t4.5 7.5q4 7 4 14q2 5 -3 7q-3 1 -12 -3q-14 -10 -24 -11q-9 -3 -19 -1q-5 1 -9 1.5t-8 2.5q-5 2 -8.5 4 t-7.5 4q-5 2 -8.5 3t-8.5 2q-9 1 -19 0q-7 -1 -17 -8t-17 -15q-8 -8 -14 -17q-6 -8 -6 -13z" />
<glyph unicode="." horiz-adv-x="156" d="M27 13q2 -10 4 -13q2 -5 6 -5q15 0 29 41q2 5 3 10.5t3 10.5q1 5 1.5 9.5t0.5 9.5q0 10 -2 13q-1 5 -5 5q-3 0 -6 -2l-9 -9q-2 -3 -5 -6t-5 -7q-6 -9 -9 -19q-2 -5 -3 -10.5l-2 -10.5t-1 -9v-8z" />
<glyph unicode="/" horiz-adv-x="206" d="M18 -13q0 -15 7 -22q6 -7 16 3q10 7 21 34t25.5 58.5l31.5 66.5q33 70 75 147l42.5 77l46.5 79l49 76.5l51 74.5q11 16 13 29q2 12 -3 15q-5 5 -15 -1q-10 -4 -22 -22l-46 -68l-47 -69l-47 -71l-45 -72l-42 -73l-40 -74q-37 -72 -63 -146q-9 -26 -8 -42z" />
<glyph unicode="0" horiz-adv-x="228" d="M47.5 78.5q-0.5 -13.5 1.5 -25.5q1 -23 14 -37q12 -14 33 -14q20 0 45 14q13 7 25.5 16t24.5 21t23 25.5t22 30.5q21 31 33 69q7 19 11.5 36l8.5 33q6 33 6 55q-2 22 -12 36q-10 13 -31 13t-47 -13q-25 -12 -53 -36q-26 -23 -48 -55q-22 -33 -35 -69q-12 -38 -18 -69 q-3 -17 -3.5 -30.5zM99 127q1 11 3.5 23.5t6.5 25.5l10 25l10 23q10 20 23 38q6 9 12 15.5t13 11.5q12 9 24 9q22 0 32 -10t13 -27q3 -15 -2 -40q-2 -11 -5 -23t-8 -25q-7 -23 -20 -48q-13 -24 -25 -39q-12 -17 -26 -26t-25 -9q-12 0 -21 10q-9 11 -13 26q-3 20 -2 40z" />
<glyph unicode="1" horiz-adv-x="150" d="M22 6q-3 -9 0 -12q3 -5 14 -3q17 4 38 4q18 1 39 6q12 2 18 11q8 12 11 21q4 10 3 19q-3 8 -11 7h-9h-9h-8q-2 0 -4.5 -0.5t-4.5 -0.5q23 43 41.5 81t32.5 72q28 69 36 111q4 19 -6 24q-9 4 -20 -7q-12 -7 -18 -13q-8 -7 -19 -12q-4 -4 -13 -4q-9 -1 -14 -3 q-8 -4 -10 -10q-5 -8 -6 -15t2 -12t10 -2q9 4 20 4q7 0 10 1q3 0 11 2q-6 -23 -15.5 -49t-21.5 -55q-12 -30 -28.5 -61.5t-36.5 -65.5q0 -1 -0.5 -1.5l-0.5 -0.5l-1 -1q-13 -8 -20 -18q-6 -7 -10 -17z" />
<glyph unicode="2" horiz-adv-x="224" d="M14 24q-8 -24 2 -45q5 2 14 9q3 2 6.5 5t7.5 6q4 2 7.5 5t7.5 5q8 5 16 7q13 2 19 -1q5 -2 8.5 -4t7.5 -4t7.5 -4.5t8.5 -4.5q10 -4 21 -4q8 0 18 7q12 7 21 16q11 8 21 20l9.5 11.5t9.5 10.5q1 3 -5 3q-3 0 -7 -0.5t-9 -1.5q-8 -2 -20 -4q-11 -3 -14 -2q-7 0 -12.5 1 t-10.5 3t-9.5 4.5t-9.5 4.5q-9 5 -18 8q-9 4 -20 6l22 21t25 20l26 19.5t25 20.5q13 11 24 22t21 22q20 25 26 50q2 8 3 16l2 16q0 18 -4 30q-3 12 -11 22t-19 11q-21 2 -40 -7q-19 -8 -32 -29q-3 -4 -5 -14t-1 -14q0 -8 3 -12q1 -5 6 -6q4 -1 8 3q2 2 3.5 5l3.5 7 q6 8 10 12q6 5 17 5q5 0 10 -6q4 -8 5 -15q1 -9 0 -19q-1 -8 -5 -17q-8 -25 -28 -45l-22 -22.5t-24 -22.5l-25.5 -22l-25.5 -22q-14 -11 -25 -21.5l-22 -21.5q-10 -11 -16.5 -21.5t-11.5 -21.5z" />
<glyph unicode="3" horiz-adv-x="168" d="M-195 -438q-1 -9 3 -13t13 -4t18 11q66 66 116.5 126.5t88.5 117.5t64 106.5t39 93.5q8 26 11 49t3 43q-2 41 -19 67q5 11 11 20.5t12 20.5q13 18 24 41q6 11 10.5 20.5l9.5 19.5q4 11 6.5 20.5t3.5 19.5q0 19 -9 24q-11 6 -21 6q-11 0 -21 -6q-6 -3 -12 -7t-11 -9 l-12 -10.5t-11 -11.5t-9 -11.5t-7 -10.5q-2 -4 -4 -7.5t-4 -8.5l-3.5 -8.5t-3.5 -7.5q-1 -5 -1 -11q1 -2 7 -1q4 2 8 6l9 9l18 24q5 5 9.5 10t9.5 10q10 9 17 9q8 -1 10 -15q1 -10 -2 -27q-3 -23 -19 -45l-15 -23.5t-15 -22.5l-11 9q-8 3 -19 -1q-12 -5 -20 -13 q-2 -2 -2.5 -3.5t-2.5 -3.5q-1 -2 -2 -4.5t-2 -5.5q-5 -14 -3 -24q0 -11 9 -6q9 4 20 -5q9 -11 15 -34q6 -21 4 -58q-1 -17 -5 -37.5t-12 -43.5q-13 -36 -33 -77q-11 -20 -24.5 -42t-30.5 -45t-37 -47l-43 -50t-51 -52l-60 -54q-5 -4 -7.5 -8t-4.5 -9z" />
<glyph unicode="4" horiz-adv-x="229" d="M16 17q2 -8 10 -8q14 0 27 -1.5t26 -3.5t26 -3l26 -2q-2 -8 -4 -17t-4 -17t-4.5 -17t-4.5 -17q-7 -20 -4 -32q1 -11 9 -11t16 11q7 10 15 32q3 18 9 36q2 8 4.5 17t4.5 18q6 2 13.5 3.5t16.5 5.5q10 3 18 16q9 13 13 27q4 13 3 21q-2 8 -12 1q-5 -2 -9.5 -5t-8.5 -5 l-8.5 -3.5l-8.5 -3.5q9 34 20 68l23 69q13 35 29 71t36 74q7 14 4 21q-1 7 -9 7q-5 0 -15 -5q-9 -6 -15 -20q-1 -1 -2 -1v-1q-29 -36 -58 -79l-27.5 -39.5l-27.5 -38.5l-26.5 -36t-25.5 -33q-26 -32 -50 -50q-7 0 -13 -9q-3 -5 -5.5 -10t-4.5 -10q-3 -12 -2 -20zM67 56 q42 39 75 82l34 46.5t34 49.5l-17.5 -47l-16.5 -46t-14.5 -46t-14.5 -46q-11 -2 -21 -2q-9 0 -20 1q-11 2 -20 4t-19 4z" />
<glyph unicode="5" horiz-adv-x="172" d="M-167 -356q-1 -8 4 -13q6 -4 13 -3q10 0 19 9q51 46 93 90.5t75 86.5q67 83 101 156q35 73 38 128q3 56 -22 90q-6 14 -20 18q-14 5 -26 3q-9 12 18 63q8 12 20 14q10 1 22 0q5 -2 11 -2.5t12 -2.5q11 -3 26 2q-2 -10 -3 -14q0 -8 2 -12q2 -5 9 -8q4 -2 11 -2q5 0 7 3 q2 2 -1 9q-6 9 0 36q4 25 29 56q9 14 -3 14q-4 0 -11 -3q-7 -4 -10 -9q-15 -11 -30 -16q-14 -3 -24 -3q-12 0 -21 4l-21 6q-1 1 -8 -1q-5 -3 -11 -7q-3 -3 -5.5 -6t-5.5 -6q-5 -8 -7 -15q-3 -11 -6.5 -21.5t-7.5 -20.5q-4 -9 -7.5 -18l-6.5 -17q-6 -18 -9 -32 q-2 -8 -1.5 -16t0.5 -16v-1q-1 -5 1 -13q3 -5 10 -1q10 4 23 -9q14 -14 18 -43q6 -28 -2 -74q-7 -43 -38 -101q-29 -54 -89 -123q-29 -34 -67.5 -70t-86.5 -74q-11 -8 -12 -15z" />
<glyph unicode="6" horiz-adv-x="190" d="M44 41q2 -23 11 -37q10 -13 28 -13q19 0 41 14q11 7 22.5 16.5t22.5 20.5q22 24 42 57q21 33 33 72q14 38 21 70q7 31 7 56q0 23 -9 37q-8 14 -26 14q-11 0 -24 -9q-7 -4 -13 -8.5t-11 -9.5q-9 -11 -12 -19q-1 -8 13 -8q17 0 27 -10q8 -10 10 -28q1 -17 -3 -41l-6 -24 t-8 -26q-9 -26 -21 -49q-5 -12 -11 -22t-12 -18t-12 -14.5t-12 -11.5q-12 -9 -22 -9q-11 0 -18 10q-7 8 -10 26q-2 9 -2.5 19t1.5 21q1 11 3.5 23t6.5 25q19 55 44 107l51 96l27 46l27 46l27 46.5t25 48.5q9 20 7 22t-10 -3l-30 -50.5t-32 -47.5l-31.5 -46.5l-30.5 -47.5 q-33 -50 -59 -101q-14 -27 -26.5 -55.5t-23.5 -60.5q-12 -35 -18 -68q-6 -30 -4 -56z" />
<glyph unicode="7" horiz-adv-x="211" d="M96 11q-3 -9 1 -13q5 -4 13 -4t15 4q8 5 11 14l19.5 44.5l19.5 42.5l20 39.5t21 38.5q22 39 45 75l24 36.5t25 36.5q7 10 7 16q0 4 -6 3q-11 -3 -21 -5t-19 -2q-16 -1 -33 2q-8 2 -14.5 4.5t-13.5 7.5q-14 7 -24 18q4 8 4 15q-2 7 -4 8q-4 2 -8 -1q-6 -4 -12 -11 q-11 -16 -17 -29q-4 -7 -8 -13t-10 -11q-10 -10 -9 -17q0 -6 7 -6q5 0 10 3q7 -9 22 -12q12 -3 32 -1q18 1 39 6q11 2 21.5 5l21.5 6l-26 -37.5l-26 -37.5q-14 -18 -26.5 -36.5l-24.5 -36.5l-22 -36.5t-21 -37.5q-20 -38 -33 -78z" />
<glyph unicode="8" horiz-adv-x="204" d="M37 44q0 -26 8 -38q8 -14 25 -14t40 14q11 7 22.5 16t22.5 22q23 25 44 56q11 17 19.5 34t16.5 37q6 15 11 29.5l10 28.5q4 14 7 26t5 23q3 24 2 38q-3 16 -10 23q19 20 35 44q8 12 15 25.5t13 27.5q12 28 18 54q8 26 9 43q0 19 -5 28q-6 10 -19 10q-16 0 -32 -10 q-9 -5 -18.5 -12t-18.5 -16q-20 -19 -36 -43q-17 -24 -29 -54q-16 -40 -22 -73q-6 -31 2 -48q-31 -25 -57 -61q-29 -37 -47 -83q-8 -19 -13 -36.5l-10 -34.5q-8 -34 -8 -56zM84 79q-1 14 2 40q2 11 5.5 23t8.5 26t11 26l12 23q12 22 24 39q13 18 24 26q11 10 21 10 q18 0 25 -10q8 -11 8 -27q0 -18 -6 -40l-8 -24l-9 -26q-11 -29 -22 -49q-13 -24 -25 -39q-6 -8 -12 -14.5t-12 -11.5q-12 -9 -22 -9q-11 0 -17 10q-7 10 -8 27zM207 373q1 12 4.5 26t9.5 31q5 10 8 19.5t8 18.5t9 17t8 15q9 13 18 21q8 8 17 8q14 0 18 -7q5 -9 4 -21 q0 -13 -6 -31l-6 -18t-8 -20q-10 -29 -24 -52q-12 -23 -25 -33h-1q-12 0 -25 -6q-9 9 -9 32z" />
<glyph unicode="9" horiz-adv-x="202" d="M-101 -258q-1 -9 3 -13t13 -4q10 0 19 11q32 32 60 63.5l53 60.5l47 58.5t41 56.5q36 54 64 106q13 26 23.5 50t18.5 48q7 19 11 35.5t7 32.5q6 31 4 56q-3 23 -12 37t-27 14q-13 0 -35 -14l-22.5 -17t-22.5 -22q-22 -22 -46 -57t-35 -70l-10.5 -34.5t-6.5 -29.5 q-4 -27 0 -46q5 -21 17 -33q15 -15 37 -23q8 -3 13 3q2 4 3.5 7.5t3.5 7.5q1 5 1 9v8q-2 8 -5 8q-18 0 -27 10q-9 11 -9 27q-2 18 4 41q2 11 5.5 23.5t8.5 26.5l9.5 26t10.5 24q10 21 23 39q6 8 12 14.5t12 11.5q13 10 22 10q11 0 19 -10q8 -8 13 -26q4 -17 3 -39 q0 -23 -9 -48q-26 -76 -57 -134q-32 -59 -69 -108q-19 -25 -39 -47.5t-42 -44.5l-46 -43.5l-49 -44.5q-10 -7 -12 -17z" />
<glyph unicode=":" horiz-adv-x="88" d="M27.5 28.5q-0.5 -4.5 0.5 -8.5q0 -8 3 -12q3 -5 6 -5q16 0 29 40q2 5 3 10.5t3 10.5q1 5 1.5 9.5t0.5 9.5t-0.5 8t-1.5 6q-2 5 -6 5q-1 0 -5 -3q-3 -2 -9 -8q-2 -3 -5 -6.5t-5 -7.5q-6 -8 -9 -18q-2 -6 -3 -11l-2 -10q0 -5 -0.5 -9.5zM72 149q0 -9 3 -13t6 -4q16 0 29 40 l6 21q1 5 1.5 9.5t0.5 9.5q0 7 -2 13t-5 6q-2 0 -6 -3q-5 -3 -9 -9q-3 -2 -5.5 -5.5t-4.5 -7.5q-6 -9 -9 -19q-2 -5 -3 -10l-2 -10q-2 -11 0 -18z" />
<glyph unicode=";" horiz-adv-x="89" d="M-10 -52q2 -5 7 -5q5 -1 12 2t13 12l7.5 14.5l7.5 14.5q5 7 8.5 13.5l7.5 13.5q3 7 6 13t5 11q5 14 4 19q0 7 -6 11q-5 3 -13 1q-4 -1 -7.5 -3t-7.5 -4q-6 -5 -11 -15q-5 -13 -5 -22v-11q0 -5 -1 -10l-2 -10t-3 -11q-5 -11 -16 -22q-7 -7 -6 -12zM61 127q0 -7 3 -13 q1 -4 6 -4q16 0 29 40q2 5 3 10.5l2 10.5q3 10 3 19q0 7 -2 13t-6 6q-1 0 -5 -3q-5 -3 -9 -9q-6 -6 -10 -14q-3 -4 -5 -8.5t-4 -9.5t-3 -10l-2 -10q-2 -11 0 -18z" />
<glyph unicode="?" horiz-adv-x="153" d="M36 -16q-2 -15 0 -26q1 -6 2 -11t3 -8q3 -8 9 -8q23 0 43 61l4 16l4 16t2.5 15t1.5 14q0 12 -3 21q-1 7 -8 7q-3 0 -8 -4q-4 -2 -7 -5l-8 -8q-8 -8 -15 -21q-5 -6 -8 -13t-5 -15l-4 -15.5t-3 -15.5zM67 88q1 -2 6 1q2 2 5 4.5t5 4.5q7 7 11 10q7 5 9 5q6 0 7 -4 q2 -4 4 -4q3 0 6 5q2 3 5 9.5l7 15.5l10 21t10 18q10 16 22 28q10 13 21 24q13 13 21 25q11 14 20 32q5 9 9.5 20t8.5 24q5 13 7 23t3 18q3 14 -1 23q-3 8 -12 11q-10 2 -22 2t-29 -10q-9 -5 -18 -11t-19 -14q-9 -8 -18 -17t-17 -19t-13.5 -20t-9.5 -19q-7 -19 -4 -29 q3 -9 12 -9q7 0 20 10q10 9 21 29l9 21q2 7 5 12.5l6 10.5q5 9 14 18q10 8 20 8q8 0 9 -10q3 -10 -1 -21q-8 -31 -21 -53q-5 -10 -11 -18.5t-11 -16.5q-12 -15 -23 -26l-12 -11.5l-12 -11.5q-5 -6 -11 -12.5t-11 -14.5q-11 -16 -21 -37q-5 -11 -8 -19.5t-5 -13.5t-2.5 -8 t-0.5 -4z" />
<glyph unicode="@" horiz-adv-x="416" d="M36 14q0 -16 10.5 -33t26.5 -30.5t35.5 -21t36.5 -5.5q5 1 4.5 5.5t-5.5 4.5q-15 -2 -32.5 5t-32.5 19t-24.5 27t-9.5 29q0 43 15.5 82.5t42 72t62 57.5t75.5 39q11 4 22.5 10t23.5 6q15 0 30 -7t27 -18t19.5 -25t7.5 -27q0 -19 -7.5 -41.5t-19 -46t-25 -45l-24.5 -39.5 q-5 -3 -11 -6l-12 -6q-12 -6 -24 -6q-10 0 -12 4q-3 4 -3 14q0 13 9 31q4 9 9 19t12 21l12.5 22.5t12.5 24.5q7 13 12.5 25.5t9.5 26.5q1 13 -14 19q0 -1 -0.5 -1.5t-0.5 -2.5q0 -1 -2 -3q-10 4 -18 3h-18q-6 0 -13 -1.5t-15 -6.5q-15 -7 -33 -22t-33 -31q-18 -19 -29 -39 q-13 -19 -21 -41q-5 -10 -6.5 -20t-1.5 -20v-7q0 -3 2 -8q2 -8 6 -14q3 -6 10 -11q3 -2 6 -3t8 -1q18 0 34 13l31 27q3 -19 14 -27q10 -9 29 -9q8 0 14.5 1t11.5 3q12 4 17 7q9 7 12 11q2 3 3.5 5.5t2.5 5.5q0 1 -1 1q12 18 25 40t24 45.5t18.5 46t7.5 42.5q0 16 -8.5 31.5 t-22 28t-30 20t-32.5 7.5q-7 0 -13.5 -2.5t-12.5 -4.5q-43 -20 -83.5 -44t-71.5 -56t-50 -73.5t-19 -96.5zM129 39q1 11 4 22.5t10 24.5q7 12 14.5 23.5t16.5 22.5q17 21 36 37q18 15 29 15q8 0 18 -2q7 -1 13 -11l-18 -31t-20 -30q-20 -32 -27 -52q-4 -3 -7.5 -6.5 l-6.5 -6.5q-4 -4 -7.5 -7t-7.5 -6q-4 -2 -7.5 -4t-8.5 -4q-9 -3 -16 -2q-7 2 -10 7q-5 5 -5 10z" />
<glyph unicode="A" horiz-adv-x="1031" d="M35 229q0 -56 28 -99q29 -44 78 -74q50 -30 118 -45q67 -15 147 -15q36 0 72 4t74 13q37 8 72 21.5t68 30.5q67 34 123 87q57 51 93 122q30 -8 66 -9q-5 -18 -10.5 -35t-12.5 -33q-13 -34 -30 -61q-17 -29 -43 -55q-25 -27 -61 -52l-17.5 2l-16.5 2q-17 3 -27 3t-18 -2 q-6 -3 -9 -6q-3 -5 -3 -9q0 -2 0.5 -4.5t0.5 -4.5q2 -12 7 -16q6 -5 30 -5q14 1 29 1t32 1q16 1 31 3t30 5t28.5 7.5t26.5 9.5q26 12 43 33q3 3 0 11q-3 7 -7 6q-7 -4 -13 -8t-11 -7q-5 -4 -10.5 -7t-10.5 -6l-12 -4t-14 -4q-12 -4 -36 -4q40 33 63 66q22 32 37 67 q13 32 24 68q9 35 26 74l21.5 53.5t20.5 54.5q19 53 47 104l15.5 25t16.5 23l17.5 21l16.5 19l16.5 16.5t15.5 14.5t13 12.5l10 10.5q4 4 4 9q1 3 1 11q0 6 -14 15q-12 8 -39 16l-28 6.5t-33 5.5t-38 3.5t-42 1.5q-32 0 -63.5 -3.5t-65.5 -10.5q-67 -15 -128 -40 q-32 -13 -61 -28t-57 -34q-28 -18 -52.5 -37.5t-45.5 -41.5q-42 -44 -66 -93q-12 -25 -18.5 -50.5t-6.5 -52.5q0 -30 9 -58t29 -51q11 -11 23.5 -20.5t29.5 -16.5q33 -14 78 -14q35 0 68 15q35 17 57 45q24 27 40 70q15 42 15 94v13q0 6 -2 14q-1 6 -5 11q-4 4 -9 4t-6 -4 q-2 -4 -2 -8q0 -2 -0.5 -4.5t-0.5 -5.5v-10v-55q0 -32 -13 -58q-13 -28 -36 -49q-22 -21 -50 -34q-29 -12 -58 -12q-32 0 -54 9t-36 23q-13 14 -19 34q-6 18 -6 37q0 60 23 109q25 53 64 95q21 23 44.5 42.5t51.5 36.5q56 36 117 59q31 13 63 22t64 16q64 13 130 13h12 q7 0 14 -2q8 -1 14.5 -2t13.5 -3q6 -2 12 -4.5t11 -5.5q11 -6 15 -13l-4.5 -6.5l-4.5 -6.5q-4 -6 -10 -14q-71 -44 -134 -126q-65 -82 -123 -208q-27 -59 -75 -107q-49 -51 -108 -86q-61 -36 -127 -57t-130 -21q-37 0 -82 6q-42 6 -88 18q-44 12 -84 30q-41 19 -72 45 q-31 25 -50 59q-18 33 -18 74q0 21 13 35q14 16 33 26t42 15q25 6 43 5q26 -1 58 -11q30 -9 57 -25q25 -16 42 -41q18 -24 18 -55q0 -17 -7 -33q-7 -11 -18 -19q-11 -6 -24 -9q-6 -1 -12.5 -1.5t-12.5 -0.5q-33 0 -63 13l-28.5 13t-26.5 11q-3 2 -5 -2t-2 -6q0 -10 12 -18 q13 -10 32 -17q20 -8 43 -12q12 -2 23 -3t22 -1q17 0 34 4q9 3 17.5 7t16.5 11q16 12 28 34q11 22 11 55q0 30 -14 60q-15 28 -43 49q-27 21 -65 33q-39 12 -84 12q-30 0 -61 -9q-32 -10 -56 -28q-26 -21 -40 -51q-16 -29 -16 -76zM921 299q19 39 42 78l22 36.5l22 33.5 t21.5 29.5t21.5 24.5q19 22 36 30q-17 -26 -32 -53.5t-29 -56.5t-24 -58.5t-18 -61.5q-1 -1 -1 -4q0 -1 -0.5 -1.5t-0.5 -1.5q-17 -2 -32 0q-8 1 -14.5 2t-13.5 3z" />
<glyph unicode="B" horiz-adv-x="719" d="M37 269q0 -30 13 -53q12 -23 33 -39t47 -25q14 -5 27 -6.5t27 -1.5q49 0 82 16q17 8 32.5 18.5t28.5 24.5q26 26 48 62q11 17 21 34.5l20 35.5q0 2 -3 7q-2 4 -8 4t-12 -8l-6.5 -8.5t-7.5 -10.5q-3 -6 -6.5 -12l-7.5 -13l-7.5 -13.5t-7.5 -11.5q-15 -21 -30 -39 q-8 -10 -17 -17.5l-18 -14.5q-19 -13 -41 -21q-24 -8 -49 -8q-21 0 -39 6q-18 4 -31 16q-13 10 -21 28q-8 15 -8 38q0 37 12 75q12 39 33 75q11 18 23 35.5t26 34.5q27 34 60 63q16 14 32.5 26t33.5 23q35 21 67 33q18 7 41 13q20 7 44 12l22.5 4l22.5 4t21.5 3t21.5 1 q9 0 16.5 -0.5t13.5 -1.5q16 -2 23 -4q12 -3 18 -7q8 -3 17 -8q0 -3 -2 -4l-1 -1q-43 -31 -74 -72q-29 -38 -51 -97l-92 -247q-5 -13 -11.5 -26.5t-15.5 -29.5q-17 -33 -39 -59q-22 -28 -50 -47q-29 -19 -57 -19q-7 0 -12 0.5t-10 0.5q-5 1 -10 1h-10t-10.5 0.5t-12.5 0.5 q-7 1 -16 1h-19h-10q-4 0 -9 -1q-10 -1 -19 -6q-8 -3 -15 -10q-6 -6 -6 -16q0 -9 5 -16q2 -3 5.5 -5.5l6.5 -4.5q4 -2 7.5 -3t8.5 -2q10 -2 15 -2q32 0 62 11q14 5 29 9.5t30 9.5h4q15 0 26.5 -0.5t19.5 -0.5q8 -1 15 -1h14q5 0 10.5 -0.5t10.5 -0.5q5 -1 11 -1h14 q17 0 35 1.5t38 3.5q19 2 37.5 6.5l37.5 9.5q39 12 71 30q36 19 60 43q26 24 41 58t15 76q0 43 -25 71q-23 26 -62 43q27 11 51 28q24 16 46 39q20 20 33 49q13 27 13 61q0 33 -9 56t-22 37q-6 8 -12 13t-11 10q-6 5 -10 9t-6 7q2 4 12 10q5 2 9.5 5t8.5 5q9 6 15 12 q6 5 3 13q-5 3 -16 -2q-5 -3 -10.5 -6l-11.5 -6q-6 -4 -12 -7t-11 -6q-11 -7 -20 -7h-4q-33 14 -69 19q-35 4 -75 3q-24 0 -50 -4t-54 -12q-27 -8 -54.5 -19t-54.5 -25t-53 -30.5t-51 -36.5q-51 -39 -88 -85q-20 -23 -35 -47t-26 -50q-23 -54 -23 -106zM311 31q2 7 5 8l12 9 q27 22 50.5 46t43.5 51q41 54 60 124q2 5 4 11.5t4 14.5q5 15 11 24q7 -1 13 -1.5t11 -0.5q18 0 30 3q7 2 14.5 3t16.5 1q19 0 37 -10q16 -10 27 -26q11 -13 17 -34q7 -18 7 -37q0 -36 -13 -63q-12 -27 -32 -51q-22 -23 -49 -39q-25 -15 -57 -28q-2 -2 -9 -3q-3 -1 -7 -1.5 t-9 -1.5t-8.5 -1.5t-8.5 -1.5t-10 -1q-8 -1 -16.5 -1.5t-17.5 -0.5q-8 -1 -17 -1h-16h-19t-19 1q-10 0 -19 0.5t-18 1.5q-2 0 -4 0.5t-4 0.5q-4 0 -8 2zM516 361q0 11 10 32q5 12 11 25t14 28l16.5 30l17.5 32l18 30.5t18 27.5l16.5 24t14.5 19q14 17 19 15l13.5 -9.5 l12.5 -8.5q12 -9 20 -17q9 -10 13 -23q5 -12 3 -32q-1 -8 -2.5 -16.5t-4.5 -17.5l-6 -19.5t-8 -19.5q-8 -19 -21 -40q-6 -9 -12.5 -17.5t-14.5 -16.5q-15 -17 -30 -25q-17 -9 -34 -9q-12 0 -29 5q-8 2 -15 3.5t-15 0.5z" />
<glyph unicode="C" horiz-adv-x="655" d="M39 -197q0 -17 2 -36q4 -36 15 -74q10 -35 29 -72q18 -35 43 -61q25 -27 58 -43q32 -16 72 -16q74 0 134 22q62 23 109 77l19 23.5t17 23.5t14 24t11 24q11 26 15 52q2 14 3.5 28.5t1.5 30.5q0 38 -13 67q-12 31 -35 54q-24 22 -54 36q-16 6 -32.5 9.5t-34.5 3.5 q-70 0 -108 -37q-39 -36 -58 -100v-29q0 -37 8 -66q7 -28 33 -55q5 -5 9 -11q4 -4 12 -4t8 7v4q-24 26 -35 55q-9 28 -9 66q0 22 5 47q2 12 6.5 22.5t9.5 20.5q11 19 30 35t45 23h15q41 0 73 -15t55 -48q2 -2 3.5 -5t3.5 -6q2 -4 3.5 -7.5t3.5 -7.5q2 -5 3 -8.5t3 -8.5 q1 -5 1.5 -8.5t0.5 -7.5v-99q0 -7 -4 -15l-3.5 -8.5t-3.5 -5.5q-10 -40 -38 -74q-26 -33 -64 -59q-37 -25 -78 -38q-44 -14 -82 -14q-31 0 -55 15q-23 13 -44 37q-19 26 -32 54l-11.5 30t-9.5 31q-5 16 -8 31.5t-5 30.5t-3 29t-1 26q0 82 19 168q10 45 22 88t28 85 q29 84 69 163l39.5 72.5t39.5 64.5l30 42l34 45t37.5 44.5t41.5 41.5q45 41 94 65q51 27 110 27q32 0 58 -14q25 -14 41 -36q17 -22 25 -52q9 -29 9 -61q0 -39 -21 -76q-11 -20 -23.5 -37t-29.5 -32q-31 -31 -70 -52q-37 -20 -74 -23q-14 -2 -25 5q-12 8 -20 18 q-4 5 -7.5 10.5t-5.5 12.5q-4 11 -4 24q-3 12 2 28q2 8 5.5 16t7.5 16l9.5 15t10.5 15q5 8 10 15t10 13l8.5 12t6.5 10q7 10 7 14q0 7 -7 7h-4q-39 -30 -66 -69q-26 -40 -26 -89q0 -45 25 -70t71 -25q34 0 63 11q29 12 59 32q26 19 51 47l21.5 28t18.5 29q9 15 15.5 30.5 t11.5 31.5t7.5 31.5t2.5 31.5q0 33 -14 63q-14 28 -36 48q-23 22 -53 32q-30 12 -63 12q-64 0 -125 -25q-60 -26 -112 -67q-54 -43 -98 -96q-47 -54 -84 -111q-21 -31 -41 -64.5t-39 -70.5q-18 -36 -34 -73.5t-30 -75.5q-14 -39 -25 -78t-19 -79t-12 -78.5t-3 -76.5 q-2 -16 -2 -33z" />
<glyph unicode="D" horiz-adv-x="796" d="M34 302q0 -20 3.5 -38t9.5 -35q7 -17 16 -31.5t21 -26.5q23 -25 57 -38q31 -13 74 -11q24 1 47 5.5t45 15.5q47 22 78 56q34 35 53 80q20 46 20 93v17v12t-1 12q-1 7 -2 12.5t-3 10.5q-5 10 -13 10q-7 0 -7 -4v-14q0 -8 0.5 -14t1.5 -12t1.5 -12.5t0.5 -13.5 q0 -43 -16 -82q-15 -41 -43 -74q-14 -16 -29.5 -29t-34.5 -23q-37 -20 -79 -20q-33 0 -58 6q-12 4 -23 9t-19 13q-17 14 -28 39q-9 24 -9 58q0 28 5 54t14 52q19 48 53 93q32 43 76 76q42 33 93 58q47 23 102 37q26 6 52 9.5t51 3.5q10 0 27 -4q10 -2 19.5 -3.5t20.5 -4.5 q11 -2 20.5 -5t18.5 -5q19 -6 22 -11q-21 -21 -38.5 -42t-31.5 -41q-29 -42 -48 -79l-17 -37t-14 -36l-11.5 -34l-10.5 -33t-11.5 -31t-12.5 -31q-12 -33 -27 -63t-33 -57q-16 -26 -37 -47q-22 -21 -45 -32q-22 -11 -53 -11q-14 0 -27.5 1.5t-27.5 5.5q-14 3 -27.5 5 t-27.5 2q-5 0 -10 -0.5t-10 -0.5q-5 -1 -9 -2t-8 -3q-9 -3 -13 -10q-5 -5 -5 -17q0 -14 6 -20q7 -6 17 -9q5 -1 10 -1h12q5 0 10.5 0.5t10.5 0.5h20q6 1 11 1h10q5 1 9 1t8 1h8h47h42h43q11 1 22 1.5t23 2.5q25 3 50.5 7.5t51.5 11.5q26 8 51 17t48 20q46 20 90 53 q40 29 73 71q31 39 49 90q18 49 18 109q0 13 -0.5 24t-1.5 22q-2 11 -3.5 21t-4.5 20l-6 18.5t-8 18.5l-9.5 19t-11.5 19q-2 5 -17 20l-28 28l-13.5 13l-11.5 11l-11 13l9 5l10 4l10 4t10.5 4t10.5 4t8 3t5 1q6 2 17 4l10 2l10 2q5 2 9.5 2.5t8.5 2.5q8 2 11 6q3 1 3 6 q0 6 1 9q1 12 -9 15q-7 2 -26 -1q-8 -2 -16.5 -5l-19.5 -7q-10 -5 -19 -9t-19 -9l-18 -9l-16 -8t-13.5 -6.5t-9.5 -4.5l-13.5 4.5t-17.5 5.5q-10 2 -19.5 5t-20.5 5t-22 3.5t-23 2.5q-23 3 -42 3q-26 0 -52 -3.5t-55 -8.5q-58 -11 -113 -33q-28 -11 -55 -24t-53 -29 q-52 -32 -90 -73q-39 -42 -63 -93t-24 -112zM332 38q26 8 50 29q12 11 24 24t23 28q21 27 42 62l18.5 32.5l16.5 30.5q15 28 24 51q10 21 13 29l15 41t13 40q6 19 13 37.5t15 35.5q8 18 17 35t20 34q23 34 57 65q49 -42 76 -98q27 -59 27 -123q0 -61 -19 -115 q-19 -55 -55 -103q-37 -47 -85 -81q-50 -33 -109 -48q-6 -2 -13.5 -2.5t-17.5 -1.5q-9 -2 -19 -2.5t-21 -1.5t-22 -1h-21q-22 -1 -40 0h-17q-7 0 -12 1q-11 0 -13 2z" />
<glyph unicode="E" horiz-adv-x="483" d="M19 199q0 -43 17 -82q19 -39 49 -65q29 -26 70 -43q43 -16 84 -16q47 -1 92 15q43 14 79 44t56 67q20 36 20 84q0 31 -10 52q-5 11 -12 20.5t-17 16.5q-9 8 -20 13t-23 9q-13 3 -26.5 5t-27.5 2q-20 0 -40 -11q-20 -12 -34 -29q-16 -19 -24 -38q-9 -21 -9 -40 q0 -11 6 -24q4 -13 14 -26q8 -11 21 -19q11 -10 22 -8h5q6 0 6 3t-8 8q-5 3 -9 6.5t-9 7.5q-9 9 -18 21q-8 13 -8 27q0 46 22 68q22 24 67 24q22 0 39 -8q16 -7 33 -22q15 -15 22 -32q8 -16 8 -38q0 -38 -14 -65q-12 -28 -38 -50q-25 -21 -57 -31q-33 -12 -67 -11 q-20 0 -39 3.5t-39 9.5q-39 14 -70 37q-30 24 -50 59q-19 34 -19 78q0 30 7 55q7 27 21 51q13 24 32 44q19 21 43 34q5 -14 20 -29q14 -11 33 -19q9 -3 18.5 -5t19.5 -2q21 -2 39 4q9 4 14 15q3 10 3 25q0 20 -17 31q-16 9 -38 14q-21 5 -38 3h-17q0 3 -1 7q0 4 -2 14 q0 5 -0.5 7.5t-0.5 4.5q0 15 3.5 30.5t10.5 32.5q14 35 37 62q12 14 25.5 25.5t30.5 20.5q32 18 70 17q24 -2 45 -9q22 -8 36 -22q15 -14 24 -36q9 -21 9 -51q0 -38 -23 -58q-22 -19 -58 -19q-12 0 -23 4q-11 3 -21 11q-11 8 -16 17q-6 10 -6 23q0 25 8 39q9 15 25 31 q0 11 -4 11q-12 0 -22 -8t-16 -21q-7 -11 -10 -25t-3 -23q0 -39 22 -60t58 -21q27 0 47 10q23 11 37 27q16 16 25 39q9 21 9 45q0 32 -14 53t-36 36q-11 7 -24 12.5t-27 9.5t-28.5 6.5t-28.5 4.5q-39 3 -78 -11q-39 -16 -66 -41t-45 -62q-17 -37 -17 -74q0 -21 4 -36t4 -34 q-17 -9 -31 -20l-28 -23q-25 -23 -45 -53t-30 -63t-10 -73zM208 421h12q7 0 13 -1q12 -2 21 -6q10 -7 14 -15q5 -8 5 -23q-14 -2 -24 3q-14 5 -21 10l-8.5 7t-6.5 8q-5 8 -5 17z" />
<glyph unicode="F" horiz-adv-x="724" d="M29 163q0 -48 26 -82q27 -33 63 -52q20 -10 40 -17t43 -11q42 -9 83 -7q56 1 114 17q53 14 103 44t88 69q20 20 37.5 44t32.5 50q3 5 6 11.5l7 14.5l7.5 15.5l7.5 15.5l7.5 15.5t7.5 14.5q6 15 12 24q7 2 30 4q11 1 22.5 1.5t23.5 1.5q12 0 23.5 0.5t22.5 0.5h30 q7 9 0 16q-17 0 -33.5 -0.5t-33.5 -0.5q-17 -1 -34 -0.5t-34 2.5q6 16 12 30q7 16 13 28q3 8 6.5 14.5l7.5 14.5l8 16t9 17q8 16 17 29.5l17 25.5q18 23 38 41q19 18 42 33q6 4 12 7t12 7q13 -8 26.5 -11.5t32.5 -3.5q5 0 8 1t8 3t9 6t5 9q1 4 2.5 6t1 2.5t-5.5 0.5t-16 1 q-11 2 -22 3.5t-22 6.5l-4 2l-4 2l-4 4q-11 8 -25 12q-8 3 -16 4.5t-17 3.5q-18 3 -35 3q-8 1 -15 1.5t-14 0.5h-16q-20 0 -40 -1.5t-39 -3.5q-36 -6 -73 -15q-34 -10 -71 -26l-36 -16t-35 -18q-28 -17 -60 -44q-30 -27 -54 -57q-12 -16 -21.5 -32t-17.5 -34 q-14 -37 -13 -69q1 -14 2.5 -26.5t6.5 -25.5q8 -28 22 -46q15 -21 36 -33q22 -13 51 -13q36 0 65 19q31 18 54 47q23 27 37 63q13 33 13 66q0 13 -5 26q-6 13 -15 22q-10 10 -23 16q-12 6 -27 6q-27 2 -47 -12q-19 -12 -33 -32q-7 -11 -11.5 -22t-8.5 -23q-6 -26 -6 -47 q-1 -1 -1 -5q0 -5 1 -7q2 -4 3 -5q1 -2 4 -1q2 2 4 3q3 1 3 4q0 17 4 37q6 21 15 43q9 20 23 36t30 16q17 0 30 -8q11 -8 18 -19q7 -9 10 -26q3 -14 3 -27q0 -24 -10 -48q-9 -24 -26 -48q-15 -21 -38 -37q-23 -15 -47 -15q-22 0 -38 9q-15 7 -27 22t-18 33t-6 39q0 41 20 83 q19 42 51 78q30 35 69 64q38 29 74 44q25 10 50 17q14 4 28 7.5t29 5.5l30 4t29 3q15 2 29 2.5t28 1.5h30q8 0 17.5 -2t22.5 -5l1 -1q-36 -21 -72 -51l-33.5 -33t-30.5 -37q-29 -39 -48 -81q-11 -22 -20.5 -43.5t-18.5 -44.5h-5q-2 0 -5 1l-14 2q-4 1 -10 1q-2 1 -3 0.5 t0 -0.5q-11 -3 -5 -15h9q5 0 10 -1l17 -3q-9 -33 -21.5 -64t-28.5 -60q-32 -55 -80 -100q-50 -43 -109 -68q-30 -12 -64 -18.5t-72 -6.5q-11 0 -23 1t-26 3q-28 5 -52 12q-25 7 -51 20q-24 14 -43 31q-19 19 -29 40q-11 21 -11 51q0 34 35 56q35 23 94 26q24 0 53 -6 q30 -5 54 -18q26 -14 42 -34q17 -22 17 -53q0 -15 -7 -29q-7 -13 -18 -22t-25 -14q-15 -5 -28 -5q-4 0 -8 1l-12 3q-8 1 -12 3h-8q-12 0 -12 -11q0 -5 7 -8q7 -4 15 -5q4 -1 8 -1h9q5 -1 8 -1h5q9 0 18 2t18 5q22 8 35 19q8 6 14.5 13.5t11.5 15.5q10 16 10 37q0 35 -15 61 q-16 28 -38 45q-23 19 -55 28q-29 10 -61 10q-27 0 -58 -9q-17 -4 -31.5 -10.5t-28.5 -14.5q-29 -17 -47 -41q-20 -26 -20 -57z" />
<glyph unicode="G" horiz-adv-x="1230" d="M25 -277q0 -32 19 -60q17 -28 48 -49q15 -11 31.5 -19.5t34.5 -15.5q37 -14 72 -14q43 0 91 18q24 8 48 19t48 24l47 28t45 30q22 15 40.5 29l35.5 28q35 28 64.5 60t54.5 68q24 35 44.5 74t37.5 81q23 0 44.5 -2t43.5 -6q43 -9 87 -21q4 -1 7.5 -2.5l8.5 -3.5 q8 -5 17 -5q2 0 6 4t4 7q0 6 -9 12q-5 3 -11 6t-14 5l-33 9q-8 2 -16.5 3.5t-16.5 3.5q-8 1 -14.5 2t-11.5 2t-9 1h-4q-2 0 -5.5 0.5t-8.5 0.5t-9.5 0.5t-9.5 0.5t-10 0.5t-10 0.5q-5 1 -8 1h-5q-2 11 5 30q3 11 6.5 21.5t8.5 22.5l10 22l10 22t9.5 19t8.5 14q3 3 6 8t8 11 q4 7 8 13l9 13t8 13.5l6 12.5q7 13 7 21q0 4 -1 9t-3 10q-3 11 -14 11q-16 0 -25 -11q-5 -5 -9 -11t-7 -13t-5.5 -14t-4.5 -15t-4.5 -14l-4.5 -11q-4 -8 -7.5 -16t-7.5 -16q-5 -14 -17 -31q-15 -20 -36 -33q-22 -13 -43 -19q-24 -8 -48 -9q-22 -3 -47 -1q-21 4 -39 19 q-16 13 -27 32q-11 20 -17 39q-2 11 -3.5 21t-1.5 21q0 62 28 121q14 30 31.5 58t40.5 54q44 53 97 93q52 40 103 64l28.5 12t30.5 11l31.5 9.5t32.5 7.5q16 4 32 6.5t33 4.5t32 2q16 0 32 -1q46 0 88 -16q43 -15 78 -45q33 -27 56 -69q21 -39 21 -87q0 -42 -20 -74t-53 -54 q-30 -20 -71 -31t-77 -11q-26 0 -56 8q-26 7 -51 23q-22 16 -37 39q-14 25 -14 56q0 35 13 58q13 22 33 38q18 15 41 24q25 8 41 11q7 1 9 6q0 4 -4 7q-32 0 -63 -13q-31 -14 -52 -35q-22 -22 -35 -50q-12 -29 -12 -61q0 -34 16 -62q9 -14 19.5 -25.5t24.5 -20.5 q14 -10 28.5 -17t30.5 -12q31 -10 65 -10q51 0 99 20q46 19 83 54q37 36 58 80q21 45 21 96q0 52 -24 90t-62 62t-84 36q-49 11 -91 11q-40 0 -77.5 -4.5t-75.5 -12.5q-75 -18 -143 -51q-58 -29 -115 -70q-58 -44 -103 -98q-23 -27 -42.5 -56t-33.5 -61q-29 -66 -29 -133 q0 -34 12 -59q11 -25 33 -44q10 -9 22 -16t26 -12q28 -9 62 -9q14 0 27 1t25 3q24 4 43 9q8 2 15 4.5t12 4.5l7.5 3l2.5 1q0 -15 -7 -28q-9 -15 -11 -24q-29 -2 -57.5 -3t-56.5 -1q-29 -1 -57.5 -3t-57.5 -7q-18 -3 -40 -7.5t-48 -11.5t-52.5 -15t-54.5 -19l-56 -22.5 t-56 -25.5q-56 -27 -99 -59q-45 -34 -71 -72q-27 -38 -27 -81zM75 -304q0 22 11 49q10 26 31 53q24 27 52 51q15 12 32.5 24t37.5 23q50 28 107 53q29 12 58.5 23t60.5 20q30 10 60.5 17t61.5 12q30 6 59 8.5t57 2.5q4 0 9 -0.5t11 -1.5q13 -3 20 -6q0 -7 -1.5 -16.5 t-6.5 -20.5q-4 -12 -9 -24l-10 -24q-12 -24 -24 -45q-6 -11 -10.5 -18.5t-8.5 -12.5q-8 -11 -19 -23.5t-25 -26.5t-30.5 -28.5l-34.5 -29.5l-38.5 -30l-39.5 -29q-20 -15 -40.5 -28t-40.5 -24q-20 -12 -39.5 -21l-38.5 -17q-37 -14 -63 -14q-96 0 -143 28q-46 28 -46 76z " />
<glyph unicode="H" horiz-adv-x="1085" d="M14 111q0 -26 10 -43q5 -10 12 -17.5l15 -15.5q20 -15 40 -23q21 -10 46 -16q23 -6 47 -9q12 -1 22.5 -1.5t20.5 -0.5q31 0 57 3q23 1 46 8q11 3 22 6.5t22 8.5l22.5 10.5t24.5 12.5q20 10 38 22t35 26q32 27 60 62q14 17 26.5 34t23.5 36q11 18 21 37l20 38 q5 0 11.5 -0.5t14.5 -0.5h36h33q7 0 11 0.5t5 0.5q-3 -8 -6.5 -18.5l-7.5 -21.5q-5 -12 -9 -24.5t-9 -25.5q-5 -14 -11 -27l-12 -27q-12 -27 -27 -51l-15.5 -21.5t-16.5 -18.5q-17 -18 -36 -24h-70q-9 0 -15 -3q-7 -3 -7 -11q0 -9 4 -12q3 -3 11 -7h55h34t36 1 q18 0 35.5 3.5t34.5 9.5q8 3 16 7t17 9q10 5 18.5 10.5t16.5 12.5q17 14 27 29q11 17 11 36q-7 0 -13 -6q-4 -3 -7 -6.5t-7 -7.5q-3 -4 -6.5 -7.5t-6.5 -8.5q-3 -4 -6 -7l-5 -5q-26 -19 -58 -30q-31 -11 -64 -11q12 12 22 24t18 25q16 24 30 51q10 19 18.5 39.5l17.5 41.5 l18.5 43.5l19.5 43.5l20 43l21 43q21 43 48 81q27 40 59 74q17 17 35 31.5t38 27.5q7 4 14 7.5t15 6.5l16 6t17 5q8 3 17 4.5t17 3.5q18 3 33 3h20q11 0 22 -1q22 -2 42 -6q10 -2 17.5 -6.5t14.5 -9.5q12 -12 12 -32q0 -34 -20 -54q-19 -19 -48 -31q-30 -11 -60 -14 q-16 -2 -30 -3t-25 -1q-26 0 -43 4q-20 3 -39 3h-7q-3 -2 -3 -7q0 -7 11 -11q6 -2 12.5 -3.5l14.5 -3.5q15 -3 28 -3q7 -1 11 -1h7q12 0 24.5 0.5t26.5 1.5q14 2 26.5 3.5t26.5 5.5q25 6 49 18q23 12 38 33q7 9 12.5 17.5t10.5 17.5q11 19 11 43q0 25 -12 40t-31 23 q-10 5 -20 7t-21 4q-23 3 -42 3q-50 0 -90 -13q-43 -13 -80 -37q-39 -23 -71 -54l-31.5 -32.5t-29.5 -34.5q-37 -47 -66 -94q-15 -24 -28.5 -48l-26.5 -48h-28q-6 0 -12.5 0.5t-12.5 0.5h-14q-6 0 -13 1q-15 2 -31 3q4 8 8.5 18.5l9.5 22.5q5 13 11.5 26.5l13.5 27.5 l14.5 29l15.5 30t16.5 29l16.5 27l17.5 24.5t18.5 21.5q18 20 35 30q11 7 22 11q7 2 13 5l12 6q11 4 22 13q9 7 9 20q0 6 -3 9q-5 5 -12 6q-9 2 -16.5 4t-14.5 3q-15 3 -27 3q-7 1 -13 1h-13h-27q-69 0 -130 -21q-30 -10 -57.5 -22.5t-53.5 -26.5q-50 -30 -87 -63 q-19 -17 -33 -31.5t-25 -27.5q-16 -17 -27 -37l-11.5 -22t-10.5 -22q-5 -12 -9 -24t-7 -24q-2 -12 -3.5 -24t-1.5 -23t1 -22t4 -22q2 -11 6.5 -20.5t9.5 -18.5q13 -18 30 -28t44 -10q6 0 9 1q4 3 3 9q-31 15 -47 37q-16 20 -16 55q0 52 19 97q10 23 22 45t29 42 q16 20 34 38.5t40 35.5q43 36 89 57q44 23 96 37q48 13 95 13h15t12 -1q5 0 12.5 -2l15.5 -4v-8q-43 -26 -78 -67q-33 -41 -60 -84l-25 -45.5t-23 -45.5t-22.5 -44l-23.5 -41q-8 -13 -14 -25.5t-11 -24.5q-5 -13 -12 -25l-15 -25q-14 -21 -28.5 -40.5t-29.5 -37.5 q-16 -17 -32.5 -32.5t-35.5 -28.5q-34 -25 -79 -41q-44 -15 -93 -15h-17t-20 1q-11 2 -21.5 3.5t-22.5 3.5q-23 4 -45 12q-23 8 -40 19t-29 28q-11 17 -11 39q0 16 11 24q12 9 27 12q8 2 15 3t15 2h25h14q8 0 16 -1q15 -1 32 -6l15.5 -6t14.5 -8q13 -9 21 -24l4 -6 q6 -6 9 -8q5 -5 8 -5q3 -1 5 4q3 22 -12 37t-38 24q-11 5 -22.5 8t-24.5 5q-12 2 -21.5 3t-17.5 1h-20q-10 0 -22 -2q-13 -1 -25 -3.5t-23 -6.5t-20.5 -9.5t-17.5 -12.5q-15 -15 -15 -39z" />
<glyph unicode="I" horiz-adv-x="650" d="M21 177q0 -29 12 -54t32 -45q19 -19 46 -35t53 -26q14 -5 28 -9t28 -6t27 -3.5t25 -1.5q68 0 130 18q60 18 114 53q51 34 94 84q20 25 37 53.5t30 60.5l22.5 56l20.5 53q19 50 45 94q26 45 62 79q19 18 43 34t54 30l11 4q7 3 18 6q5 2 9.5 3t9.5 3q10 3 14 6q6 13 4 21 l-2 6l-2 6q-12 12 -31 16q-11 3 -22 4.5t-24 3.5q-26 3 -53 3h-50q-38 0 -81 -10q-22 -5 -43.5 -12.5t-44.5 -16.5q-22 -10 -43.5 -21t-42.5 -25q-20 -14 -38.5 -29t-34.5 -32q-30 -32 -51 -73q-18 -41 -18 -84q0 -21 8 -40q4 -10 9.5 -19t12.5 -17q14 -17 33 -28 q22 -10 39 -10q21 0 39 8q18 10 27 23q10 12 17 33q6 18 6 39q0 9 -8 22q-8 11 -22 11q0 -5 0.5 -10t1.5 -10q2 -5 2 -10v-10q0 -36 -14 -53t-49 -17q-29 0 -50 18q-20 18 -20 52q0 26 16 60q16 33 39 63q12 16 24.5 29.5t26.5 26.5q25 24 49 38l34.5 18.5l31.5 16.5 q29 14 64 25q16 5 33 9t34 7q18 3 37.5 4t42.5 1q11 0 20 -0.5t17 -1.5q14 -3 23 -10q1 -3 1 -6q0 -2 1 -5q0 -6 -4 -10q-37 -6 -70 -27q-17 -10 -33 -23l-33 -28q-36 -33 -56 -64q-23 -32 -39 -66l-16 -35l-16 -36q-8 -19 -17 -38l-18 -40q-13 -29 -26 -55t-29 -50 q-32 -48 -72 -81q-41 -35 -92 -53q-50 -19 -113 -19q-8 0 -18 1.5l-23 3.5t-26 5.5t-27 8.5t-28 11t-28 13q-27 13 -50 31t-36 39q-14 20 -14 45q2 35 17 56q18 24 41 35q24 13 54 18q15 2 29.5 3.5t28.5 1.5q19 0 51 -8q16 -4 30.5 -9.5t28.5 -13.5q30 -16 49 -36 q21 -21 21 -47q0 -16 -11 -30t-27 -24q-17 -9 -34 -15q-20 -5 -31 -5q-20 0 -42 5l-21.5 6t-21.5 8q-6 0 -7 -3v-8q0 -5 10 -11q5 -2 11 -4t13 -4q13 -4 26 -6q6 -1 10.5 -1.5t6.5 -0.5q24 0 52 5q14 2 25 6.5t22 10.5q20 14 33 34t11 52q0 35 -20 60q-11 12 -23 22t-27 18 t-30.5 13.5t-32.5 8.5q-32 7 -62 7q-36 0 -73 -8q-17 -4 -33.5 -10.5t-30.5 -14.5q-30 -19 -47 -46q-10 -14 -16 -31.5t-10 -37.5z" />
<glyph unicode="J" horiz-adv-x="672" d="M21 -1q0 -45 24 -78q11 -17 26 -31t32 -25q18 -11 37 -20t40 -14q42 -12 77 -12q58 0 110 22q50 23 91 58q20 18 38.5 38.5t35.5 43.5t32 47.5t28 49.5q14 26 26 50.5t23 50.5l21 48t18 44l22.5 56l20.5 53t21 49t23 45q25 42 63 79q19 18 43 34t53 30q2 1 4.5 1.5 t6.5 2.5q5 2 9.5 3t9.5 3t9.5 3t9.5 3q10 3 14 6q6 13 4 21q-2 4 -4 12q-12 12 -31 16q-11 3 -22 4.5t-24 3.5q-26 3 -53 3h-50q-18 0 -38.5 -2.5t-42.5 -7.5t-43.5 -12.5t-44.5 -16.5q-44 -19 -86 -46q-20 -14 -38.5 -29t-34.5 -32q-30 -32 -51 -73q-19 -43 -19 -84 q0 -19 9 -40q4 -10 9.5 -19t12.5 -17q14 -17 33 -28q20 -10 39 -10q21 0 39 8q18 10 27 23q10 12 17 33q6 18 6 39q0 9 -8 22q-8 11 -22 11q0 -5 0.5 -10t1.5 -10t1.5 -10t0.5 -10q0 -37 -15 -53q-13 -17 -48 -17q-29 0 -50 18q-20 18 -20 52q0 26 16 60q8 17 18 32.5 t21 30.5q12 16 24.5 29.5t26.5 26.5q13 13 25.5 22t23.5 16l34.5 18.5l31.5 16.5q29 14 64 25q29 10 67 16q18 3 37.5 4t42.5 1q11 0 19.5 -0.5t16.5 -1.5q15 -3 24 -10q1 -4 1 -11q2 -5 -3 -10q-39 -6 -70 -27q-17 -10 -33 -23l-33 -28q-35 -32 -57 -63q-11 -16 -21 -32.5 t-19 -33.5l-16 -34.5l-16 -36.5l-16 -38.5l-17 -40.5l-18.5 -42t-20.5 -45l-22 -48.5t-24 -48.5q-25 -51 -54 -95q-14 -23 -29.5 -43.5t-32.5 -38.5t-34 -32.5t-36 -25.5q-37 -22 -79 -22q-8 0 -18 1.5t-22 3.5q-25 5 -50 15q-26 9 -52 23l-24.5 15.5t-22.5 16.5 q-20 16 -33 38q-13 20 -13 44q2 36 17 57q8 11 18 19.5t23 15.5q25 13 54 17q15 3 29.5 4t28.5 1q23 0 51 -7q16 -5 30.5 -10t28.5 -13q30 -16 49 -36q21 -21 21 -48q0 -16 -11 -30t-27 -23q-17 -9 -34 -15q-9 -3 -16.5 -4t-14.5 -1q-11 0 -21.5 1t-20.5 4l-21.5 6t-21.5 7 q-5 0 -7 -2v-9q0 -6 10 -10q5 -3 11 -5t13 -4t13.5 -3t12.5 -3q6 -1 10.5 -1.5t6.5 -0.5q24 0 52 5q14 3 25 7t22 11q19 12 33 33q12 22 11 52q0 35 -20 60q-21 25 -50 40q-15 8 -30.5 13.5t-32.5 9.5q-35 6 -62 6q-19 0 -37.5 -1.5t-35.5 -5.5q-17 -5 -33.5 -11t-30.5 -15 q-28 -16 -47 -46q-18 -25 -26 -68z" />
<glyph unicode="K" horiz-adv-x="1234" d="M42 173q0 -43 22 -74q22 -30 56 -48t73 -26q20 -4 38 -5.5t35 -1.5q55 0 106 13t99 44q24 14 46 33t42 42q39 45 70 111q26 1 41 8q13 6 21 17q8 -11 16 -33l7.5 -21.5t6.5 -22.5q4 -11 7.5 -22.5t6.5 -22.5l5.5 -19.5t5.5 -15.5q13 -38 38 -62q25 -26 54 -41 q14 -8 29 -13.5t31 -9.5q28 -7 57 -7q39 0 80 12q40 12 73 36q33 25 52 59q20 35 20 81q0 24 -9 48q-9 22 -26 41t-39 29q-25 11 -51 11q-23 0 -45 -9t-40 -24q-17 -15 -29 -35q-12 -19 -15 -43q0 -19 4 -32q4 -16 14 -29q9 -12 23 -20q14 -7 32 -7q45 0 66 11q23 12 23 26 q0 3 -7 3t-11 -2q-6 -4 -9 -5q-5 -4 -11 -5q-6 -3 -17 -3q-30 0 -52 16t-22 47q0 39 25 64t63 25q23 0 43 -11q21 -11 32 -28q14 -17 21 -37q8 -22 8 -42q0 -37 -12 -62q-10 -22 -31 -40q-19 -16 -46 -27q-14 -5 -27.5 -11l-27.5 -12q-49 -2 -84 10q-36 14 -64 37 q-27 24 -48 54q-11 16 -20.5 31.5t-17.5 32.5q-17 33 -30 66l-13.5 30.5t-14.5 28.5l33.5 33.5t32.5 34.5l33 35.5l33 34.5q34 34 72 63q20 15 40.5 27.5t43.5 23.5q22 10 45 18l46 16q24 7 46 10.5t44 3.5q11 0 24 -1.5t27 -3.5q30 -5 51 -16q24 -12 40 -31t16 -48 q0 -23 -11 -42q-13 -19 -30 -32q-9 -8 -19.5 -13.5t-21.5 -10.5q-12 -5 -24 -8.5t-24 -7.5q-12 -3 -24 -4.5t-23 -3.5q-24 -3 -41 -3q-25 0 -49 6q-13 2 -25 3.5t-25 1.5h-7q-4 0 -4 -3q0 -2 0.5 -3.5l0.5 -1.5q0 -2 3 -3q27 -11 57 -15q30 -3 57 -3q24 0 51 3q27 4 54 12 q27 7 52 20q13 7 24 14.5t20 16.5q18 15 31 40q11 25 11 52q0 36 -16 61q-17 24 -42 39q-26 16 -56 22q-28 7 -59 7q-14 0 -27.5 -1.5t-27.5 -3.5q-28 -6 -53 -15l-26.5 -9.5t-25.5 -10.5l-25.5 -11.5t-24.5 -11.5l-46 -32l-40 -29l-34.5 -26.5t-30.5 -24.5t-25.5 -23 t-21.5 -22q-11 -10 -20 -19.5l-17 -18.5l-15.5 -17.5t-15.5 -16.5q-12 -15 -29 -30q-8 5 -14 13q-7 8 -17 11q8 16 15 32.5l14 33.5q12 33 30 67q8 16 18 31.5t21 29.5q22 29 55 49q7 4 12 6.5t10 4.5t9 4t9 4q8 3 16 8q4 3 8.5 7.5l9.5 9.5q3 15 -4 25q-8 11 -22 18 q-14 8 -31 12q-9 2 -18 3.5t-17 3.5q-18 3 -31 3q-8 1 -13 1h-8q-49 0 -102 -10q-27 -5 -54.5 -12.5t-56.5 -18.5q-28 -10 -54.5 -22.5t-52.5 -26.5q-50 -29 -92 -69q-40 -38 -64 -87q-24 -48 -24 -103q0 -31 13 -53q14 -22 36 -37t48 -21q24 -7 50 -7q40 0 69 19 q31 19 52 50q21 30 33 72q6 20 8.5 41t2.5 42v6q0 4 -1 8q-1 5 -2 8.5t-3 7.5q-2 5 -8 13q-5 5 -11 5q-9 0 -10 -1q-2 -1 -2 -6q5 -9 8.5 -17t4.5 -16q2 -8 2 -16v-18q0 -30 -12 -61q-13 -32 -33 -55q-11 -13 -23 -23t-26 -18q-29 -15 -61 -15q-21 0 -34 10q-14 10 -23 26 q-9 15 -12 33q-4 16 -4 33q0 46 21 88q21 43 57 77q34 35 80 66q23 15 46 27t48 23q50 22 96 32q48 12 87 12h11q7 0 15 -1q18 0 30 -4q14 -3 25 -12q10 -10 10 -28q0 -12 -6 -19q-5 -6 -14 -11q-4 -3 -8 -5.5t-9 -4.5q-10 -3 -18 -11q-14 -13 -26.5 -26l-24.5 -26 l-21.5 -27.5t-19.5 -27.5t-17.5 -29t-16.5 -31q-16 -33 -27 -67q-7 1 -20 -2q-12 -4 -21 -11q-11 -9 -16 -21q-7 -11 -7 -31q0 -11 6 -17l9 -12q-18 -48 -45 -89q-29 -43 -65 -73q-37 -31 -82 -49q-46 -17 -99 -17q-28 0 -62 7q-35 9 -66 24q-16 8 -29 18t-24 22 q-22 25 -22 58q0 36 15 57q15 20 52 20q22 0 35 -4q15 -5 27 -12q6 -5 12 -9.5t11 -10.5l12 -12.5l13 -14.5q4 -2 5 1q2 2 2 5q1 2 1 7v6q-24 38 -53 51q-30 15 -73 15q-21 0 -38 -8q-18 -8 -33 -21q-15 -15 -23 -31q-9 -18 -9 -39zM592 315q0 6 3 11q3 7 9 11q5 4 14 4 l-2 -8q-1 -3 -5 -11q-1 -3 -2.5 -6t-3.5 -5q-5 -5 -8 -6q-3 2 -5 10zM646 301q1 3 1.5 6.5t2.5 7.5t3.5 7.5l3.5 8.5q0 -2 3 -3q2 -2 3.5 -2.5t3.5 -2.5q3 -2 5 -5t0 -5q-6 -10 -13 -11q-4 0 -7 -0.5t-6 -0.5z" />
<glyph unicode="L" horiz-adv-x="784" d="M37 55q0 -10 5 -18q2 -4 5.5 -6.5t7.5 -4.5q9 -5 18 -6q5 -1 10 -1h10h22t17 2q12 1 23 5q5 2 9.5 2.5t9.5 2.5q9 3 25 3h12q46 -16 92 -27q47 -11 96 -11q28 0 63 8q16 4 32 9t31 13q29 13 58 34q27 20 48 47q11 13 18.5 27t13.5 29q12 31 11 66q0 2 -2 12q-3 6 -8 6 q-7 0 -10 -11q-2 -5 -4 -11t-4 -13l-3.5 -14.5t-3.5 -12.5q-2 -7 -2.5 -12t-2.5 -7q-16 -38 -45 -64q-14 -12 -30 -22t-33 -18q-36 -15 -73 -21q-38 -6 -73 -6q-5 0 -12 0.5t-15 1.5q-8 2 -17 3.5t-18 3.5q-10 2 -19 3.5t-19 3.5q-9 2 -17.5 3t-16.5 3q42 31 76 70l32.5 40 t29.5 42t26.5 44.5t23.5 46.5l21.5 48.5l20.5 49.5q22 58 54 111q29 50 71 90q21 19 45 34t51 26q53 22 124 22q23 0 50 -3q14 -2 26.5 -5t23.5 -8q23 -10 40 -27q15 -18 15 -45q0 -25 -9 -41q-4 -8 -9.5 -15t-12.5 -13q-12 -10 -29 -19l-15.5 -7.5l-14.5 -6.5q-7 -2 -12 -5 t-10 -5q-9 -3 -9 -10q3 -3 5 -3h9q20 0 46 12q26 14 47 32q22 20 36 43q15 22 15 45q0 33 -16 57q-17 24 -41 37q-26 14 -55 18q-30 6 -57 6q-72 0 -135 -21q-32 -11 -61.5 -26t-56.5 -35q-26 -20 -50 -44.5t-45 -53.5q-41 -55 -70 -131l-20 -51.5t-21 -49.5l-21.5 -47.5 t-22.5 -43.5q-11 -21 -23 -40t-24 -36q-25 -33 -54 -58q-10 -7 -16 -9t-24 0q-8 0 -20.5 1t-28.5 3t-37.5 2.5t-49.5 2.5q-11 1 -19 -8q-8 -10 -8 -18z" />
<glyph unicode="M" horiz-adv-x="1377" d="M71 184q0 -42 20 -76q19 -32 51 -55q15 -11 32.5 -19.5t36.5 -14.5q41 -11 78 -11q70 0 133 17q60 16 114 50q53 33 95 80q22 23 41.5 50t36.5 56q16 30 30 63q6 16 13.5 31.5l15.5 31.5q16 33 36 60q9 14 19.5 28.5l21.5 29.5q3 6 9 12q2 3 3.5 4.5l1.5 1.5l-10 -26.5 t-12 -27.5l-12.5 -29l-13.5 -30l-12 -31l-12 -31t-10.5 -31l-8.5 -29q-6 -26 -12 -48q-6 -25 -9 -46q-2 -12 -3.5 -23.5t-3.5 -23.5q-1 -11 -1.5 -23t-0.5 -24v-21q0 -5 1 -9.5t2 -9.5q2 -5 4.5 -8t5.5 -6q6 -5 20 -5q16 0 31 20q16 20 30 50q8 14 14.5 28.5t12.5 30.5 l11.5 27.5t10.5 22.5q10 23 22 45.5l26 46.5q28 48 63 86l-6 -16l-6 -16t-5.5 -13.5t-4.5 -9.5q-14 -38 -20 -71q-6 -35 -6 -73q0 -42 12 -79q13 -40 35 -65q22 -28 56 -45q33 -17 78 -17q42 0 81 14q20 8 36 18t30 24q29 28 44 66q16 40 15 91q-1 13 -3.5 25.5t-7.5 24.5 q-9 24 -26 45t-39 33q-23 12 -49 12q-19 0 -39 -7q-20 -9 -38 -22q-18 -12 -29 -31q-12 -18 -12 -39q0 -7 -1 -10q0 -5 8 -5q6 0 11 14q6 14 17 32q5 9 12.5 16.5l15.5 15.5q17 14 48 14q26 0 45 -13q20 -14 32 -35q7 -10 11.5 -21.5t7.5 -23.5q6 -24 6 -47q1 -27 -15 -57 q-17 -29 -41 -52q-27 -24 -54 -38q-29 -15 -52 -15q-36 0 -65 17q-14 9 -26 19.5t-21 24.5q-18 25 -29 61q-9 33 -9 66q0 67 16 125q9 30 20.5 58.5t27.5 54.5t34.5 50t39.5 47q22 23 46.5 42t50.5 36q11 7 22.5 12.5t24.5 10.5q12 5 25 9.5t26 8.5q14 3 27 5.5t27 4.5t27 3 t27 1q43 0 74 -16q30 -14 47 -54q6 -28 -2 -51q-7 -19 -23 -35q-17 -16 -38 -24q-11 -5 -22.5 -8t-23.5 -5q-24 -5 -48 -6q-24 -2 -45 0q-3 0 -3 -2v-6q0 -6 5 -8q4 -2 12 -4q4 -1 7 -1t7 -1h9q34 0 72 9q35 7 67 26q30 19 51 47q20 29 20 69q0 36 -14 59q-12 23 -35 35 q-11 6 -23.5 10t-26.5 6t-28 3t-28 1q-72 0 -135 -22q-32 -11 -61.5 -25.5t-57.5 -32.5q-28 -19 -54 -40t-50 -46t-46.5 -51t-42.5 -54q-41 -56 -75 -114q-17 -29 -31.5 -57l-28.5 -55l-10.5 -21.5t-10.5 -25.5l-11.5 -26.5t-11.5 -24.5q-6 -11 -11 -21.5t-10 -18.5 q-9 -17 -13 -17q-10 0 -14 13q-3 12 -1 36q2 23 6 50q2 14 4.5 28t5.5 28q7 36 18 76q10 40 24 78q6 20 13 38.5t15 36.5q8 19 17 35.5t20 33.5l6 6t9 10t11 12t12 13q13 12 24 24q5 6 9 10l6 6q2 1 4.5 2.5t5.5 3.5q7 3 15 9q4 2 7.5 5.5l6.5 6.5q6 7 6 14q-2 15 -23 26 q-23 13 -51 20q-28 9 -62 12q-16 2 -30 3t-26 1q-23 -2 -47 -5.5t-50 -8.5t-51.5 -11.5t-51.5 -14.5q-55 -17 -99 -40q-48 -25 -83 -57t-58 -75q-21 -43 -20 -94q0 -35 13 -64q15 -31 38 -52q21 -20 53 -34q15 -6 31.5 -8.5t33.5 -2.5q30 0 57 10q29 11 50 29q22 19 35 45 q13 28 13 60v7v12l-3 12q-3 5 -8 5t-7 -2q0 -2 -0.5 -2.5t-0.5 -2.5q0 -7 2 -13q2 -4 2 -9q0 -28 -9 -50q-5 -12 -11.5 -22.5t-14.5 -18.5q-16 -18 -38 -28q-24 -11 -49 -11q-22 0 -46 8l-21.5 10t-19.5 13q-18 15 -30 36q-11 22 -11 48q4 48 26 93q20 42 53 78q32 37 73 63 q40 26 86 45q23 9 46.5 15t47.5 11q46 7 95 4h13q8 0 17 -1q20 -2 35 -7q18 -5 29 -14q12 -9 12 -26q-8 -5 -15.5 -11t-15.5 -14q-9 -8 -17 -16.5l-16 -17.5q-8 -8 -15.5 -16.5l-14.5 -16.5q-8 -8 -13 -14.5t-10 -11.5q-16 -15 -29.5 -32t-25.5 -35q-13 -18 -24 -36.5 l-22 -38.5l-21 -38.5l-20 -38.5q-20 -39 -42 -75q-23 -38 -56 -72q-16 -17 -33 -31.5t-36 -27.5q-38 -24 -81 -39q-21 -8 -43.5 -11t-45.5 -3q-19 0 -39 1.5t-41 6.5q-22 4 -42 10t-38 16q-36 17 -62 48q-24 30 -24 76q0 28 16 44q16 17 39 26q22 9 48 12q25 3 44 3 q33 0 58 -17q22 -14 40 -35q16 -20 23 -35q9 -16 12 -16q1 2 2 3.5t3 3.5q2 6 2 8q0 23 -14 43q-15 20 -35 35q-11 8 -22 13l-23 10q-24 9 -43 9q-29 0 -62 -6q-17 -2 -32 -7t-29 -12q-27 -14 -46 -37q-19 -25 -19 -60z" />
<glyph unicode="N" horiz-adv-x="1214" d="M29 202q0 -61 26 -100q28 -40 69 -65q43 -24 94 -35q26 -5 51 -7.5t50 -2.5q91 0 167 26q38 14 71.5 32t62.5 42q58 49 100 116q22 35 39.5 73t31.5 80l3.5 9t3.5 8t5 9l6 10q3 0 6 -11q1 -5 2 -12t3 -15l2 -18.5t2 -20.5q2 -11 2.5 -21t1.5 -20q1 -11 1.5 -20t0.5 -18 q1 -9 1 -16v-11t-1 -11.5t-4 -14.5t-6 -17t-8 -20q-9 -21 -21 -42q-13 -24 -25 -39q-11 -17 -25 -29t-24 -12l-3 0.5t-10 1.5t-13.5 1.5t-14.5 0.5q-15 0 -24 -4q-10 -5 -1 -15q0 -15 11 -20q9 -5 22 -5q17 0 34.5 1t37.5 3q37 4 71 14q63 20 114 61q52 43 85 98q4 2 4 6v9 q-2 6 -4 8q-3 4 -7 2q-6 -1 -10 -7q-2 -3 -4 -6.5t-4 -7.5t-3.5 -7.5t-3.5 -7.5q-6 -9 -8 -11l-22 -21l-22 -21q-23 -21 -47 -37q-24 -15 -52 -26q-14 -5 -28.5 -7.5t-30.5 -2.5q-2 0 -4 0.5t-4 0.5q-4 0 -4 6q2 2 4 4.5t5 5.5q3 4 6.5 7.5t6.5 8.5l7 8.5t6 7.5q8 8 9 10 q23 35 43 76q10 20 18.5 40l17.5 41l16 41.5l16 41.5t17 41l18 40q10 20 20.5 38.5t22.5 36.5q25 36 54 65q21 19 42 36q20 17 43 31q20 13 46 21q22 7 54 7q10 0 21 -1t23 -3q23 -3 44 -14q20 -9 34 -27q14 -17 14 -43q0 -25 -19 -47q-19 -24 -46 -43q-14 -10 -28 -18 t-30 -13q-30 -12 -54 -12h-15q-6 0 -13 2q-8 1 -16 1h-15h-7q-7 0 -11 -1q-7 0 -11 -3q-4 -1 -4 -6q0 -4 8 -5q4 -2 9 -2.5t10 -1.5l21 -3l15 -3q18 1 38 4t40 9q40 10 77 33q34 21 57 54q23 32 23 77q0 28 -12 49q-11 21 -31 35q-18 13 -44 19q-22 7 -49 7q-38 0 -86 -20 q-47 -20 -87 -49q-44 -31 -77 -66q-17 -17 -30 -34t-22 -33q-17 -29 -32 -57.5l-29 -57.5q-27 -59 -51 -120l-2 6q0 11 -1 21.5t-3 21.5l-9 42q-2 11 -4.5 21.5t-4.5 21.5t-3 21t-1 20q0 32 16 61l16 27l16 27q5 6 9.5 12.5t9.5 12.5l23 23q7 5 13 10l12 10q7 5 13 8.5 t12 8.5q7 5 14 8q4 2 7.5 4t7.5 4q7 3 11 9q4 5 4 15t-14 19q-15 8 -32 14l-18 4t-19 4q-18 3 -27 3q-42 0 -96 -6q-26 -4 -53.5 -9t-55.5 -13q-29 -7 -56 -16.5t-54 -21.5q-53 -23 -96 -59q-41 -35 -68 -83q-25 -46 -25 -108q0 -33 12 -58q12 -26 33 -46q22 -19 49 -29 q30 -11 60 -11q43 0 75 25q33 26 54 62q11 19 18.5 39t12.5 41q9 44 6 79q0 7 -7 11q-5 4 -12 4q-3 0 -3 -4v-6v-9t1 -8q2 -5 2 -9v-8q0 -14 -2.5 -29t-7.5 -31q-11 -34 -28 -61q-18 -28 -44 -48q-27 -19 -58 -19q-42 0 -67 24t-25 65q0 50 19 92q18 44 49 79q30 34 72 63 q42 28 86 47q23 9 45.5 16.5t45.5 12.5t45 7.5t43 2.5q5 0 10.5 -0.5t11.5 -1.5q6 -2 12 -3.5t11 -3.5q12 -7 18 -14q7 -8 7 -21t-8 -23l-10 -8t-12 -9q-11 -7 -29 -20q-17 -12 -32 -32q-42 -50 -72 -108q-29 -57 -51 -117q-6 -18 -12.5 -35.5t-14.5 -35.5l-16 -35t-18 -34 q-10 -16 -21.5 -31t-24.5 -29t-29 -25t-33 -21q-23 -14 -44.5 -24t-44.5 -16q-45 -12 -94 -12q-13 0 -27 1.5t-31 3.5q-31 6 -67 15q-17 5 -33.5 11.5t-33.5 14.5t-31.5 17t-28.5 20q-26 21 -42 48q-16 29 -16 61q0 25 11 44q10 18 27 30q17 11 39 16q11 3 22 4t23 1 q11 0 20 -0.5t18 -1.5q17 -3 34 -9q16 -6 33 -15q8 -5 17 -10t18 -11q6 1 6 5q1 2 1 5q-23 30 -58 45q-36 15 -71 15q-30 0 -64 -8q-16 -5 -30.5 -11t-27.5 -14q-26 -17 -42 -42q-16 -26 -16 -62z" />
<glyph unicode="O" horiz-adv-x="580" d="M46 235q-2 -47 6 -88t25 -71q17 -33 47 -52q27 -20 73 -28q67 -9 127 9q58 18 108 54q48 35 88 87q20 26 35.5 52.5t29.5 55.5t24 58.5t17 60.5q14 62 14 116q0 32 -9 67q-9 33 -27 60q-9 14 -20.5 25t-25.5 19q-27 17 -65 17q-64 0 -119 -16q-29 -8 -55 -20t-51 -26 q-48 -29 -90 -71q-41 -41 -70 -90q-29 -50 -45 -105q-17 -57 -17 -114zM101 180q2 58 13 111q6 28 14.5 55t19.5 53q22 52 56 98q30 43 74 79q43 34 93 53q55 19 111 19q31 0 51 -14q19 -15 31 -37q5 -11 8.5 -23t5.5 -26q3 -27 3 -52q0 -26 -2.5 -53.5t-7.5 -56.5 t-12.5 -57t-18.5 -55q-22 -58 -52 -104q-31 -48 -72 -85q-42 -35 -94 -54q-26 -9 -54.5 -11t-59.5 -2h-4q-26 0 -48 17q-21 19 -32 43q-12 24 -19 53q-2 14 -3 26t-1 23z" />
<glyph unicode="P" horiz-adv-x="674" d="M37 26q0 -15 17 -23q18 -8 37 -11q22 -3 42 -3q11 0 17.5 -0.5t11.5 0.5q26 1 51 1.5t51 -0.5q25 0 49.5 2t47.5 6q47 9 86 30q40 21 72 68q3 6 3 11q1 4 1 14q-23 -27 -48 -48q-24 -20 -55 -36q-28 -13 -63 -19q-33 -6 -69 0q17 7 32.5 18t32.5 26q16 16 31.5 33.5 t29.5 37.5l27.5 40.5t26.5 42.5t23.5 42l20.5 40q24 -25 50 -33q27 -8 61 -8q41 6 74 27q17 11 31 24t26 29q23 32 36 70t13 79q0 26 -11 54q-6 14 -12 25.5t-13 22.5q-13 22 -23 34q-12 14 -10 14q2 4 5 4l6 3q1 1 2 1.5t2 2.5q2 1 2 8q0 3 -4 3q-2 0 -3 0.5t-3 0.5 q-9 0 -18 -3q-5 -1 -9 -1.5t-8 -0.5q-36 13 -84 24q-24 5 -47 7.5t-46 3.5q-56 0 -113 -12q-29 -5 -56.5 -14t-53.5 -20q-27 -11 -51.5 -25t-47.5 -31q-47 -34 -81 -76q-17 -22 -30.5 -46.5t-23.5 -50.5q-20 -55 -20 -116q0 -35 11 -66t31 -51q19 -22 48 -34q30 -11 64 -11 q41 0 79 18q37 17 64 47q14 14 25 31t19 36q16 36 16 78q1 3 0 13q-1 5 -2 7.5t-2 4.5q-6 1 -12 -1q-4 -4 -5 -8q-2 -6 -2 -10q0 -3 0.5 -5.5t0.5 -4.5q-1 -34 -15 -67q-14 -32 -37 -57q-23 -24 -55 -41q-29 -14 -66 -16q-28 3 -48 16t-33 33q-14 21 -20 43q-3 12 -5 24 t-1 24q2 26 8.5 50.5t16.5 47.5q10 24 22.5 46t27.5 42q31 42 70 75q40 34 85 58q23 12 46.5 21t47.5 16q48 13 100 13q10 0 20.5 -1t22.5 -3q22 -3 45 -9q19 -5 37 -12t22 -12q-76 -57 -124 -133q-25 -38 -43.5 -79t-32.5 -84q-6 -18 -13.5 -35.5t-14.5 -35.5l-16 -34.5 l-17 -33.5t-20 -32.5t-23 -30.5q-12 -14 -26 -28t-31 -26q-6 -5 -12.5 -9.5t-11.5 -9.5q-6 -5 -12 -9l-12 -8q-13 -8 -27 -11q-15 -5 -32 -5q-10 0 -19.5 1t-19.5 3l-18.5 4l-19.5 4l-39 6q-17 3 -38 1q-19 -7 -19 -22zM519 327q5 20 11.5 40t14.5 40q13 38 35 77 q19 35 46 70q25 32 59 60l11 9q36 -27 54 -68q16 -41 16 -84q0 -33 -10 -66q-10 -34 -31 -64q-10 -14 -22.5 -25.5t-26.5 -21.5q-29 -18 -65 -18h-13t-15 1q-8 2 -15.5 3.5t-14.5 4.5q-15 4 -24 15q-10 10 -10 27z" />
<glyph unicode="Q" horiz-adv-x="494" d="M46 174q0 -31 9 -59q8 -28 24 -53q16 -26 33 -40q18 -17 36 -21q-3 -6 -4.5 -12.5t-3.5 -13.5q-1 -6 -1 -13v-16q-2 -32 15 -58q16 -28 39 -47q12 -9 25.5 -17t27.5 -13q31 -11 56 -11q46 0 81 16q35 15 63 41q6 6 7 11q0 7 -2 9q-2 3 -6 3q-4 1 -9 -4q-6 -8 -22 -18 q-7 -5 -15 -9t-16 -9l-17.5 -7.5t-18.5 -5.5q-9 -2 -17.5 -3.5t-17.5 -1.5q-23 0 -51 11q-14 6 -26 13t-23 17q-11 9 -19.5 19t-15.5 22q-15 22 -13 47q0 7 1 13t3 12l4 12l4 12q57 3 108 24q26 11 49.5 25t46.5 31q44 34 80 80q35 44 61 97q25 51 39 107q7 28 10.5 55 t3.5 55q0 33 -9 66q-9 35 -28 61q-17 26 -46 44q-26 16 -65 16q-44 0 -89 -18q-23 -10 -45 -22.5t-43 -29.5q-42 -31 -79 -78q-19 -23 -35 -47.5t-30 -51.5q-14 -28 -24.5 -56.5t-18.5 -59.5q-16 -60 -16 -124zM103 197q0 52 13 101q7 26 16.5 51t20.5 50q24 49 54 93 q16 22 32.5 41t33.5 35q33 31 71 52q37 19 70 19q31 0 51 -15q21 -16 31 -39q10 -24 15 -51q2 -14 3 -27.5t1 -25.5q0 -27 -3 -53.5t-8 -53.5q-12 -55 -33 -103q-11 -26 -23.5 -49t-26.5 -45q-14 -21 -29.5 -40t-32.5 -35q-33 -32 -73 -51q-38 -19 -80 -19h2q-29 0 -48 15 q-19 14 -32 38q-12 22 -18 52q-3 15 -5 30t-2 30z" />
<glyph unicode="R" horiz-adv-x="1152" d="M30 137q-2 -45 19 -74q20 -29 54 -49q33 -19 73 -27q40 -7 76 -6q73 5 132 28q61 23 110 63q50 41 88 93q20 27 36 56.5t31 61.5q11 21 21 43t19 45q9 24 19 47t21 46t24 43l27 40q28 39 71 63q14 -8 20 -20q9 -15 11 -29q5 -17 5 -32q1 -8 1.5 -16.5t0.5 -16.5 q-1 -37 -19 -69q-16 -27 -41 -54l-51 -48q-14 -12 -25 -25.5l-22 -27.5q-14 -23 -20 -50q-6 -26 -6 -53q0 -52 18 -92q18 -38 49 -68q31 -27 74 -42q21 -8 43.5 -11t46.5 -4q41 -1 77 12q38 14 64 39q29 26 45 61q9 17 14 36t7 39q0 27 -8 53q-8 27 -23 45q-15 19 -38 31 q-24 11 -53 11q-26 0 -53 -7q-28 -7 -53 -23q-24 -15 -40 -37q-16 -24 -16 -51q0 -6 4 -11q3 -7 9 -11q4 -5 12 -6q6 -3 12 -1l-5 10t-4 7q-2 6 -2 12q0 24 13 40t33 27q17 11 43 17q25 7 43 8q11 1 20.5 -1t19.5 -6q21 -9 34 -22q14 -15 22 -34q7 -17 4 -39q0 -34 -12 -64 q-6 -15 -14 -28.5t-19 -25.5q-20 -23 -50 -38q-30 -14 -63 -14q-41 0 -80 15q-40 15 -73 42q-31 27 -52 64q-20 38 -20 82q0 15 2 29t5 27q4 13 10 25.5t16 25.5l27 22.5l30 23.5q31 25 57 54q26 31 42 65t10 78q-2 7 -3.5 14.5t-4.5 15.5l-6 15.5t-7 14.5l-5.5 12.5 t-5.5 10.5q-2 5 -3.5 7l-1.5 2q-1 0 9 4q6 3 16 12q8 8 8 17q-7 5 -15 5h-9t-9 -2q-8 -2 -17 -6q-8 -5 -16 -8q-14 4 -26.5 8t-25.5 9t-26.5 6.5t-28.5 2.5q-24 0 -49 -1t-51 -5q-51 -8 -102 -24q-25 -9 -49 -20t-47 -24q-45 -26 -82 -63q-36 -35 -61 -81q-24 -45 -30 -99 q0 -29 12 -53q11 -24 32 -43q11 -8 22 -15t24 -12q24 -10 54 -10q34 0 69 19q35 20 60 49q27 30 42 66q16 36 16 73v7q0 5 -2 11q-2 5 -3.5 11t-3.5 11q-5 12 -10 18q-5 8 -13 8q-4 -10 -2 -21q2 -4 2.5 -8.5t2.5 -9.5t3 -9.5t2 -9.5q3 -10 2 -20q0 -15 -4 -29.5t-11 -29.5 q-7 -14 -15.5 -27.5t-19.5 -25.5q-22 -24 -48 -41q-28 -17 -56 -23q-47 0 -74 27q-26 28 -26 72q13 76 48 139q37 63 88 104q54 40 120 60q67 18 142 6q4 -1 16 -3q5 -1 11 -2l12 -2l12.5 -3.5t10.5 -3.5q10 -4 15 -11q-17 -15 -32.5 -31.5t-29.5 -34.5q-27 -36 -51 -75 l-21.5 -40.5l-20.5 -41.5l-19 -41.5t-17 -41.5q-11 -29 -24 -57.5t-29 -56.5q-32 -56 -74 -98t-97 -68q-57 -26 -122 -26q-16 0 -32.5 2t-35.5 5q-35 7 -70 23q-33 17 -54 41q-22 25 -22 59q0 24 14 41q14 19 34 29q11 5 22 9.5t23 6.5q28 5 47 5q22 5 45 -1q26 -7 47 -19 q11 -7 21.5 -14.5t18.5 -15.5q18 -17 26 -34q6 0 7 2q1 1 1 5q-5 14 -12 25.5t-17 20.5q-17 19 -42 31q-11 5 -24 9.5t-27 6.5q-27 6 -55 6q-20 2 -49 -6q-14 -3 -28 -8.5t-27 -12.5q-26 -15 -44 -38q-16 -22 -15 -55z" />
<glyph unicode="S" horiz-adv-x="485" d="M25 175q0 -45 20 -80q20 -34 51 -56t70 -34q42 -11 80 -11q42 0 83 15q20 8 38.5 17.5t34.5 23.5q32 24 52 62q20 36 20 82q0 45 -18 77q-16 32 -44 57q-13 12 -27.5 23t-29.5 21q-16 10 -30 21l-28 22q-13 11 -24 23.5t-20 26.5q-18 27 -18 67q0 23 11 42q12 16 30 30 q18 12 39 18t41 6q28 0 57 -8q29 -10 47 -26q21 -17 32 -43q12 -26 12 -60q0 -14 -6 -26q-6 -11 -16 -18q-7 -6 -22 -11q-14 -3 -26 -3q-5 0 -10.5 0.5t-12.5 1.5l-12 4l-12 4q-12 4 -23 12q-11 7 -15 18q-6 11 -9 19q-2 9 -14 14q-5 0 -4 -5q0 -3 0.5 -4.5l0.5 -1.5 q0 -18 13 -34q13 -15 33 -28q10 -6 20 -10.5t21 -8.5q11 -3 21 -5t18 -2q16 0 35 8q20 10 32 22q15 15 23 31q9 16 9 35q0 33 -15 62q-15 28 -38 47q-23 20 -55 31q-31 11 -61 11q-17 0 -33 -2.5t-31 -7.5q-32 -11 -53 -28q-23 -20 -36 -46q-13 -27 -13 -64q0 -39 17 -70 q17 -29 44 -54q25 -23 57 -45l29 -21.5t27 -22.5q25 -21 44 -51q18 -29 18 -67q0 -37 -18 -65q-9 -14 -20 -25.5t-25 -21.5q-28 -20 -60 -29q-31 -10 -65 -10q-20 0 -38.5 2.5t-37.5 8.5q-38 12 -67 34q-30 23 -49 56q-18 33 -18 76q0 11 1.5 21t6.5 18q7 17 22 30 q13 12 33 20q19 6 40 6q23 0 44 -7l21.5 -10t19.5 -13q8 -7 15.5 -15t12.5 -19q12 -20 12 -43q0 -12 -6 -21t-15 -15t-21 -9t-24 -3q-8 0 -15 1t-15 3q-16 5 -26 15h-11q0 -10 9 -19q10 -8 22 -15q6 -3 12.5 -5.5t12.5 -4.5q12 -4 22 -4q8 0 16.5 2t16.5 5q18 8 27 20 q12 12 18 28q7 17 7 34q0 27 -12 48q-11 23 -29 38q-19 17 -42 26q-24 9 -50 9q-36 0 -61 -11q-29 -11 -48 -30q-20 -19 -31 -46q-11 -28 -11 -60z" />
<glyph unicode="T" horiz-adv-x="562" d="M16 366q0 -42 15 -79q14 -34 41 -64q14 -14 29.5 -24.5t33.5 -18.5q35 -16 79 -16q45 0 86 16q40 15 74 44q32 26 52 65q20 36 20 80q0 15 -1.5 28.5t-6.5 27.5q-10 29 -26 47q-17 21 -40 33q-24 12 -54 12q-34 0 -63 -10q-29 -9 -50 -27q-20 -19 -34 -45 q-12 -27 -12 -61q0 -20 11 -40q13 -21 29 -33q17 -14 38 -23q22 -8 40 -8q0 4 -15 12q-15 7 -33 21q-17 13 -33 32q-15 19 -15 46q0 24 11 46t27 38q9 8 19 14t21 11q22 9 47 9q24 0 45 -9q11 -5 19.5 -11t16.5 -14q15 -15 25 -38q9 -21 9 -46q0 -35 -17 -71 q-16 -33 -44 -61q-27 -26 -63 -43t-71 -17q-33 0 -61 15q-29 16 -49 39q-22 25 -33 53q-12 30 -12 59q0 61 20 107q22 48 55 83q34 36 79 61q23 12 46.5 22t48.5 18q26 8 51.5 12.5t51.5 7.5t51 3q26 0 50 -1q11 -1 22 -1t22 -2q11 -1 20.5 -3l19.5 -4t19.5 -4.5t19.5 -6.5 q11 -3 21 -6t21 -7q5 -3 10 -5.5t11 -6.5l10 -6t10 -7q9 -8 16 -18q6 -11 6 -22l-31.5 -15t-34.5 -19q-34 -20 -69 -50q-17 -15 -32 -32t-29 -36q-26 -38 -40 -84l-10.5 -35.5t-11.5 -36.5q-14 -38 -30 -72q-9 -17 -19 -33.5t-21 -31.5q-22 -31 -50 -52q-27 -23 -63 -33 q-18 -6 -37 -7t-41 -1q-11 -2 -24 0l-13.5 2t-13.5 3q-15 4 -26 10q-10 6 -15 14v8q0 4 1 9q2 4 2 8v9q0 15 -8 27q-8 13 -25 13q-19 0 -31 -14q-13 -14 -13 -34q0 -29 18 -45q16 -16 42 -25t52 -12q27 -3 47 -3q64 -5 115 19q52 26 93 67q42 43 68 96q14 27 25 53.5 t19 52.5q13 46 29 83q15 34 32 59q17 24 37 41q19 17 41 29q11 6 23 11.5t25 10.5t27 11l29 12v1q11 -5 22.5 -7t27.5 -2q8 0 16 4q5 2 9 6t5 9q1 4 2.5 6t1 2.5t-5.5 0.5t-16 1q-11 2 -22 3.5t-22 6.5q-4 2 -7.5 3.5t-6.5 3.5q-23 30 -59 52q-37 21 -80 33q-22 6 -44 10.5 t-45 6.5q-23 3 -44.5 5t-41.5 3q-25 1 -50 -1.5t-51 -6.5q-51 -9 -102 -27q-25 -10 -48.5 -21.5t-46.5 -25.5t-42.5 -30t-37.5 -35q-18 -18 -32.5 -38.5t-25.5 -43.5q-22 -45 -27 -99z" />
<glyph unicode="U" horiz-adv-x="720" d="M22 281q0 -38 12 -69q11 -31 34 -57q22 -24 53 -37q33 -14 70 -14q43 0 85 20q42 21 74 53q31 31 51 74q19 41 19 85q0 23 -8 45q-9 23 -23 38q-7 8 -15.5 14.5t-19.5 11.5q-21 9 -45 9q-41 0 -67 -13q-27 -11 -44 -30q-16 -17 -22 -40q-2 -11 -2.5 -21t-0.5 -21v-15 q0 -9 3 -18q2 -10 6 -16t13 -6q4 0 6 1q2 0 2 6t-0.5 11.5t-1.5 10.5q-1 6 -1.5 11.5t-0.5 11.5q0 47 25 75t71 28q19 0 36 -9q15 -8 29 -24q13 -15 19 -32q7 -17 7 -35q0 -37 -13 -70q-13 -36 -38 -65q-23 -28 -57 -46q-33 -18 -72 -18q-37 0 -60 10q-12 5 -22 12t-18 17 q-16 21 -22 45q-7 25 -7 60q0 14 2 28.5t5 29.5q4 14 8.5 28t11.5 27q6 14 13 26.5t16 25.5q16 24 36 45l40 38.5t40 34.5q38 32 82 55q43 22 92 34q24 5 51 8t56 2h16t18 -1q10 -2 17.5 -2.5t13.5 -1.5q5 -1 8.5 -1.5t4.5 -0.5q11 -3 12 -11q2 -8 -6 -19q-3 -5 -7 -9.5 t-8 -9.5q-16 -16 -29 -31.5t-25 -32.5q-12 -16 -22 -34.5t-19 -40.5q-5 -12 -11 -28l-14 -36q-14 -38 -28 -86q-6 -23 -11 -46t-9 -48q-9 -46 -4 -90q4 -42 24 -75t62 -46q32 -15 62 -2q29 12 56 42q27 31 51 75t43 95q10 25 19 50t17 50q8 26 14.5 49.5t11.5 44.5 q6 22 10 40.5t7 34.5q6 31 6 43q0 13 -3 30q-2 16 -9 30q-6 13 -19 23q-12 9 -31 9q-14 0 -26 -13q-11 -14 -11 -28q0 -16 10 -23l11 -6.5t12 -7.5q14 -8 23 -22q10 -13 10 -44q0 -29 -11 -81q-6 -24 -13.5 -50t-17.5 -53l-21 -53t-24 -53q-26 -53 -52 -91t-55 -57 q-28 -19 -53 -4q-22 12 -35 34q-13 21 -18 46q-6 25 -6 52q0 25 3 51q2 12 3.5 23t3.5 21q2 11 3.5 18.5t3.5 14.5q3 17 7 35t9 38t11 39.5t14 39.5q7 20 15.5 38.5t18.5 35.5q22 36 48 59q9 7 18 11l11.5 6t10.5 5q12 6 19 13q8 6 8 17q0 16 -18 25q-16 8 -41 13 q-24 4 -48 6q-12 0 -21 0.5t-16 0.5q-39 1 -77.5 -4t-76.5 -15t-73 -24.5t-68 -33.5q-32 -20 -61 -43t-55 -52q-52 -57 -82 -130q-11 -28 -15 -46q-4 -17 -4 -47z" />
<glyph unicode="V" horiz-adv-x="723" d="M22 281q0 -38 12 -69q11 -31 34 -57q22 -24 53 -37q16 -7 33.5 -10t36.5 -4q48 -1 88 18q41 22 70 54q29 34 49 76q9 21 14.5 42t7.5 42q-2 26 -10 46q-7 21 -23 38q-15 16 -35 25q-21 9 -46 9q-38 0 -61 -11q-24 -10 -42 -28q-15 -17 -23 -40q-7 -21 -7 -46v-15 q0 -9 3 -18q2 -10 6 -16t13 -6q4 0 6 1q2 0 2 6t-0.5 11.5t-1.5 10.5q-1 6 -1.5 11.5t-0.5 11.5q0 47 25 75t71 28q20 -2 35 -10t30 -23q7 -7 11.5 -15t8.5 -16q4 -9 5 -18t1 -18q0 -39 -13 -72q-13 -34 -38 -62q-22 -25 -57 -44q-33 -18 -72 -21q-37 0 -60 10q-12 5 -22 12 t-18 17q-16 21 -22 45q-7 25 -7 60q0 52 19 100q19 47 51 92q32 41 77 78l46 32.5t49 28.5q49 25 104 39q54 14 107 12q7 0 13.5 -0.5t14.5 -1.5t14.5 -2t13.5 -3q10 -3 21 -8q8 -3 8 -10q0 -5 -5 -15q-3 -5 -6 -9t-5 -8q-30 -32 -54 -63q-12 -16 -22 -34.5t-19 -40.5 q-16 -39 -17 -77q-3 -41 -3 -80q0 -20 -1 -39.5t-3 -39.5t-6.5 -39t-12.5 -37q-14 -30 -33 -48q-19 -19 -45 -31q-12 -6 -25.5 -11t-27.5 -8q-14 -4 -28.5 -7l-28.5 -6l-9 -3.5t-8 -3.5q-9 -5 -9 -15q0 -14 13 -20t24 -6q14 0 29 7q8 4 17 8t18 9q17 8 35 20q16 9 30 15 q74 35 142 82t124 108q55 62 90 133q17 37 28 75.5t13 80.5q1 7 0 14.5t-3 15.5q-2 16 -9 30q-6 13 -19 23q-12 9 -31 9q-14 0 -26 -13q-11 -14 -11 -28q0 -16 10 -23l11 -6.5t12 -7.5q14 -8 23 -22q11 -15 10 -44q-1 -23 -6.5 -44.5t-14.5 -42.5q-16 -41 -42 -79 q-27 -38 -58 -70l-33.5 -32.5t-33.5 -29.5q-10 -10 -25 -21q-17 -14 -35 -25l-18 -10.5t-19 -10.5q-9 -5 -17 -8.5t-14 -5.5q16 19 25 37q9 16 15 33l9.5 33.5t7.5 33.5t4.5 34t3.5 36q2 17 3 35t3 37q2 20 4.5 38.5t6.5 36.5q7 35 23 70q17 35 45 58q9 7 18 11l11.5 6 t10.5 5q12 6 19 13q8 6 8 17q-7 16 -25 28q-15 10 -37 16q-21 4 -42 6q-11 1 -21 1h-19q-59 1 -120 -12q-61 -12 -118 -36q-56 -24 -106 -59q-48 -35 -87 -80q-38 -46 -59 -99q-22 -51 -22 -115z" />
<glyph unicode="W" horiz-adv-x="956" d="M12 274q0 -41 15 -77q14 -32 41 -59q14 -12 29 -21.5t33 -16.5q34 -14 77 -14q26 2 50.5 10t47.5 21q43 26 79 68q34 40 55 91q10 25 15.5 50t6.5 50q1 3 0.5 6t-0.5 6q0 4 -0.5 7t-0.5 6q-2 8 -4 10q-2 4 -6 6q0 -50 -20 -105q-10 -27 -24 -51t-31 -47q-36 -45 -84 -73 q-48 -29 -106 -30q-28 0 -50 12q-11 5 -19.5 13t-16.5 17q-16 20 -24 44q-8 26 -8 51q0 59 20 117q20 56 54 104q17 24 37 45.5t43 41.5t47.5 37t51.5 31q51 28 111 43q57 15 115 15h16t17 1h35q8 -1 16.5 -1.5t16.5 -2.5q17 -3 32 -12q-72 -57 -110 -141q-38 -79 -38 -175 q3 -20 2.5 -40t-3.5 -41q-6 -39 -23 -78q-17 -40 -42 -70q-24 -31 -59 -55q-9 -1 -29 -3l-18.5 -2t-18.5 -3q-20 -5 -34 -13t-14 -23q0 -11 4 -18q3 -8 15 -8q124 39 232 112q107 73 191 175q8 -31 2 -63q-8 -35 -22 -66q-16 -33 -36 -62q-21 -30 -40 -52q-10 -8 -24 -13 q-7 -2 -13.5 -4.5t-12.5 -4.5q-12 -4 -23 -12q-11 -6 -15 -21q2 -10 9 -14t13 -4q7 0 15 3q4 2 7.5 3.5t7.5 3.5t7.5 4t6.5 4q4 2 6.5 4t4.5 4q61 36 120 81q59 47 110 101q52 55 92 116q42 63 68 129q27 67 36 141q10 72 -2 150q0 14 -4 19q-4 6 -17 3q-13 3 -16 -4 q-2 -8 0 -18q15 -63 12 -125q-3 -63 -21 -121q-18 -59 -48 -114q-14 -28 -31 -53.5t-37 -49.5q-42 -51 -85 -90q-23 -20 -47 -38.5t-49 -34.5l14 31.5t15 31.5t14.5 31.5t11.5 32.5q11 30 16 66q3 17 2.5 34.5t-3.5 37.5q18 22 39 57q22 33 41 70q10 18 17.5 36l14.5 36 q13 35 13 66q0 11 -3 23q-3 13 -9 23q-4 8 -14 17q-11 7 -22 7q-32 0 -51 -18q-22 -17 -34 -46q-7 -15 -12 -31t-8 -35q-4 -18 -6 -36.5l-4 -37.5q-3 -39 -3 -75v-63q-42 -74 -104 -134q-62 -62 -139 -99q20 14 37 45q16 28 30 65q12 37 21 73q8 39 9 70q2 16 3 33t3 37 t5 39t8 38q9 38 27 70q15 31 49 50q2 1 5.5 1.5t8.5 2.5q5 1 10.5 1.5t10.5 2.5q9 3 18 8q8 5 6 13q-3 20 -25 31q-21 11 -49 15q-29 4 -60 6q-15 0 -28.5 0.5t-25.5 0.5q-28 0 -57.5 -3t-60.5 -11q-62 -14 -122 -42q-60 -27 -114 -66q-53 -38 -96 -89q-21 -24 -37.5 -50.5 t-29.5 -55.5t-20 -59.5t-8 -62.5zM770 461v17v15q0 8 1 16q0 21 3 42q1 20 8 41q5 17 17 37q10 17 30 31q11 3 22 -1q8 -5 13 -13q4 -9 6 -20v-21q0 -30 -9 -60q-4 -14 -9.5 -28t-12.5 -28q-15 -29 -30 -53q-8 -13 -16.5 -25l-16.5 -24q-2 12 -3 27q-1 8 -1.5 15.5 t-0.5 15.5q-1 8 -1 16z" />
<glyph unicode="X" horiz-adv-x="1265" d="M27 164q0 -52 22 -85q22 -32 57 -52q37 -19 78 -25q41 -7 87 -7q78 0 150 27q73 29 129 79l40.5 39t40.5 43t36.5 46.5t30.5 49.5q22 -49 51 -100q31 -53 68 -90q40 -41 87 -65q49 -25 110 -25q43 0 84 12q40 13 73 38q32 26 51 61q20 34 20 84q-1 20 -14 45 q-6 11 -14 21t-17 19q-21 19 -42 29q-22 11 -47 11q-30 2 -57 -7q-28 -7 -51 -26q-23 -18 -36 -43q-12 -26 -9 -57q0 -45 26 -66q25 -22 70 -22q12 0 23 4q12 3 23 11q9 7 17 19q7 12 7 24q0 5 -1 8q0 4 -3 4q-5 0 -8 -8q-3 -6 -12 -16q-4 -5 -8 -9t-9 -8q-10 -7 -25 -7 q-33 0 -56 20q-22 20 -22 54q0 20 8 39q8 18 22 29q13 12 33 18q18 6 41 6q27 0 48 -12q11 -7 20.5 -14.5t17.5 -17.5q18 -21 26 -43q9 -26 9 -50q0 -33 -17 -58q-19 -24 -44 -37q-27 -14 -57 -20q-32 -6 -59 -6q-41 -2 -73 11q-34 12 -62 33q-15 11 -28 23.5t-26 26.5 l-23 30t-21 32t-18.5 33t-16.5 33q-15 34 -27 66q0 6 4 7q6 2 7 7l34 46.5l35 47.5q17 25 36.5 47t40.5 42q42 41 92 67q52 26 116 26q19 0 42 -3q21 -3 42 -11q22 -10 32 -23q13 -14 13 -40t-11 -42q-11 -18 -29 -28q-20 -11 -39 -17q-21 -6 -42 -6q-5 0 -10.5 0.5 t-11.5 1.5q-5 1 -10 1.5t-10 0.5h-10t-10 -1q-9 -1 -20 -6q1 -4 9 -7q4 -2 8 -2.5t9 -1.5t10.5 -1.5t10.5 -0.5q6 0 10.5 -0.5t9.5 -1.5q27 -3 59 5q29 7 55 24q24 15 41 42q16 24 18 58q0 25 -14 45q-13 20 -31 32q-20 14 -43 21q-24 8 -47 9q-25 2 -48 -1t-44 -9 q-43 -12 -79 -36q-37 -23 -68 -54q-32 -32 -60 -66l-27.5 -35l-27.5 -36l-26 -35l-26 -33q-4 9 -7 17.5t-5 16.5t-5 14.5t-5 13.5t-5 13t-5 12q-2 7 -5.5 13t-6.5 13q-9 18 -19 35t-21 34q-21 33 -50 59t-64 41q-36 15 -78 15q-30 0 -63 -6q-32 -6 -60 -20q-27 -14 -47 -39 q-18 -24 -18 -60q0 -30 13 -53q14 -25 34 -42q21 -18 47 -27q26 -10 53 -10t49 7q25 8 42 22q19 15 30 36q12 21 12 49q-2 10 -10 21q-8 13 -18 23q-12 12 -21 17q-11 6 -18 2q0 -8 8 -14l16 -16q10 -10 17 -21q7 -13 7 -31q0 -13 -8 -26q-10 -12 -20 -18q-7 -4 -13.5 -6.5 t-14.5 -4.5q-15 -3 -29 -3q-25 0 -50 6q-26 8 -44 22q-19 13 -33 35q-12 22 -12 51q0 25 11 39q10 14 27 25q15 8 38 13q11 2 21 3t21 1q46 0 83 -14q35 -12 62 -37q14 -12 25 -26.5t21 -31.5q20 -33 37 -76q1 -3 3.5 -9.5t5.5 -16.5q4 -9 7 -19t7 -21l7.5 -21t7.5 -19 q3 -10 5.5 -16t3.5 -10q0 -6 -9 -21q-4 -8 -9.5 -16t-12.5 -17l-30 -39l-33 -39l-30 -33q-13 -14 -19 -19q-52 -41 -112 -64q-30 -11 -62 -15.5t-65 -5.5q-19 0 -38.5 1t-40.5 4q-44 6 -78 22q-18 9 -33.5 20.5t-27.5 26.5q-25 30 -25 74q0 33 13 56q7 11 15.5 20.5 t19.5 16.5q21 15 49 21q27 7 57 7q31 2 61 -6q30 -6 54 -21q13 -7 23.5 -16.5t19.5 -20.5q19 -23 26 -54q0 -21 -11 -35q-12 -14 -29 -22q-8 -4 -17.5 -7.5t-19.5 -5.5l-19.5 -4t-17.5 -3q-8 -2 -15.5 -3t-13.5 -2q-11 -3 -11 -6v-4l4 -3h25q24 0 50 6q25 6 49 20 q11 7 20.5 15t16.5 19q15 21 15 50q0 38 -18 65q-16 25 -45 44q-27 17 -61 24q-17 3 -34 5t-33 2q-37 0 -73 -13q-38 -13 -66 -36q-15 -11 -27 -25t-22 -30q-19 -32 -19 -73z" />
<glyph unicode="Y" horiz-adv-x="765" d="M-1045 -351q9 -60 35 -108q27 -45 66 -78q40 -34 89 -55q25 -11 50.5 -20t52.5 -15q27 -7 54 -11.5t55 -7.5t54.5 -5t52.5 -3q55 -2 108.5 3t106.5 16q104 21 200 63q49 21 94.5 46.5t90.5 54.5q85 59 166 132q39 36 75 75t70 81t65.5 85t57.5 89q19 32 34.5 65.5 l31.5 68.5l31.5 69.5l30.5 69.5q8 16 14.5 32t14.5 32l15.5 32.5t15.5 30.5q8 16 17.5 31t19.5 29q20 30 45 53q9 -3 18.5 -7.5l20.5 -9.5q22 -10 41 -10q42 0 74 21q31 21 40 63q0 10 -4 17q-5 7 -12 12q-6 4 -15 6q-8 3 -17 3q-17 0 -34 -5q-8 -2 -15.5 -4.5t-14.5 -6.5 l-15 -7.5t-15 -8.5q-7 -5 -14.5 -8.5l-15.5 -7.5q-8 9 -17 18t-18 19l-18 17.5t-20 16.5q-21 18 -42 29q-23 12 -48 18q-35 6 -62 -8q-27 -12 -45 -36q-18 -21 -31 -53t-17 -58q-17 33 -42 59q-24 25 -55 44q-30 17 -66 26q-34 9 -73 7q-46 3 -89 -17q-20 -10 -38.5 -23.5 t-33.5 -30.5q-31 -36 -47 -78q-8 -23 -12 -45t0 -45q-2 -17 1 -32t9 -30q12 -29 34 -53q22 -22 52 -36q30 -15 62 -15q29 0 58 12q27 12 48 33q22 22 32 48q12 28 9 58q3 26 -9 50q-10 24 -29 44q-19 18 -41 29q-24 9 -46 6q23 -9 41 -23q19 -13 33 -32q15 -18 21 -41 q7 -20 5 -48q-2 -19 -7 -35q-8 -20 -19 -32q-6 -7 -13 -12.5t-15 -9.5q-15 -9 -35 -6q-37 0 -64 13q-26 11 -47 35q-20 21 -30 51q-5 15 -7.5 30t-2.5 32q0 33 12 65q6 17 14 30.5t19 26.5q11 12 23 22t27 18q28 15 63 15q56 0 97 -19q43 -20 72 -52q31 -34 51 -76 q18 -40 31 -90q13 -49 17 -95q2 -24 3.5 -47t1.5 -44v-35q0 -16 -1 -32q-1 -31 -6 -61q-5 -32 -13 -58q-5 -15 -10.5 -30t-13.5 -31q-35 -61 -77 -115.5t-93 -105.5q-98 -101 -219 -175q-120 -74 -255 -114q-68 -21 -137 -31.5t-140 -11.5q-26 0 -52.5 0.5t-55.5 2.5 t-57 5.5t-56 8.5q-58 11 -109 31q-53 20 -95 51q-44 33 -72 76q-29 44 -40 105q0 36 16 64t43 49q27 22 60 35q35 15 70 24q18 4 36 7t35 5t33.5 3t30.5 1q16 0 33 -1t37 -3t39.5 -6.5l39.5 -9.5q40 -11 78 -27q20 -8 36.5 -18.5t31.5 -22.5q30 -22 47 -55q18 -32 18 -70 q0 -44 -23 -73q-23 -31 -58 -49q-17 -10 -36 -17t-39 -11q-41 -9 -75 -9q-52 0 -95 10l-46.5 10l-46.5 10q0 -6 4 -11q2 -2 5 -3.5t5 -3.5q41 -21 87 -30q46 -10 96 -7q47 3 94 18q45 13 83 41t62 67q25 41 31 91q-6 39 -24 72q-17 32 -45 58q-14 13 -29.5 23.5t-32.5 20.5 q-32 18 -71 30l-37.5 9.5t-38.5 7.5q-20 2 -38.5 3t-36.5 1q-19 -1 -39.5 -2.5t-43.5 -4.5t-45 -8t-45 -12t-45 -15t-43 -19q-41 -20 -76 -50q-32 -29 -52 -68q-20 -40 -20 -86zM487 496q0 8 2 18.5t5 21.5q8 25 20 44q13 23 29 36q16 15 36 15q33 0 56 -10t43 -27t38 -38 l18 -21t19 -20q-14 -11 -26.5 -24t-22.5 -27q-22 -28 -38 -59q-8 -15 -15.5 -31l-14.5 -32l-14 -33l-14 -33q-13 -31 -29 -64q-8 -16 -17 -30.5t-20 -28.5q-5 39 -9 81q-2 21 -4.5 42.5t-4.5 44.5q-6 45 -15 89q-4 22 -9.5 43.5t-12.5 42.5zM806 533q2 3 10 9q9 6 21 12 l23 10q13 5 17 5q5 0 15 -2q5 -1 8.5 -2t7.5 -3q7 -3 12 -9q5 -5 5 -14q-2 -22 -18 -29q-17 -8 -35 -7q-17 0 -35 8l-16 10t-15 12z" />
<glyph unicode="Z" horiz-adv-x="864" d="M27 68q0 -20 16 -30q17 -11 36 -11q13 0 32 7q9 4 17.5 8.5l17.5 9.5l16.5 10.5l17.5 11.5l15.5 12t15.5 11q47 -16 89 -36q42 -21 87 -39q22 -9 44 -17t45 -14q46 -12 96 -12q56 8 105 28q51 20 95 57q42 34 72 81q14 23 23.5 48.5t13.5 54.5q3 17 1 32.5t-7 31.5 q-5 15 -12.5 29t-18.5 26q-22 26 -50 38q-14 8 -30.5 10.5t-33.5 2.5q-14 -1 -28 -4t-28 -10q-30 -14 -52 -36q-23 -22 -38 -50q-15 -27 -15 -55q0 -51 29 -77q31 -26 77 -26q4 0 8.5 0.5t9.5 1.5l21 6q5 2 10.5 4.5t10.5 5.5q12 7 18 13q2 2 3.5 4t3.5 5q4 6 6 11q1 6 0 10 q-2 4 -10 1q-4 -5 -7.5 -8.5l-8.5 -8.5l-21 -15q-12 -8 -22 -11q-12 -5 -22 -5q-17 0 -34 7q-15 8 -26 20t-15 28q-6 16 -6 34q0 27 13 48t34 35q20 13 46 21q13 3 25.5 5t25.5 2q23 0 43 -9q11 -5 19 -11t16 -14q15 -15 23 -36q9 -21 9 -45q0 -50 -23 -93q-23 -44 -60 -73 q-37 -31 -83 -48q-23 -8 -46 -13t-46 -5t-46 3.5t-44 9.5q-46 13 -86 27l-42 16l-42 16q-43 17 -86 27q42 49 87 96l90 93q5 1 8.5 0.5t7.5 -1.5q7 -3 14 -3q6 0 10 2q4 1 11 6q3 2 9 8q3 4 3 10q0 4 -3 6q-2 2 -6 2q-4 2 -6 2q-3 1 -3 4q0 9 13 25q6 8 13 16.5t15 16.5 l31 31q8 7 12.5 11.5l6.5 6.5q7 9 18 21l11.5 12t12.5 11l12 11.5l11 10.5l10.5 9t8.5 8q11 2 22.5 3t25.5 2q25 3 53 11q27 8 46 21q20 13 28 39q3 9 3 19q0 5 -1 9.5t-3 9.5q-3 8 -10 12q-7 6 -19 4q-25 2 -45 -10q-21 -11 -37 -26l-18 -16t-17 -17q-19 -17 -35 -29 q-40 4 -79 20l-37.5 16l-37.5 16q-19 9 -38.5 16l-39.5 14q-38 13 -87 13q-35 0 -69 -14q-32 -14 -56 -38t-39 -57q-14 -34 -14 -72q0 -29 12 -53q12 -22 31 -38q21 -16 42 -23t44 -7q29 0 51 11q25 10 44 29q21 21 32 44q13 26 13 52q1 4 0.5 8t-1.5 9t-2 8.5t-3 7.5 q-5 8 -10 12q-6 3 -13 -1q0 -12 5 -24q6 -9 6 -23q0 -19 -9 -37q-5 -10 -10.5 -18.5t-12.5 -16.5q-16 -16 -33 -26q-10 -5 -19 -7.5t-19 -2.5q-20 0 -42 6l-21.5 8t-20.5 10q-20 12 -32 29q-13 17 -13 40q0 29 11 56q11 25 32 46q22 20 47 30q28 11 57 11q20 1 39 -1t38 -8 q19 -5 37.5 -11.5t37.5 -14.5l75 -30q40 -14 78 -20q-17 -20 -39 -42l-22.5 -23l-22.5 -23l-23 -23.5l-22 -22.5l-21 -21.5l-19 -20.5h-10q-4 0 -9 2q-5 1 -9 1.5t-8 0.5q-10 0 -17 -7q-9 -8 -9 -15q0 -11 5 -14q3 -2 6 -3.5t7 -4.5q-7 -15 -19 -30l-14.5 -17t-15.5 -17 l-18 -18t-19 -18q-10 -8 -19.5 -17l-18.5 -17q-10 -8 -18.5 -16l-16.5 -15q-16 -15 -24 -25q-14 2 -26 3t-23 3q-21 3 -46 3q-15 0 -31 -6q-8 -3 -15 -7.5t-14 -9.5t-12 -11t-10 -13q-8 -16 -8 -30zM64 86q0 14 8 21q7 7 19 12q6 2 12 2.5t13 1.5q6 0 12 0.5t11 0.5l8 -2 l12 -3q4 -2 7 -2.5t6 -2.5t5.5 -2.5t4.5 -2.5q-4 -3 -8 -7t-9 -8q-11 -9 -21 -15q-6 -4 -12 -7l-12 -6q-13 -5 -21 -5q-11 0 -23 6q-12 4 -12 19zM675 569q0 4 11 15t26 23q17 13 30 20q15 9 23 9q7 0 11 -4q5 -4 7 -12q0 -12 -14 -22q-8 -5 -16 -9t-18 -7q-9 -3 -18.5 -5.5 l-17.5 -4.5q-18 -3 -24 -3z" />
<glyph unicode="[" horiz-adv-x="138" d="M2 -59q-3 -22 9 -20q6 -8 11 -19q4 -10 10 -21q5 -8 14 -13q8 -6 24 -1q8 3 13 7q7 7 10 11q4 6 4 10t-5 6q-17 4 -35 17q-15 11 -26 35q43 150 93 297l51.5 148.5l55.5 148.5q6 5 12 9.5t12 9.5q5 5 11.5 10l12.5 10t12.5 9.5l12.5 8.5q7 5 13 8t13 6q7 4 10 9q3 6 3 12 t-4 10q-4 3 -11 0q-24 -8 -51 -26q-12 -8 -24 -18t-23 -24q-2 0 -9 -5q-6 -4 -9 -14q-11 -33 -24 -67.5t-28 -70.5l-28.5 -73.5l-29.5 -76.5l-28 -79.5l-28 -82.5q-13 -42 -24.5 -84t-19.5 -87z" />
<glyph unicode="]" horiz-adv-x="257" d="M-34 -124q0 -4 2 -10q3 -6 8 -7q11 -5 23 0q11 4 24 14q12 9 24 21l12 10l12 10q6 -2 12 3q5 4 10 15l48 111.5l40 96.5l31.5 83.5t25.5 70.5l19.5 59t14.5 49q12 45 18 73l5.5 26.5l4.5 20.5q3 16 8 32q5 17 -5 20q-6 24 -20 41q-14 16 -33 26q-6 3 -12 -1q-5 -3 -10 -9 q-4 -8 -5 -12q0 -8 5 -10q11 -6 16 -13q6 -6 13 -18l6 -10.5t5 -10.5q6 -11 11 -18q-45 -150 -96 -297l-53.5 -149l-56.5 -149q-14 -11 -26.5 -19.5t-23.5 -14.5q-26 -13 -45 -17q-7 -3 -9 -7q-3 -5 -3 -10z" />
<glyph unicode="_" horiz-adv-x="144" d="M-19 -214h158l8 24h-157z" />
<glyph unicode="`" horiz-adv-x="132" d="M191 514q1 -10 2 -17.5t3 -14.5q2 -6 4.5 -12t5.5 -11t6.5 -9l7.5 -9q4 -4 7.5 -8t8.5 -9q5 -7 15 -2q5 2 9 6l9 9q8 12 11 22q3 12 -3 18q-7 8 -18 13q-5 2 -9.5 5t-9.5 5q-11 4 -18 12q-9 7 -13 22q-8 20 -13 12q-5 -6 -5 -32z" />
<glyph unicode="a" horiz-adv-x="262" d="M7 36q0 -3 0.5 -6.5t1.5 -8.5q4 -10 6 -14q6 -8 10 -11q8 -4 14 -4q19 0 35 13l15.5 13.5l15.5 13.5q1 -17 13 -27q12 -9 29 -9q8 0 14.5 1t12.5 3q12 4 17 7q7 5 11 11t7 11q-3 6 -10 3q-14 -6 -24 -12q-12 -6 -24 -6q-9 0 -13 4q-2 6 -2 14q0 12 8 31q5 9 10 19l11 21 q7 11 13 22.5l13 24.5q13 24 22 52q0 13 -14 19l-2 -4q0 -2 -1 -3q-5 2 -9 3t-9 0h-19q-13 0 -28 -8q-17 -9 -32 -22q-18 -15 -33 -31q-17 -18 -30 -39q-11 -18 -21 -41q-8 -21 -8 -40zM33 39q0 21 14 47q7 12 14.5 23.5t16.5 22.5q17 21 36 37q18 15 29 15q5 0 9 -0.5 t8 -1.5q8 -2 14 -11q-9 -16 -18.5 -31l-19.5 -30q-20 -32 -27 -52q-4 -3 -7.5 -6.5t-7.5 -6.5q-3 -4 -6.5 -7t-7.5 -6q-8 -5 -16 -8q-10 -3 -17 -2q-6 1 -10 7q-4 4 -4 10z" />
<glyph unicode="b" horiz-adv-x="229" d="M12 1q2 -5 11 -5q0 -1 3 -1l0.5 0.5t2.5 0.5q2 1 4 1q3 0 5 1v1h1q37 11 71 33q31 21 54 48q11 13 19 27.5t14 29.5q5 16 8 32t1 32q0 9 -8 15q-8 8 -17 6q-10 -2 -18 -10q-8 -10 -8 -19q0 -12 5 -19q4 -7 9 -10q3 -2 5 -3.5t4 -3.5q3 -3 3 -8q-4 -23 -20 -44 q-15 -18 -33 -33q-17 -14 -37 -25q-19 -9 -32 -16q2 6 5.5 11l6.5 9q4 5 7 10l6 10l22 40.5t21 42.5q11 22 20 45t17 48q5 17 10.5 33t10.5 32l12 32.5t14 30.5q13 30 33 61q10 15 21.5 29.5t25.5 28.5q27 29 68 43q42 15 90 24q7 1 10 9q1 5 5 13q-5 19 -15 25 q-5 4 -10.5 5.5t-11.5 2.5q-21 -5 -42 -13.5t-42 -20.5q-41 -24 -75 -63q-26 -29 -49 -64q-12 -17 -22 -34l-20 -34q-9 -17 -16.5 -34.5l-14.5 -34.5q-6 -17 -11 -33t-8 -31q-10 -52 -32 -103q-22 -50 -42 -83q-6 -10 -11 -17t-10 -13q-9 -9 -16 -21q-4 -8 -4 -16z" />
<glyph unicode="c" horiz-adv-x="193" d="M12 47q0 -17 4 -26q2 -8 9 -14q6 -5 13 -6q10 -2 15 -2q25 -4 49 9t36 41q4 12 1 15t-18 -10q-5 -4 -8 -7.5t-6 -6.5q-6 -6 -13 -10q-4 -3 -14 -7q-5 -1 -9.5 -1.5t-10.5 -0.5q-13 0 -17 8q-5 8 -5 34q0 18 7 35q4 10 9 18.5l10 16.5q13 17 25 27q13 10 25 10q11 0 24 -5 q10 -5 24 -5q17 2 22 11q6 11 5 23q-1 2 -1 5t-1 6q0 6 -3 11q-4 5 -9 8q-6 3 -19 3q-20 0 -44 -18q-13 -9 -24.5 -20t-22.5 -24q-11 -14 -20.5 -28.5t-17.5 -30.5q-15 -32 -15 -59z" />
<glyph unicode="d" horiz-adv-x="262" d="M10.5 36q0.5 -7 1.5 -12q2 -10 8 -17q5 -6 13 -7q5 -2 16 -2q22 0 39 13l36 27l3.5 -14t5.5 -12q7 -11 18 -15q11 -3 21 1q12 5 20 13q5 4 9.5 9t8.5 10q10 12 15 19q6 9 3 14q-1 4 -15 1l-5 -5t-5 -7t-8 -12q-3 -4 -9 -10q-6 -3 -13 -3q-5 0 -7 1q-3 1 -7 3q-3 2 -4 7 q-1 3 1 11q8 27 17.5 54l19.5 55l22.5 55t24.5 53q25 54 57 102q31 48 70 89q40 41 85 69q47 30 100 43q13 3 20 6q3 2 5.5 4t4.5 4t2.5 3.5t1.5 3.5t1 4q0 3 1 5q4 13 -6 25q-11 13 -33 10q-15 -2 -29 -5t-27 -9t-25.5 -13t-23.5 -16q-24 -18 -43 -38q-21 -21 -40 -43 q-52 -60 -92 -132q-21 -38 -40.5 -77.5l-39.5 -83.5l-22 -4t-21 -4q-19 -3 -40 -17q-20 -14 -36 -29t-29 -33q-25 -34 -30 -79q-1 -8 -0.5 -15zM48 56q3 36 23 63q19 26 52 48q14 9 26 12q6 2 12.5 3.5l14.5 3.5q-7 -14 -13 -27.5l-12 -27.5l-12 -29l-12 -29q0 -1 -0.5 -1.5 t-0.5 -1.5t-0.5 -1.5t-0.5 -1.5l-13 -13.5l-13 -13.5q-14 -12 -29 -9q-8 1 -15 9q-7 7 -7 16z" />
<glyph unicode="e" horiz-adv-x="166" d="M5 42q0 -16 7 -30t23 -16q23 0 46 15q11 8 20 16t17 18q9 11 3 14q-7 3 -9 1l-15 -15t-13 -12q-11 -9 -27 -9q-8 0 -17 6q-8 5 -8 14q0 5 0.5 10t1.5 12q2 7 3.5 13.5l3.5 14.5q8 6 16.5 11.5t19.5 10.5t20.5 10l18.5 10q18 10 32 23q13 15 13 33q0 10 -12 19 q-11 9 -21 8q-14 -2 -26 -9.5t-23 -18t-20 -22.5l-16 -22q-11 -17 -19.5 -35.5t-13.5 -38.5t-5 -31zM49 117q11 29 26 50q15 23 35 28q5 1 11 -3q5 -5 5 -11q0 -13 -8 -21q-8 -10 -19 -16q-6 -4 -12.5 -7l-13.5 -6q-12 -5 -24 -14z" />
<glyph unicode="f" horiz-adv-x="151" d="M-5 2q-2 -6 1 -9q2 -2 6 -2t9 3q4 2 7 9q13 23 24 38t21 42q11 27 20.5 54.5l19.5 55.5q5 1 10 1.5t10 0.5q5 1 9.5 1.5t9.5 1.5q8 1 13 1.5t10 1.5q8 1 8 9q0 4 -3 6q-4 3 -9 4q-2 0 -5 0.5t-6 0.5h-10q-5 0 -8.5 -0.5t-6.5 -0.5q-3 -1 -6 -1t-6 -1l20 52.5t21 52.5 t23.5 49t26.5 45q28 42 65 75q37 31 87 48l16 4t17 3q19 1 37 6q9 2 16.5 4.5t13.5 5.5q13 7 15 23q1 6 -3 12q-3 5 -9 10q-7 5 -14 8q-4 1 -7 1.5t-7 0.5q-32 2 -59 -11q-26 -11 -55 -32q-24 -18 -49 -45l-22 -24t-21 -24q-49 -58 -82 -125q-17 -34 -31 -69l-28 -71h-17 t-14 -1q-12 -2 -12 -10q0 -9 11 -12q6 -1 11.5 -1.5t12.5 -0.5l-19.5 -53.5l-19.5 -53.5q-10 -26 -20.5 -42t-21.5 -41z" />
<glyph unicode="g" horiz-adv-x="219" d="M-391 -490q0 -10 4 -14q3 -4 7 -7q6 -2 11 -2q8 0 12 -1q13 0 25.5 0.5t24.5 2.5q24 3 47 9l22.5 6t22.5 7t22.5 7.5l23.5 7.5q70 21 124 55q55 34 99 78q22 22 41 46t35 50q17 26 31 53t26 56q3 8 2 16q-2 11 -8 11q-9 1 -12 -8q-2 -5 -3.5 -9.5t-3.5 -9.5 q-57 -131 -143 -211q-86 -79 -201 -103l16.5 12.5t17.5 14.5t18 15t17 15q9 8 17 16l16 16t15 16.5l14 16.5q32 40 60 83.5t54 92.5q25 49 44.5 101t35.5 109q2 4 2 5q5 14 12 29.5t17 34.5q10 18 18.5 41.5l16.5 44.5q1 7 2.5 7.5l1.5 0.5l-9 3t-10 2q0 -2 -0.5 -5t-1.5 -4 q-9 5 -15 3q-4 -1 -8 -1.5t-8 -1.5q-21 -4 -50 -21q-29 -19 -53 -42q-13 -12 -23.5 -25.5t-19.5 -27.5q-18 -29 -21 -57q0 -16 7 -29q7 -15 23 -16q18 0 40 11q24 11 39 22q-74 -210 -196 -363q-14 -18 -30.5 -35.5t-36.5 -34.5q-41 -35 -84 -57q-11 -1 -22 -1h-23 q-23 0 -47 3h-18q-10 0 -18 -4q-9 -4 -13 -10q-6 -8 -6 -20zM26 42l4 21t6 24q8 25 24 47q5 7 10 12.5l10 10.5q6 5 11.5 9t10.5 8q5 3 10.5 6t10.5 5t8.5 3t6.5 1q5 -1 9 -1.5t8 -1.5q8 -2 13 -11q-19 -29 -33 -62q-8 -16 -13 -28.5t-10 -23.5q-4 -4 -8 -7l-9 -7l-18 -12 q-9 -6 -19 -9q-5 -1 -9 -1.5t-9 0.5t-10 6q-2 3 -3 5.5t-1 5.5z" />
<glyph unicode="h" horiz-adv-x="215" d="M10 25q0 -5 3 -9q2 -3 5 -5t5 2q17 26 33 59q8 16 14.5 32.5t14.5 33.5q4 4 7 8l7 9q3 5 6.5 9.5l6.5 8.5q4 5 7.5 8t7.5 6q9 5 17 4q13 -3 18 -14q7 -11 7 -24q0 -20 -5 -43q-6 -21 -18 -39q-3 -5 -6.5 -9.5t-7.5 -8.5q-6 -7 -18 -14q-5 -2 -9 0q-6 2 -9 4q-6 2 -10 4 q-5 1 -9 0q-11 -3 -18 -12q-8 -7 -8 -18q1 -11 10 -15q10 -3 18 -3q22 2 42 17q23 17 39 40q17 23 29 53q10 27 10 54q-1 4 -1 7q0 4 -1 8q-2 9 -6 15q-4 7 -11 11t-19 4q-17 0 -29 -6l-12.5 -6t-13.5 -7l33 84l18 41t20 39q10 20 21 37t24 34q24 33 57 57q33 25 72 38 q40 14 91 14q2 0 7 3q3 3 7 9q2 2 2.5 5t1.5 5q2 3 2 8q-1 12 -13 24q-13 11 -24 10q-61 -5 -109 -36q-23 -16 -44.5 -35.5t-41.5 -43.5q-40 -50 -70 -109l-29 -60t-27 -61q-14 -31 -26 -60.5l-23 -58.5t-22 -54t-22 -47q-3 -3 -1 -7z" />
<glyph unicode="i" horiz-adv-x="153" d="M9 146q1 -1 1 -2t1 -3q0 -2 2 -4q5 -4 12 -2q5 2 11 6q6 7 12 12q3 2 6 5l5 5q1 -19 -6 -35q-3 -8 -6.5 -16.5t-7.5 -16.5q-9 -14 -15 -32q-7 -15 -7 -34q0 -16 2 -20q3 -8 8 -11q3 -3 11 -5q4 0 12 -2q13 0 23 5q9 4 20 13q11 10 18 19q4 5 7 10.5l6 10.5q0 2 0.5 3 t0.5 3q2 6 2 7v6q0 1 -3 1q-4 -3 -7.5 -6t-7.5 -8q-3 -4 -6.5 -8t-7.5 -8q-4 -5 -8 -8l-9 -7q-9 -6 -20 -6q-6 4 -6 12q-2 8 0 17l2 10t3 10q1 8 5 17q1 5 3 11l4 12q2 7 5 13.5t5 14.5l6 13.5t7 13.5q7 13 15 24q3 3 2 14q-2 11 -4 16q-1 3 -7 7q-4 3 -13 -4l-11 -11l-8 -8 q-2 -2 -3 -3.5t-3 -3.5l-4 -4l-4 -4q-6 -6 -13 -10q-4 -2 -7.5 -5t-6.5 -5q-8 -5 -12 -9q-4 -5 -4 -10zM88 245q-2 -5 3 -8q4 -3 11 -3q7 1 10 12q4 8 5 9q4 5 5 11q0 4 0.5 7t0.5 7q0 9 -10 10q-5 1 -7 -1q-2 -1 -4 -5q-3 -3 -3 -6q0 -5 -1 -7q-1 -3 -3 -7q0 -2 -1 -4 l-2 -4q-4 -4 -4 -11z" />
<glyph unicode="j" horiz-adv-x="134" d="M-72 -91q-3 -9 2 -17q2 -4 5 -6.5t6 -4.5q8 -5 16 -6q8 -3 16 -1q15 4 27 15q10 9 20 27q8 16 14 34l6 19.5t5 19.5q34 7 57 26q21 18 27 54q-11 0 -18 -13q-7 -11 -18 -22q-16 -16 -42 -19q4 21 9 40l10 37t12.5 37l16.5 40q5 5 6 10q3 6 4 7q3 5 2 15q-2 11 -4 15 q-1 4 -7 8q-6 2 -13 -5q-3 -3 -6 -5.5t-5 -4.5l-8 -8q-2 -3 -6 -7q-3 -5 -8 -8q-2 -3 -5.5 -5.5t-7.5 -4.5l-7.5 -5.5l-6.5 -4.5q-8 -5 -12 -10q-4 -4 -4 -9q1 -1 1 -2t1 -3q0 -2 2 -4q6 -5 12 -2q5 2 11 6l12 12q8 6 11 10q-1 -26 -12 -53q-5 -13 -9 -27t-9 -29 q-3 -9 -6 -19.5t-5 -24.5q-31 -7 -57 -32q-25 -26 -35 -70zM-48 -91q7 29 24 50q16 20 39 25q-2 -8 -3 -16t-3 -16t-4.5 -15t-5.5 -13q-6 -14 -14 -22q-7 -9 -19 -12q-5 -2 -11 4q-6 4 -3 15zM103 268q-1 -7 3 -10q4 -4 11 -4q7 1 13 13q4 8 6 11q4 4 7 12q3 7 3 16 q1 9 -9 12q-6 2 -7 -1q-3 -2 -6 -6q-3 -3 -3 -7q-2 -6 -3 -8q-2 -2 -2.5 -4t-1.5 -4q-2 -6 -5 -9q-6 -6 -6 -11z" />
<glyph unicode="k" horiz-adv-x="298" d="M-5 41q0 -6 3 -15q2 -4 3.5 -7.5t4.5 -6.5q5 -6 11 -11q8 -4 14 -4q24 0 44 9q19 7 37 23q9 7 16.5 15.5t14.5 18.5q13 18 25 43q2 -8 4.5 -16l5.5 -18l6 -17.5t8 -16.5t10 -14.5l10 -12.5q11 -10 28 -10l8 2t9 3q10 6 11 13q0 6 -3 9q-4 4 -10 7q-2 2 -5 3.5t-6 3.5 q-7 5 -9 8q-16 22 -23 47q-4 14 -8 26.5t-9 25.5q7 6 13.5 10.5t12.5 9.5q13 8 20 8q6 0 14 -2q3 -2 5.5 -3t5.5 -3l9 -6q3 -2 11 -4q11 -1 21 7q8 9 9 19q0 10 -5 18t-20 8q-25 -1 -52 -14q-25 -11 -45 -31q8 21 15 42.5t13 42.5l14 40.5t15 37.5q6 15 18 42q6 14 13.5 28 l15.5 29q8 14 17.5 28t20.5 28q20 24 47 40q31 15 61 26l29.5 9l26.5 8q12 4 22.5 8t18.5 8q17 9 18 22q0 5 -3 11q-2 3 -3 5.5t-2 5.5q-42 9 -86 -7q-43 -16 -87 -55q-42 -39 -82 -97q-40 -60 -71 -134q-5 -13 -11 -27t-12 -31q-11 -33 -24 -66q-6 -17 -12.5 -33t-12.5 -33 l-13 -30t-13 -27q-11 -23 -26 -39q-12 -15 -25 -14q-8 2 -11 7l-9 12q-3 7 -11 12q-6 6 -20 6q-17 0 -23 -10q-7 -8 -7 -20z" />
<glyph unicode="l" horiz-adv-x="152" d="M11 11q-3 -3 3 -7q4 -3 10 -3q9 0 23 6q7 3 13.5 6.5t14.5 6.5q8 4 15 7l14 6q13 6 13 13q0 4 -2 5q-1 1 -9 1q-10 0 -20 -3q-5 -2 -10 -3t-10 -3q16 20 28 43t20 47l17.5 49t16.5 49l9.5 31.5l9.5 31.5q7 33 18 63q5 16 10.5 30.5t12.5 29.5q13 27 35 54l12 13.5 l13 13.5t14.5 13.5t15.5 11.5q15 12 32 18q19 8 36 8q5 1 10.5 1.5t12.5 1.5q11 1 22 6q10 4 19 11q6 6 8 17q0 11 -2 15q-3 7 -9 13q-5 3 -17 7q-9 3 -26 1q-25 -1 -48 -16q-24 -14 -41 -33l-18 -21t-17 -22q-9 -11 -16.5 -22l-15.5 -22q-11 -15 -20 -30.5t-17 -31.5 t-14.5 -31.5l-13.5 -32.5l-12 -34t-11 -34t-10.5 -34l-11.5 -34l-17 -47t-20 -47t-20.5 -46l-19.5 -46q-10 -5 -17 -11q-9 -7 -13 -16z" />
<glyph unicode="m" horiz-adv-x="293" d="M5 6q0 -5 8 -5q11 0 19 12q7 11 12 23l4.5 11t5.5 14q4 7 7 14t7 15t7 16t7 16q8 16 14 31q3 4 6 7.5t5 7.5t4.5 7.5l4.5 6.5l5.5 5.5t5.5 4.5q7 4 14 4q4 -1 8 -4q3 -3 3 -8q0 -14 -3 -29q-5 -16 -10 -29q-3 -7 -6.5 -14l-7.5 -15l-7.5 -15.5l-7.5 -15.5q-3 -6 -6 -13.5 t-8 -15.5q-6 -13 -10 -29q0 -4 5 -7q6 -1 10 0q9 4 13 10q3 3 4.5 7t3.5 8q4 7 7 19q1 5 2.5 9t3.5 8q5 11 10.5 22l11.5 22q6 12 10.5 23t8.5 22q3 4 6.5 7.5t6.5 7.5q3 5 6 8t6 7q4 3 7 5.5t7 4.5q7 5 15 5q4 0 5 -4q2 -2 2 -7q0 -13 -9 -31q-5 -9 -9.5 -18t-10.5 -19 q-11 -18 -20 -37q-9 -18 -9 -31v-16q2 -10 4 -17q3 -7 8 -14q7 -5 17 -5q19 0 33 11q15 12 22 23q5 6 7.5 12l4.5 11q3 11 1 11q-1 0 -1 2q1 2 -2 2q-7 0 -13 -7l-6 -8l-7 -9q-7 -9 -16 -16q-9 -6 -20 -6q-4 0 -5 4q-1 3 -1.5 5t-0.5 4q2 10 10 28q5 10 9.5 20t10.5 21 l9.5 21t9.5 20q9 21 9 32v14q0 11 -1 16q-1 7 -6 13q-5 5 -14 5q-7 0 -15 -5q-4 -2 -7.5 -4.5l-7.5 -5.5q-4 -4 -7.5 -7t-7.5 -7l-8.5 -7t-6.5 -6q-1 6 -2.5 12.5t-4.5 12.5q-4 13 -17 13q-12 0 -25 -10l-12 -10t-12 -11q1 13 0 20q-4 7 -11 7q-13 0 -23 -6q-11 -6 -21 -15 q-5 -5 -9 -8.5t-8 -8.5q-3 -5 -5.5 -8.5l-4.5 -6.5q-5 -7 -2 -10q1 -3 10 -1q2 0 7 3q2 3 6 7q2 2 3.5 3t3.5 2t7 1q6 -2 3 -15q-3 -15 -10 -33q-3 -9 -7 -18.5t-9 -19.5q-8 -20 -18 -34q-2 -3 -4 -6.5t-4 -8.5q-5 -8 -6 -16q-3 -7 -1 -13z" />
<glyph unicode="n" horiz-adv-x="203" d="M18 8q2 -5 8 -5q11 0 19 12q7 11 12 23l4.5 11t5.5 14l6 15.5t7 15.5q6 15 14 31q7 16 15 30l1 1v1l1 1q0 1 1 2q3 4 6 7.5t6 8.5l6 8t6 7q5 6 13 11q5 5 13 5q3 0 5 -5q2 -4 2 -10q0 -13 -9 -34l-10 -22t-11 -22q-5 -12 -10.5 -23t-10.5 -22q-10 -20 -10 -35q0 -8 1 -13 q0 -8 3 -12q1 -6 8 -9q6 -3 16 -3q20 0 34 11q7 5 12 11l10 12q8 13 11 23q3 11 1 11t0 2q1 2 -3 2q-6 0 -13 -8q-3 -4 -6.5 -8l-7.5 -9q-8 -10 -18 -18q-8 -7 -20 -7q-3 0 -5 5q-1 4 -1 9q0 9 11 29l10.5 20.5t10.5 22.5l11.5 24l10.5 23q10 23 10 43q0 13 -3 22t-22 9 q-12 -2 -23 -11l-12 -10t-13 -10q1 12 -3 21q-5 10 -13 10q-10 0 -16 -7q-8 -6 -14 -10q-5 -2 -10 -4.5t-10 -4.5q-8 -4 -14 -11q-5 -8 -2 -10q2 -4 10 -2t16 7q5 2 9 4t9 3q6 2 1 -15q-3 -17 -12 -39q-9 -25 -19 -47q-5 -12 -10 -21.5l-9 -16.5q-2 -3 -4 -6.5t-4 -8.5 q-4 -6 -7 -16q-2 -9 -1 -13z" />
<glyph unicode="o" horiz-adv-x="164" d="M6 24q0 -3 1 -6q1 -7 5 -14q2 -4 4 -7t5 -5q3 -3 6 -4t8 -2q16 -2 31 8q15 8 33 26q17 18 30 37q8 11 14 21l12 21q11 22 17 40q3 10 5 17.5t2 13.5q0 22 -9 37t-31 15q-14 0 -30 -11q-15 -11 -30 -27q-8 -9 -14.5 -18.5l-13.5 -20.5t-12.5 -21t-10.5 -21t-9 -21t-7 -19 q-6 -20 -6 -33v-6zM35 49q0 10 4 22q2 8 4.5 16t6.5 16q3 8 7 16.5t9 17.5q5 8 9.5 16t9.5 15q12 15 21 23q12 9 21 9q16 0 21 -14q5 -13 5 -27q0 -22 -7 -40q-7 -20 -16 -36q-12 -18 -24 -32q-7 -8 -13.5 -14.5l-13.5 -13.5t-13 -9q-2 -1 -10 -1q-16 0 -19 11q-1 5 -1.5 11 t-0.5 14z" />
<glyph unicode="p" horiz-adv-x="194" d="M-329 -74q0 -10 16 -24t37 -27q11 -7 22.5 -12l22.5 -10q24 -9 40 -9q9 0 19.5 1t22.5 3q11 2 23 5t24 8t24 11t23 14q23 15 40 38q10 12 17.5 24l14.5 23q13 22 20 44q4 -6 10 -10q3 -3 12 -5q21 -3 46 11q24 15 44 38q22 25 33 53q13 27 13 55q0 8 -5 20q-5 10 -12 18 q-9 9 -18 13q-12 5 -21 5q-12 0 -26 -7q-15 -8 -25 -17q9 9 14 18q8 11 10 22q3 3 -3 3q-3 1 -7 1q-7 0 -11 -4q-4 -2 -10 -8l-10 -10q-3 -5 -9 -10q-6 -4 -10 -7q-3 -2 -6 -3.5t-6 -3.5q-3 -3 -9 -7q-3 -4 -2 -6q2 -4 5 -4h8l9 3q8 2 10 2l-3 -12q-1 -3 -2 -6.5t-2 -6.5 l-6 -14t-7 -14q-3 -8 -6 -14.5l-6 -13.5q-8 -25 -13 -55q-5 -31 -16 -53q-25 -52 -67 -83q-43 -34 -98 -37q-18 0 -33 3.5t-28 8.5q-12 5 -24.5 12l-25.5 15q-5 3 -10 9q-2 2 -4 4.5t-4 4.5q-6 6 -9 8q-5 3 -11 3h-4q-3 0 -5 -2q-6 -2 -6 -6zM47 61q0 7 9 28l10.5 20.5 t13.5 21.5q13 21 29 39q17 17 30 17q9 0 13 -5q6 -6 8 -11q2 -4 4 -14q1 -4 1 -8v-6q0 -15 -7 -35q-8 -22 -19 -40q-13 -20 -28 -33q-17 -14 -35 -14q-6 0 -14 4q-6 5 -9 10q-2 3 -2.5 6.5t-1.5 6.5q-1 4 -1.5 7t-0.5 6z" />
<glyph unicode="q" horiz-adv-x="209" d="M-36 -173q-3 -5 1 -11q4 -7 10 -9q4 -1 6 1l3 3l3 3q20 28 36.5 54t30.5 51l27 50l25 47q13 -11 31 -11q15 0 26 3q19 5 29 18q2 3 3.5 5.5t2.5 5.5q-2 5 -9 2l-24 -12q-12 -6 -24 -6q-10 0 -13 5q-3 3 -3 14q0 13 9 31q4 10 9.5 19.5l11.5 20.5l12.5 23l13.5 24 l11.5 25.5t9.5 26.5q1 12 -13 18q-1 -2 -1 -4q0 -1 -2 -3q-8 4 -18 4q-5 -1 -10 -1h-9q-15 0 -31.5 -10t-27.5 -19q-9 -7 -17.5 -15t-16.5 -17q-32 -35 -50 -79q-8 -22 -8 -40q0 -15 8 -29q4 -6 10 -10q5 -4 13 -4q15 0 26 7q12 8 25 19q-17 -44 -45 -92q-14 -23 -32 -50z M22 47q1 11 4 22.5t10 24.5q12 23 30 45t38 38q18 15 29 15q13 0 18 -1q6 -1 14 -12l-19 -31.5t-19 -30.5q-19 -29 -28 -52q-4 -3 -7 -6l-7 -7q-14 -14 -31 -21q-9 -3 -17 -2q-4 1 -10 7q-5 5 -5 11z" />
<glyph unicode="r" horiz-adv-x="162" d="M-4 11q1 -7 8 -7q8 0 13 7q6 8 9 16q2 5 3.5 9.5t3.5 9.5t2.5 8.5t2.5 6.5q6 11 13.5 22t17.5 22t19.5 23.5l18.5 25.5q5 8 10 14t9 10q9 7 9 10q1 -1 1 -2l1 -1q1 -2 0 -9q-1 -3 -2.5 -8t-4.5 -12t-7 -15.5t-10 -19.5q-8 -14 -10 -22q-2 -9 1 -12q2 -5 5 -5q2 -1 6 -1 q5 0 8 7l5.5 11.5l8.5 18.5q3 8 6.5 16.5t6.5 17.5q7 20 8 33t-2 25q-3 10 -16 10q-4 0 -11 -5q-4 -3 -12 -11q-3 -4 -6 -7t-5 -8l-5.5 -7.5t-5.5 -6.5q3 8 4 14.5t1 11.5q0 10 -4 15q-3 4 -8 6q-8 2 -13 2q-9 0 -19 -7q-12 -7 -20 -15q-5 -5 -9 -10.5l-8 -10.5 q-6 -11 -6 -20t1 -10q3 -1 9 0q6 0 11 6q2 4 3 7t3 7q2 3 3.5 6.5t4.5 6.5q5 5 15 5q5 0 9 -1q6 -2 3 -5q-3 -5 -6.5 -11.5l-7.5 -14.5t-7.5 -16.5l-7.5 -17.5q-4 -8 -7.5 -17t-7.5 -17t-7 -15.5t-6 -12.5q-2 -4 -4.5 -7.5t-4.5 -8.5q-6 -9 -9 -19q-4 -8 -4 -15z" />
<glyph unicode="s" horiz-adv-x="157" d="M-36.5 28q0.5 -4 1.5 -7q1 -2 2 -5t3 -7q1 -6 9 -9q4 -2 14 -4q5 -1 8 -1h9h14q22 0 37 12t24 30q9 20 12 40q2 11 2.5 21t0.5 19v10t-1 10q-1 6 -1.5 12t-0.5 11q0 10 3 18q3 7 11 7q10 0 15 -4q7 -4 15 -3q11 2 16 8q6 6 6 14q0 13 -10 16q-9 3 -17 3q-24 0 -37 -10 q-12 -10 -19 -26q-6 -15 -6 -33v-17t1 -15q2 -21 1 -39t-6 -33q-9 -30 -33 -33q-6 -1 -9 5q-4 5 -4 12q0 17 -5 24q-8 6 -15 7q-8 0 -12 -1q-8 -2 -13 -4t-11 -8q-4 -4 -4 -9q-1 -7 -0.5 -11z" />
<glyph unicode="t" horiz-adv-x="173" d="M9 26q0 -18 11 -22q9 -5 21 -7q10 -1 22 3q6 2 11.5 4.5t10.5 6.5q9 5 17 13q7 6 7 11q0 3 -3 8q-4 4 -7 3q-4 -2 -7 -4.5t-6 -4.5q-4 -3 -7 -5.5t-6 -4.5t-6.5 -3.5t-6.5 -3.5q-8 -2 -14 -1q-5 1 -9 6q-5 4 -3 9q4 24 12 45q8 22 17 39q5 10 10 19t11 18l10 18l10 18 q8 1 15.5 1.5t15.5 1.5q15 1 28 -2q3 0 4 3q2 4 2 6t-2 6q-1 3 -5 4q-12 2 -24 -1q-6 -1 -12.5 -1.5t-13.5 -1.5l4 8t4 9l6 18q2 4 3 7q3 3 3 8q2 3 -1 6q-2 3 -8 3q-10 -1 -17 -10l-5.5 -9t-4.5 -9t-4.5 -8.5t-4.5 -8.5q-5 -8 -8 -16h-6q-4 0 -6 1q-2 0 -3 0.5t-2 0.5 q-3 1 -6 0q-2 -2 -4 -2q-1 -1 -1 -6q0 -7 3 -7q3 -1 7 -1h10l-26.5 -55t-19.5 -45q-16 -38 -16 -65z" />
<glyph unicode="u" horiz-adv-x="218" d="M-13 174q0 -2 2 -3h5q8 1 17 3.5t19 6.5q10 5 19 7.5t18 4.5q3 0 5 -2t2 -5q0 -9 -9 -27l-20 -40q-5 -11 -9.5 -22.5l-9.5 -23.5q-8 -25 -7 -42q1 -2 1 -5t1 -6q0 -5 3 -11q4 -6 6 -8q4 -3 12 -3q17 0 34 9l16 10t16 11q0 -13 10 -20q9 -7 23 -9q10 0 19 5q9 4 20 13 q5 5 10.5 10t10.5 10l9.5 11.5t9.5 10.5q3 3 -2 8q-4 6 -8 4l-8 -6t-9 -8l-18 -18q-4 -5 -8.5 -8.5t-9.5 -6.5q-8 -6 -16 -4q-3 1 -6 6q-2 6 -1 9q0 6 6 17q2 5 7 14.5l12 23.5q9 16 19 45l9.5 25.5t9.5 21.5q3 4 3 9q1 5 0 11q0 6 -1 9q0 3 -2 3q-5 0 -8 -3q-5 -5 -6 -8 q-7 -14 -12.5 -27.5l-11.5 -27.5q-5 -14 -10 -25.5t-10 -19.5q-3 -5 -6 -9.5t-6 -9.5q-5 -7 -9 -16q-3 -4 -6.5 -7.5t-7.5 -8.5q-5 -8 -15 -16q-8 -7 -17 -11q-10 -5 -20 -5q-9 0 -9 4q-1 3 -1 7q0 18 10 39q5 11 10.5 22l11.5 23q13 25 21 49q10 24 9 45q-1 5 -6 7 q-5 3 -9 3q-9 0 -28 -6q-21 -6 -34 -13q-3 -2 -6 -2.5t-7 -2.5q-3 -2 -6.5 -3t-6.5 -3t-6 -3.5t-5 -3.5q-5 -5 -3 -8z" />
<glyph unicode="v" horiz-adv-x="245" d="M-7 0q13 -3 38 7l24.5 11l28.5 13q43 18 74 34q15 8 27.5 16.5t22.5 17.5q21 16 30 36q10 19 10 43q0 11 -1 16q0 5 -1 8t-3 6q-3 6 -11 9q-7 4 -21 4t-21 -12q-9 -11 -9 -28q0 -8 7 -14q3 -2 6.5 -4t7.5 -4q7 -3 14 -7q6 -3 6 -11q0 -11 -10 -21q-9 -9 -27 -19 q-8 -5 -17.5 -9.5l-20.5 -9.5l-21.5 -10t-21.5 -11q7 9 12.5 19.5t10.5 22.5q10 23 10 51q0 11 -5 24q-4 13 -13 23q-10 11 -21 17q-12 6 -27 6q-13 0 -24 -7q-13 -7 -13 -18q0 -7 5 -7q3 -1 8 -1q9 1 19 0q9 -2 18 -9q10 -8 14 -22q6 -14 6 -39q0 -24 -10 -41 q-5 -10 -11 -17.5t-14 -15.5q-7 -2 -13.5 -4.5t-12.5 -4.5q-14 -3 -24 -9q-10 -4 -22 -13q-10 -9 -4 -16z" />
<glyph unicode="w" horiz-adv-x="319" d="M6 31q0 -2 0.5 -4.5t0.5 -5.5q2 -8 4 -11q3 -4 8 -8q6 -3 16 -3q9 0 16.5 2t15.5 5l13.5 8l14.5 9q0 -7 1 -10t5 -9q5 -3 13 -6q10 -2 20 -2q19 0 35 10q8 6 16 13t16 15q8 9 15 18.5t14 20.5l13.5 21t12.5 21l12 21l11 19l11.5 17t10.5 14q3 0 6 -1q7 0 10 1q4 0 8 2 t4 5q1 9 -9 16q-11 6 -20 6t-19 -15l-11 -16l-13 -20q-6 -11 -13 -22.5t-14 -25.5l-15 -24.5t-15 -22.5q-15 -22 -31 -37q-16 -14 -30 -14q-17 0 -18 6q-1 7 0 11q0 6 3 12q3 4 7 12q3 7 5.5 14l5.5 15q4 8 7 16.5l6 16.5q3 9 6.5 17.5t6.5 16.5q4 8 7 15.5t6 13.5q2 3 4 9 q2 3 2 9q0 4 -2 8t-9 4q-5 0 -7 -5q-4 -6 -5 -9q-20 -40 -30 -73q-6 -17 -13.5 -33.5t-18.5 -32.5q-5 -7 -11 -14t-13 -14q-14 -14 -32 -14q-8 0 -11 5q-4 3 -4 12q0 17 9 41q7 23 18 52l9.5 24.5l8.5 22.5q9 22 9 33q0 4 -2 10q-3 5 -7 5q-8 2 -16 -5q-5 -4 -10 -8.5 t-11 -10.5l-9 -9q-2 -2 -5 -4.5t-5 -5.5q-6 -6 -8 -9q-3 -5 -3 -9q0 -5 2 -5q4 0 9 3l9 6q5 5 8 7q4 2 7 2t3 -2q1 -2 1 -5q0 -10 -7 -24q-3 -8 -6.5 -16.5l-7.5 -18.5q-4 -9 -7.5 -18.5t-6.5 -20.5t-5 -20.5t-2 -19.5z" />
<glyph unicode="x" horiz-adv-x="241" d="M-26 54q0 -12 4 -20q3 -7 11 -12q5 -4 15 -6q5 -1 9.5 -1.5t9.5 -0.5q22 0 48 15t44 35h4q0 -6 4 -15q2 -6 4.5 -11.5t5.5 -10.5q7 -12 17 -20q11 -8 26 -8q1 0 9 2t13 3q4 2 10 6q4 3 4 8v3l-3 8q-30 0 -45 18t-15 52q0 8 5 20q4 10 12 21q7 8 17 15q9 6 19 6q8 0 14 -5 q9 -6 16 -6q9 0 17 6q6 6 6 16q0 14 -10 20q-9 6 -19 6q-15 0 -25 -6q-14 -7 -21 -13l-8.5 -8.5t-7.5 -8.5q-3 -5 -6.5 -8t-6.5 -6q-1 -1 -2 -1v0l-1 1l-2 10.5t-3 10.5q-4 10 -11 21q-7 10 -16 16q-8 7 -20 7q-5 0 -13 -2q-7 -1 -7 -10q0 -7 7 -11q3 -2 6 -5t7 -6 q4 -4 7.5 -8t6.5 -9q6 -11 6 -26q0 -13 -5 -31q-3 -15 -12 -30q-8 -15 -19 -23q-13 -8 -27 -8q-9 0 -13 6q-2 3 -3.5 6l-3.5 7q-3 7 -8 14q-7 7 -19 7q-11 0 -22 -8q-10 -7 -10 -22z" />
<glyph unicode="y" horiz-adv-x="232" d="M-385.5 -270.5q2.5 -16.5 13 -31.5t29.5 -25.5t47 -11.5q89 -2 158 54q57 45 93 100.5t66 113.5l60 115t74 107q7 1 15.5 0t17 -2.5t17 -1t15.5 5.5q8 6 8.5 14t-3.5 15t-11.5 12t-15.5 5q-18 0 -35.5 -12.5t-32 -30t-26.5 -37l-20 -33.5q0 10 -0.5 27.5t-2 36.5t-5 35.5 t-9.5 24.5q-5 6 -14 9t-18 1.5t-15.5 -7t-6.5 -14.5l5 -9q14 -9 24 -28t15 -41.5t5 -44.5t-6 -37q-16 -44 -43 -97t-62 -102.5t-77 -88.5t-88 -55q-9 -3 -23 -6t-28 -5t-27.5 -1.5t-22.5 4.5q-10 4 -10 13t3 20t5 23.5t-3 25.5l-9 9q-21 6 -34 -0.5t-19 -19.5t-3.5 -29.5z " />
<glyph unicode="z" horiz-adv-x="214" d="M-1 149l2 -8l5 -2q24 25 38.5 38.5t24.5 17.5t16.5 2t15 -8t20.5 -13.5t32 -12.5q-12 -18 -27.5 -34.5l-31.5 -32l-31.5 -31.5t-27.5 -33l-1 -5l3 -5l6 -3h7l6 5q21 1 36.5 -5.5l30 -12.5t31 -6.5t40.5 12.5q9 6 17.5 14.5t8.5 20.5q-14 1 -26 -7.5t-25 -10.5 q-7 0 -18.5 2t-24 6l-24 7.5t-18.5 6.5q10 12 30 31l40 39l37 37.5t21 28.5l-1 8l-5 6l-8 1q-6 -1 -10.5 -4t-8.5 -7q-12 -6 -25.5 -0.5t-28 14t-30 15t-31.5 4t-32.5 -19.5t-32.5 -55z" />
<glyph unicode="{" horiz-adv-x="136" d="M32.5 -79.5q0.5 -9.5 2.5 -17.5q3 -16 17 -19q15 3 33 9q8 3 17 6t17 6l0.5 0.5t1.5 2.5q4 4 6 9q2 2 3 4.5t3 4.5v6v3v1l1 1q-3 -1 -7 -5q-1 -2 -6 -5l-3 -3q-17 -6 -24 3q-9 7 -12 24t-2 36q2 10 3.5 19.5t4.5 19.5q5 27 16 47q6 11 12.5 21l13.5 21l30 42 q7 11 12.5 23t10.5 26q13 29 9 48q-3 21 -14 32l16.5 18l17.5 19q17 21 26 45q7 20 8 34q2 8 2.5 16t1.5 16q0 8 1 15.5l2 15.5q2 8 4 17t7 18q10 32 28 56q20 27 41 37h6l3 8q-4 2 0 4q0 3 1 4l-7 -3q-17 3 -32 -8q-17 -11 -32 -30q-8 -9 -14.5 -20l-12.5 -22 q-14 -25 -21 -46q-5 -13 -8 -26t-5 -27t-3.5 -25.5t-3.5 -22.5q-5 -11 -11 -20.5t-13 -15.5q-13 -13 -28 -22l-13.5 -9.5l-13.5 -9.5q-14 -9 -24 -26q-11 -21 -10 -30q0 -10 7 -13q8 -3 17 -2q5 1 9 1q5 0 10 2q5 1 9 1.5t8 0.5q5 1 7.5 0.5t4.5 -1.5q3 -3 3 -10 q-1 -5 -8 -21q-5 -11 -10.5 -21.5t-11.5 -19.5l-12.5 -17.5t-13.5 -18.5l-13.5 -20l-13.5 -21t-12.5 -24.5t-10.5 -28.5q-8 -17 -16 -45q-3 -12 -5.5 -24t-4.5 -23t-1.5 -20.5z" />
<glyph unicode="|" horiz-adv-x="81" d="M-15 -76q-4 -15 2 -20q6 -6 18 -3q10 1 23 11q12 10 16 24l54 162l25.5 77.5l25.5 77.5l25.5 77l25.5 78l26.5 80l27.5 83q5 12 2 21q-3 8 -10 8q-5 0 -15 -8q-8 -8 -12 -21l-29.5 -83.5l-29.5 -81.5l-29.5 -79.5l-29.5 -79.5l-29 -79.5l-29 -79.5l-29.5 -81z" />
<glyph unicode="}" horiz-adv-x="147" d="M-14 -66v-2l7 3q15 -3 32 8q17 12 31 30q15 18 27 42q14 25 21 46q7 25 12 53q6 27 9 48q8 22 23 37q13 12 27 21q16 9 28 19q7 5 13.5 11t11.5 15q10 19 10 30q-1 10 -8 13q-8 3 -18 2q-11 0 -18 -3q-5 -1 -9 -1.5t-8 -0.5q-8 0 -11 2q-5 2 -3 9q1 4 2.5 9t5.5 13 q8 21 21 40l27 36q7 10 13 20l13 21t12 24l11 29q5 10 8.5 21l7.5 23q4 13 6 24.5l4 22.5q3 22 0 39q-4 16 -17 19q-15 -3 -33 -9l-33 -12q-1 0 -1 -1h-1t-1 -1h-1q-2 -4 -6 -10t-5 -9v-6q-1 -1 -1 -3l-1 -2q5 3 6 5q2 2 3 2.5t3 2.5q2 1 2.5 1.5l0.5 0.5q16 6 25 -2 q9 -9 12 -24q2 -8 2.5 -16.5t-1.5 -18.5q-1 -11 -2 -20.5t-4 -18.5q-4 -25 -17 -47q-11 -21 -27 -43q-8 -10 -15 -20.5l-14 -21.5q-15 -23 -24 -48q-12 -29 -8 -50q5 -22 15 -32l-16.5 -17l-17.5 -19t-15 -21t-11 -23q-4 -10 -6.5 -18t-3.5 -16t-1.5 -15.5t-1.5 -15.5 l-3 -33q-1 -8 -3.5 -16.5t-6.5 -18.5q-4 -13 -12 -29q-7 -13 -17 -27q-8 -11 -20 -22q-11 -11 -21 -15h-5l-2 -8v-2q-1 -1 -1 -2t-1 -2z" />
<glyph unicode="~" horiz-adv-x="159" d="M162 466q0 -5 5 -2l6.5 4.5t7.5 6.5q5 3 8.5 6.5l7.5 7.5q5 3 8 5l6 4q10 6 16 4q5 -1 8 -8q1 -5 1 -15q0 -7 2 -17q1 -8 6 -12q4 -4 15 -2q13 1 27 14l12 14t12 15t10.5 17t9.5 18t8 16.5t5 13.5q5 13 3 16q0 6 -7 -6q-24 -31 -37 -43q-12 -12 -21 -12t-13 8 q-2 4 -4 8.5t-4 9.5q-4 10 -9 16q-6 7 -16 4q-8 -2 -19 -13q-12 -12 -24 -27t-21 -30q-9 -14 -9 -21z" />
<glyph unicode="&#xad;" d="M4 100q0 -4 4 -2q2 1 4.5 2t5.5 3t6.5 3.5t6.5 3.5q6 4 13 6q17 6 28 3q6 -1 11.5 -3t10.5 -4q5 -3 10.5 -5.5t10.5 -4.5q9 -5 26 -5q10 0 16 5q7 4 14 13l5.5 7.5t4.5 7.5q4 7 4 14q2 5 -3 7q-3 1 -12 -3q-14 -10 -24 -11q-9 -3 -19 -1q-5 1 -9 1.5t-8 2.5q-5 2 -8.5 4 t-7.5 4q-5 2 -8.5 3t-8.5 2q-9 1 -19 0q-7 -1 -17 -8t-17 -15q-8 -8 -14 -17q-6 -8 -6 -13z" />
<glyph unicode="&#x2000;" horiz-adv-x="367" />
<glyph unicode="&#x2001;" horiz-adv-x="735" />
<glyph unicode="&#x2002;" horiz-adv-x="367" />
<glyph unicode="&#x2003;" horiz-adv-x="735" />
<glyph unicode="&#x2004;" horiz-adv-x="245" />
<glyph unicode="&#x2005;" horiz-adv-x="183" />
<glyph unicode="&#x2006;" horiz-adv-x="122" />
<glyph unicode="&#x2007;" horiz-adv-x="122" />
<glyph unicode="&#x2008;" horiz-adv-x="91" />
<glyph unicode="&#x2009;" horiz-adv-x="147" />
<glyph unicode="&#x200a;" horiz-adv-x="40" />
<glyph unicode="&#x2010;" d="M4 100q0 -4 4 -2q2 1 4.5 2t5.5 3t6.5 3.5t6.5 3.5q6 4 13 6q17 6 28 3q6 -1 11.5 -3t10.5 -4q5 -3 10.5 -5.5t10.5 -4.5q9 -5 26 -5q10 0 16 5q7 4 14 13l5.5 7.5t4.5 7.5q4 7 4 14q2 5 -3 7q-3 1 -12 -3q-14 -10 -24 -11q-9 -3 -19 -1q-5 1 -9 1.5t-8 2.5q-5 2 -8.5 4 t-7.5 4q-5 2 -8.5 3t-8.5 2q-9 1 -19 0q-7 -1 -17 -8t-17 -15q-8 -8 -14 -17q-6 -8 -6 -13z" />
<glyph unicode="&#x2011;" d="M4 100q0 -4 4 -2q2 1 4.5 2t5.5 3t6.5 3.5t6.5 3.5q6 4 13 6q17 6 28 3q6 -1 11.5 -3t10.5 -4q5 -3 10.5 -5.5t10.5 -4.5q9 -5 26 -5q10 0 16 5q7 4 14 13l5.5 7.5t4.5 7.5q4 7 4 14q2 5 -3 7q-3 1 -12 -3q-14 -10 -24 -11q-9 -3 -19 -1q-5 1 -9 1.5t-8 2.5q-5 2 -8.5 4 t-7.5 4q-5 2 -8.5 3t-8.5 2q-9 1 -19 0q-7 -1 -17 -8t-17 -15q-8 -8 -14 -17q-6 -8 -6 -13z" />
<glyph unicode="&#x2012;" d="M4 100q0 -4 4 -2q2 1 4.5 2t5.5 3t6.5 3.5t6.5 3.5q6 4 13 6q17 6 28 3q6 -1 11.5 -3t10.5 -4q5 -3 10.5 -5.5t10.5 -4.5q9 -5 26 -5q10 0 16 5q7 4 14 13l5.5 7.5t4.5 7.5q4 7 4 14q2 5 -3 7q-3 1 -12 -3q-14 -10 -24 -11q-9 -3 -19 -1q-5 1 -9 1.5t-8 2.5q-5 2 -8.5 4 t-7.5 4q-5 2 -8.5 3t-8.5 2q-9 1 -19 0q-7 -1 -17 -8t-17 -15q-8 -8 -14 -17q-6 -8 -6 -13z" />
<glyph unicode="&#x2013;" horiz-adv-x="139" d="M83 217h119l7 22h-119z" />
<glyph unicode="&#x2014;" horiz-adv-x="200" d="M82 217h182l7 22h-182z" />
<glyph unicode="&#x2018;" horiz-adv-x="101" d="M125 338q-5 -33 6 -57q12 -24 29 -30q8 -2 17 9q9 10 15 24q3 7 4.5 13t3.5 13q1 12 -6 15q-5 2 -9 4t-9 4q-9 3 -15 9q-5 8 -6 17q0 9 9 26q0 2 1 2q3 0 5 1q4 2 7 4q2 2 4 4.5t4 7.5q7 13 4 18q-4 4 -8 4q-6 1 -14 -5q-6 -3 -14 -15l-6 -10l-6 -10t-5.5 -11l-4.5 -11 q-6 -17 -6 -26z" />
<glyph unicode="&#x2019;" horiz-adv-x="124" d="M149 390q-1 -13 5 -16q5 -2 9.5 -3.5t8.5 -3.5q10 -3 15 -10q7 -6 7 -16q0 -11 -8 -26q0 -1 -2 -3q-3 0 -5 -1q-4 -2 -6 -4t-8 -11q-8 -14 -5 -19q4 -3 9 -3q5 -1 13 5q8 5 14 14q7 9 12 21q5 9 9 22q4 10 5 14l3 12q2 34 -8 57q-11 24 -29 30q-7 2 -16 -9q-4 -5 -8 -11 t-7 -13q-7 -15 -8 -26z" />
<glyph unicode="&#x201c;" horiz-adv-x="169" d="M125 338q-5 -33 6 -57q12 -24 29 -30q8 -2 17 9q9 10 15 24q3 7 4.5 13t3.5 13q1 12 -6 15q-5 2 -9 4t-9 4q-9 3 -15 9q-5 8 -6 17q0 9 9 26q0 2 1 2q3 0 5 1q4 2 7 4q2 2 4 4.5t4 7.5q7 13 4 18q-4 4 -8 4q-6 1 -14 -5q-6 -3 -14 -15l-6 -10l-6 -10t-5.5 -11l-4.5 -11 q-6 -17 -6 -26zM204 365q-3 -27 7 -48q10 -20 28 -26q8 -2 15 7q9 9 13 20q5 10 7 23q2 12 -5 13q-4 2 -8 3t-9 3q-8 3 -14 9q-5 4 -7 14q-1 7 7 23q0 1 2 1q1 0 7 2q4 2 10 12q7 13 3 16q-3 3 -7 3q-10 0 -17 -7q-7 -6 -16 -20q-7 -14 -11 -26q-5 -13 -5 -22z" />
<glyph unicode="&#x201d;" horiz-adv-x="176" d="M132 369q-1 -9 4 -12l15 -6q7 -1 13 -7t6 -13q1 -9 -4 -21q-1 -1 -3 -1q-1 0 -1.5 -0.5t-2.5 -0.5q-4 -2 -5 -3t-7 -9q-8 -12 -4 -15q3 -3 7 -3q4 -1 12 3q7 5 11 12q5 7 10 16q2 5 4 9l4 8q1 7 3 12q1 2 1 4q0 3 1 5q1 23 -7 45q-9 20 -26 23q-5 1 -13 -7q-7 -7 -12 -19 l-4 -10t-2 -10zM201 390q-1 -13 5 -16l9 -3.5l9 -3.5q10 -3 15 -10q5 -6 7 -16q0 -11 -8 -26q0 -1 -2 -3q-3 0 -5 -1q-1 -1 -2.5 -1.5t-3.5 -2.5q-4 -3 -9 -11q-2 -4 -3 -7t-2 -5q0 -5 1 -7q2 -2 4 -3h5q6 -2 13 5q8 5 14 14t12 21q5 9 9 22q4 10 5 14q2 8 2 12q3 33 -7 57 q-9 24 -29 30q-7 1 -16 -9q-8 -11 -15 -24q-7 -15 -8 -26z" />
<glyph unicode="&#x2022;" horiz-adv-x="140" d="M-17 80q0 -12 3 -21q4 -7 11 -7q8 0 16 7q4 5 8.5 9.5t9.5 11.5t9 14.5t8 16.5q5 8 8.5 17.5l7.5 19.5l5.5 20t4.5 18q4 16 4 31q0 11 -4 21q-3 7 -11 7t-15 -7q-9 -8 -18 -21q-10 -15 -18 -31q-9 -17 -16 -38q-3 -10 -5.5 -19.5l-4.5 -17.5q-3 -18 -3 -31z" />
<glyph unicode="&#x2026;" horiz-adv-x="315" d="M20 22q0 -8 3 -12q3 -5 6 -5q15 0 30 41q4 11 5 20q1 5 1.5 9.5t0.5 9.5q0 10 -1 14q-3 5 -6 5q-2 0 -5 -3q-2 -2 -4.5 -4t-5.5 -4q-2 -3 -5 -6.5t-5 -7.5q-5 -8 -9 -18q-2 -6 -3 -11l-2 -10q-2 -11 0 -18zM133 23q1 -8 3 -12q2 -5 6 -5q17 0 30 40q2 5 2.5 10.5 t2.5 10.5q1 5 1.5 9.5t0.5 9.5q0 10 -2 14q-2 5 -5 5q-2 0 -6 -3q-3 -2 -9 -8q-2 -3 -5 -6.5t-5 -7.5q-2 -5 -4 -9.5t-4 -9.5q-5 -12 -5 -20q-1 -5 -1 -10v-8zM252 29q0 -9 3 -13t6 -4q15 0 30 40q2 5 3 10.5l2 10.5t1.5 9.5t0.5 9.5q0 10 -1 13q-2 6 -6 6l-1.5 -0.5 t-3.5 -2.5q-3 -2 -10 -9q-2 -3 -5 -6t-5 -8q-5 -8 -9 -18q-2 -5 -3 -10.5l-2 -10.5q-2 -9 0 -17z" />
<glyph unicode="&#x202f;" horiz-adv-x="147" />
<glyph unicode="&#x205f;" horiz-adv-x="183" />
<glyph unicode="&#x2122;" horiz-adv-x="1939" d="M633 184q0 -42 20 -76q19 -32 51 -55q15 -11 32.5 -19.5t36.5 -14.5q41 -11 78 -11q70 0 133 17q60 16 114 50q53 33 95 80q22 23 41.5 50t36.5 56q16 30 30 63q6 16 13.5 31.5l15.5 31.5q16 33 36 60q9 14 19.5 28.5l21.5 29.5q3 6 9 12q2 3 3.5 4.5l1.5 1.5l-10 -26.5 t-12 -27.5l-12.5 -29l-13.5 -30l-12 -31l-12 -31t-10.5 -31l-8.5 -29q-6 -26 -12 -48q-6 -25 -9 -46q-2 -12 -3.5 -23.5t-3.5 -23.5q-1 -11 -1.5 -23t-0.5 -24v-21q0 -5 1 -9.5t2 -9.5q2 -5 4.5 -8t5.5 -6q6 -5 20 -5q16 0 31 20q16 20 30 50q8 14 14.5 28.5t12.5 30.5 l11.5 27.5t10.5 22.5q10 23 22 45.5l26 46.5q28 48 63 86l-6 -16l-6 -16t-5.5 -13.5t-4.5 -9.5q-14 -38 -20 -71q-6 -35 -6 -73q0 -42 12 -79q13 -40 35 -65q22 -28 56 -45q33 -17 78 -17q42 0 81 14q20 8 36 18t30 24q29 28 44 66q16 40 15 91q-1 13 -3.5 25.5t-7.5 24.5 q-9 24 -26 45t-39 33q-23 12 -49 12q-19 0 -39 -7q-20 -9 -38 -22q-18 -12 -29 -31q-12 -18 -12 -39q0 -7 -1 -10q0 -5 8 -5q6 0 11 14q6 14 17 32q5 9 12.5 16.5l15.5 15.5q17 14 48 14q26 0 45 -13q20 -14 32 -35q7 -10 11.5 -21.5t7.5 -23.5q6 -24 6 -47q1 -27 -15 -57 q-17 -29 -41 -52q-27 -24 -54 -38q-29 -15 -52 -15q-36 0 -65 17q-14 9 -26 19.5t-21 24.5q-18 25 -29 61q-9 33 -9 66q0 67 16 125q9 30 20.5 58.5t27.5 54.5t34.5 50t39.5 47q22 23 46.5 42t50.5 36q11 7 22.5 12.5t24.5 10.5q12 5 25 9.5t26 8.5q14 3 27 5.5t27 4.5t27 3 t27 1q43 0 74 -16q30 -14 47 -54q6 -28 -2 -51q-7 -19 -23 -35q-17 -16 -38 -24q-11 -5 -22.5 -8t-23.5 -5q-24 -5 -48 -6q-24 -2 -45 0q-3 0 -3 -2v-6q0 -6 5 -8q4 -2 12 -4q4 -1 7 -1t7 -1h9q34 0 72 9q35 7 67 26q30 19 51 47q20 29 20 69q0 36 -14 59q-12 23 -35 35 q-11 6 -23.5 10t-26.5 6t-28 3t-28 1q-72 0 -135 -22q-32 -11 -61.5 -25.5t-57.5 -32.5q-28 -19 -54 -40t-50 -46t-46.5 -51t-42.5 -54q-41 -56 -75 -114q-17 -29 -31.5 -57l-28.5 -55l-10.5 -21.5t-10.5 -25.5l-11.5 -26.5t-11.5 -24.5q-6 -11 -11 -21.5t-10 -18.5 q-9 -17 -13 -17q-10 0 -14 13q-3 12 -1 36q2 23 6 50q2 14 4.5 28t5.5 28q7 36 18 76q10 40 24 78q6 20 13 38.5t15 36.5q8 19 17 35.5t20 33.5l6 6t9 10t11 12t12 13q13 12 24 24q5 6 9 10l6 6q2 1 4.5 2.5t5.5 3.5q7 3 15 9q4 2 7.5 5.5l6.5 6.5q6 7 6 14q-2 15 -23 26 q-23 13 -51 20q-28 9 -62 12q-16 2 -30 3t-26 1q-23 -2 -47 -5.5t-50 -8.5t-51.5 -11.5t-51.5 -14.5q-55 -17 -99 -40q-48 -25 -83 -57t-58 -75q-21 -43 -20 -94q0 -35 13 -64q15 -31 38 -52q21 -20 53 -34q15 -6 31.5 -8.5t33.5 -2.5q30 0 57 10q29 11 50 29q22 19 35 45 q13 28 13 60v7v12l-3 12q-3 5 -8 5t-7 -2q0 -2 -0.5 -2.5t-0.5 -2.5q0 -7 2 -13q2 -4 2 -9q0 -28 -9 -50q-5 -12 -11.5 -22.5t-14.5 -18.5q-16 -18 -38 -28q-24 -11 -49 -11q-22 0 -46 8l-21.5 10t-19.5 13q-18 15 -30 36q-11 22 -11 48q4 48 26 93q20 42 53 78q32 37 73 63 q40 26 86 45q23 9 46.5 15t47.5 11q46 7 95 4h13q8 0 17 -1q20 -2 35 -7q18 -5 29 -14q12 -9 12 -26q-8 -5 -15.5 -11t-15.5 -14q-9 -8 -17 -16.5l-16 -17.5q-8 -8 -15.5 -16.5l-14.5 -16.5q-8 -8 -13 -14.5t-10 -11.5q-16 -15 -29.5 -32t-25.5 -35q-13 -18 -24 -36.5 l-22 -38.5l-21 -38.5l-20 -38.5q-20 -39 -42 -75q-23 -38 -56 -72q-16 -17 -33 -31.5t-36 -27.5q-38 -24 -81 -39q-21 -8 -43.5 -11t-45.5 -3q-19 0 -39 1.5t-41 6.5q-22 4 -42 10t-38 16q-36 17 -62 48q-24 30 -24 76q0 28 16 44q16 17 39 26q22 9 48 12q25 3 44 3 q33 0 58 -17q22 -14 40 -35q16 -20 23 -35q9 -16 12 -16q1 2 2 3.5t3 3.5q2 6 2 8q0 23 -14 43q-15 20 -35 35q-11 8 -22 13l-23 10q-24 9 -43 9q-29 0 -62 -6q-17 -2 -32 -7t-29 -12q-27 -14 -46 -37q-19 -25 -19 -60zM16 366q0 -42 15 -79q14 -34 41 -64 q14 -14 29.5 -24.5t33.5 -18.5q35 -16 79 -16q45 0 86 16q40 15 74 44q32 26 52 65q20 36 20 80q0 15 -1.5 28.5t-6.5 27.5q-10 29 -26 47q-17 21 -40 33q-24 12 -54 12q-34 0 -63 -10q-29 -9 -50 -27q-20 -19 -34 -45q-12 -27 -12 -61q0 -20 11 -40q13 -21 29 -33 q17 -14 38 -23q22 -8 40 -8q0 4 -15 12q-15 7 -33 21q-17 13 -33 32q-15 19 -15 46q0 24 11 46t27 38q9 8 19 14t21 11q22 9 47 9q24 0 45 -9q11 -5 19.5 -11t16.5 -14q15 -15 25 -38q9 -21 9 -46q0 -35 -17 -71q-16 -33 -44 -61q-27 -26 -63 -43t-71 -17q-33 0 -61 15 q-29 16 -49 39q-22 25 -33 53q-12 30 -12 59q0 61 20 107q22 48 55 83q34 36 79 61q23 12 46.5 22t48.5 18q26 8 51.5 12.5t51.5 7.5t51 3q26 0 50 -1q11 -1 22 -1t22 -2q11 -1 20.5 -3l19.5 -4t19.5 -4.5t19.5 -6.5q11 -3 21 -6t21 -7q5 -3 10 -5.5t11 -6.5l10 -6t10 -7 q9 -8 16 -18q6 -11 6 -22l-31.5 -15t-34.5 -19q-34 -20 -69 -50q-17 -15 -32 -32t-29 -36q-26 -38 -40 -84l-10.5 -35.5t-11.5 -36.5q-14 -38 -30 -72q-9 -17 -19 -33.5t-21 -31.5q-22 -31 -50 -52q-27 -23 -63 -33q-18 -6 -37 -7t-41 -1q-11 -2 -24 0l-13.5 2t-13.5 3 q-15 4 -26 10q-10 6 -15 14v8q0 4 1 9q2 4 2 8v9q0 15 -8 27q-8 13 -25 13q-19 0 -31 -14q-13 -14 -13 -34q0 -29 18 -45q16 -16 42 -25t52 -12q27 -3 47 -3q64 -5 115 19q52 26 93 67q42 43 68 96q14 27 25 53.5t19 52.5q13 46 29 83q15 34 32 59q17 24 37 41q19 17 41 29 q11 6 23 11.5t25 10.5t27 11l29 12v1q11 -5 22.5 -7t27.5 -2q8 0 16 4q5 2 9 6t5 9q1 4 2.5 6t1 2.5t-5.5 0.5t-16 1q-11 2 -22 3.5t-22 6.5q-4 2 -7.5 3.5t-6.5 3.5q-23 30 -59 52q-37 21 -80 33q-22 6 -44 10.5t-45 6.5q-23 3 -44.5 5t-41.5 3q-25 1 -50 -1.5t-51 -6.5 q-51 -9 -102 -27q-25 -10 -48.5 -21.5t-46.5 -25.5t-42.5 -30t-37.5 -35q-18 -18 -32.5 -38.5t-25.5 -43.5q-22 -45 -27 -99z" />
<glyph unicode="&#xe000;" horiz-adv-x="215" d="M0 215h215v-215h-215v215z" />
<glyph unicode="&#xfb01;" horiz-adv-x="304" d="M160 146q1 -1 1 -2t1 -3q0 -2 2 -4q5 -4 12 -2q5 2 11 6q6 7 12 12q3 2 6 5l5 5q1 -19 -6 -35q-3 -8 -6.5 -16.5t-7.5 -16.5q-9 -14 -15 -32q-7 -15 -7 -34q0 -16 2 -20q3 -8 8 -11q3 -3 11 -5q4 0 12 -2q13 0 23 5q9 4 20 13q11 10 18 19q4 5 7 10.5l6 10.5q0 2 0.5 3 t0.5 3q2 6 2 7v6q0 1 -3 1q-4 -3 -7.5 -6t-7.5 -8q-3 -4 -6.5 -8t-7.5 -8q-4 -5 -8 -8l-9 -7q-9 -6 -20 -6q-6 4 -6 12q-2 8 0 17l2 10t3 10q1 8 5 17q1 5 3 11l4 12q2 7 5 13.5t5 14.5l6 13.5t7 13.5q7 13 15 24q3 3 2 14q-2 11 -4 16q-1 3 -7 7q-4 3 -13 -4l-11 -11l-8 -8 q-2 -2 -3 -3.5t-3 -3.5l-4 -4l-4 -4q-6 -6 -13 -10q-4 -2 -7.5 -5t-6.5 -5q-8 -5 -12 -9q-4 -5 -4 -10zM239 245q-2 -5 3 -8q4 -3 11 -3q7 1 10 12q4 8 5 9q4 5 5 11q0 4 0.5 7t0.5 7q0 9 -10 10q-5 1 -7 -1q-2 -1 -4 -5q-3 -3 -3 -6q0 -5 -1 -7q-1 -3 -3 -7q0 -2 -1 -4 l-2 -4q-4 -4 -4 -11zM-5 2q-2 -6 1 -9q2 -2 6 -2t9 3q4 2 7 9q13 23 24 38t21 42q11 27 20.5 54.5l19.5 55.5q5 1 10 1.5t10 0.5q5 1 9.5 1.5t9.5 1.5q8 1 13 1.5t10 1.5q8 1 8 9q0 4 -3 6q-4 3 -9 4q-2 0 -5 0.5t-6 0.5h-10q-5 0 -8.5 -0.5t-6.5 -0.5q-3 -1 -6 -1t-6 -1 l20 52.5t21 52.5t23.5 49t26.5 45q28 42 65 75q37 31 87 48l16 4t17 3q19 1 37 6q9 2 16.5 4.5t13.5 5.5q13 7 15 23q1 6 -3 12q-3 5 -9 10q-7 5 -14 8q-4 1 -7 1.5t-7 0.5q-32 2 -59 -11q-26 -11 -55 -32q-24 -18 -49 -45l-22 -24t-21 -24q-49 -58 -82 -125 q-17 -34 -31 -69l-28 -71h-17t-14 -1q-12 -2 -12 -10q0 -9 11 -12q6 -1 11.5 -1.5t12.5 -0.5l-19.5 -53.5l-19.5 -53.5q-10 -26 -20.5 -42t-21.5 -41z" />
<glyph unicode="&#xfb02;" horiz-adv-x="303" d="M162 11q-3 -3 3 -7q4 -3 10 -3q9 0 23 6q7 3 13.5 6.5t14.5 6.5q8 4 15 7l14 6q13 6 13 13q0 4 -2 5q-1 1 -9 1q-10 0 -20 -3q-5 -2 -10 -3t-10 -3q16 20 28 43t20 47l17.5 49t16.5 49l9.5 31.5l9.5 31.5q7 33 18 63q5 16 10.5 30.5t12.5 29.5q13 27 35 54l12 13.5 l13 13.5t14.5 13.5t15.5 11.5q15 12 32 18q19 8 36 8q5 1 10.5 1.5t12.5 1.5q11 1 22 6q10 4 19 11q6 6 8 17q0 11 -2 15q-3 7 -9 13q-5 3 -17 7q-9 3 -26 1q-25 -1 -48 -16q-24 -14 -41 -33l-18 -21t-17 -22q-9 -11 -16.5 -22l-15.5 -22q-11 -15 -20 -30.5t-17 -31.5 t-14.5 -31.5l-13.5 -32.5l-12 -34t-11 -34t-10.5 -34l-11.5 -34l-17 -47t-20 -47t-20.5 -46l-19.5 -46q-10 -5 -17 -11q-9 -7 -13 -16zM-5 2q-2 -6 1 -9q2 -2 6 -2t9 3q4 2 7 9q13 23 24 38t21 42q11 27 20.5 54.5l19.5 55.5q5 1 10 1.5t10 0.5q5 1 9.5 1.5t9.5 1.5 q8 1 13 1.5t10 1.5q8 1 8 9q0 4 -3 6q-4 3 -9 4q-2 0 -5 0.5t-6 0.5h-10q-5 0 -8.5 -0.5t-6.5 -0.5q-3 -1 -6 -1t-6 -1l20 52.5t21 52.5t23.5 49t26.5 45q28 42 65 75q37 31 87 48l16 4t17 3q19 1 37 6q9 2 16.5 4.5t13.5 5.5q13 7 15 23q1 6 -3 12q-3 5 -9 10q-7 5 -14 8 q-4 1 -7 1.5t-7 0.5q-32 2 -59 -11q-26 -11 -55 -32q-24 -18 -49 -45l-22 -24t-21 -24q-49 -58 -82 -125q-17 -34 -31 -69l-28 -71h-17t-14 -1q-12 -2 -12 -10q0 -9 11 -12q6 -1 11.5 -1.5t12.5 -0.5l-19.5 -53.5l-19.5 -53.5q-10 -26 -20.5 -42t-21.5 -41z" />
<glyph unicode="&#xfb03;" horiz-adv-x="455" d="M311 146q1 -1 1 -2t1 -3q0 -2 2 -4q5 -4 12 -2q5 2 11 6q6 7 12 12q3 2 6 5l5 5q1 -19 -6 -35q-3 -8 -6.5 -16.5t-7.5 -16.5q-9 -14 -15 -32q-7 -15 -7 -34q0 -16 2 -20q3 -8 8 -11q3 -3 11 -5q4 0 12 -2q13 0 23 5q9 4 20 13q11 10 18 19q4 5 7 10.5l6 10.5q0 2 0.5 3 t0.5 3q2 6 2 7v6q0 1 -3 1q-4 -3 -7.5 -6t-7.5 -8q-3 -4 -6.5 -8t-7.5 -8q-4 -5 -8 -8l-9 -7q-9 -6 -20 -6q-6 4 -6 12q-2 8 0 17l2 10t3 10q1 8 5 17q1 5 3 11l4 12q2 7 5 13.5t5 14.5l6 13.5t7 13.5q7 13 15 24q3 3 2 14q-2 11 -4 16q-1 3 -7 7q-4 3 -13 -4l-11 -11l-8 -8 q-2 -2 -3 -3.5t-3 -3.5l-4 -4l-4 -4q-6 -6 -13 -10q-4 -2 -7.5 -5t-6.5 -5q-8 -5 -12 -9q-4 -5 -4 -10zM390 245q-2 -5 3 -8q4 -3 11 -3q7 1 10 12q4 8 5 9q4 5 5 11q0 4 0.5 7t0.5 7q0 9 -10 10q-5 1 -7 -1q-2 -1 -4 -5q-3 -3 -3 -6q0 -5 -1 -7q-1 -3 -3 -7q0 -2 -1 -4 l-2 -4q-4 -4 -4 -11zM146 2q-2 -6 1 -9q2 -2 6 -2t9 3q4 2 7 9q13 23 24 38t21 42q11 27 20.5 54.5l19.5 55.5q5 1 10 1.5t10 0.5q5 1 9.5 1.5t9.5 1.5q8 1 13 1.5t10 1.5q8 1 8 9q0 4 -3 6q-4 3 -9 4q-2 0 -5 0.5t-6 0.5h-10q-5 0 -8.5 -0.5t-6.5 -0.5q-3 -1 -6 -1t-6 -1 l20 52.5t21 52.5t23.5 49t26.5 45q28 42 65 75q37 31 87 48l16 4t17 3q19 1 37 6q9 2 16.5 4.5t13.5 5.5q13 7 15 23q1 6 -3 12q-3 5 -9 10q-7 5 -14 8q-4 1 -7 1.5t-7 0.5q-32 2 -59 -11q-26 -11 -55 -32q-24 -18 -49 -45l-22 -24t-21 -24q-49 -58 -82 -125 q-17 -34 -31 -69l-28 -71h-17t-14 -1q-12 -2 -12 -10q0 -9 11 -12q6 -1 11.5 -1.5t12.5 -0.5l-19.5 -53.5l-19.5 -53.5q-10 -26 -20.5 -42t-21.5 -41zM-5 2q-2 -6 1 -9q2 -2 6 -2t9 3q4 2 7 9q13 23 24 38t21 42q11 27 20.5 54.5l19.5 55.5q5 1 10 1.5t10 0.5q5 1 9.5 1.5 t9.5 1.5q8 1 13 1.5t10 1.5q8 1 8 9q0 4 -3 6q-4 3 -9 4q-2 0 -5 0.5t-6 0.5h-10q-5 0 -8.5 -0.5t-6.5 -0.5q-3 -1 -6 -1t-6 -1l20 52.5t21 52.5t23.5 49t26.5 45q28 42 65 75q37 31 87 48l16 4t17 3q19 1 37 6q9 2 16.5 4.5t13.5 5.5q13 7 15 23q1 6 -3 12q-3 5 -9 10 q-7 5 -14 8q-4 1 -7 1.5t-7 0.5q-32 2 -59 -11q-26 -11 -55 -32q-24 -18 -49 -45l-22 -24t-21 -24q-49 -58 -82 -125q-17 -34 -31 -69l-28 -71h-17t-14 -1q-12 -2 -12 -10q0 -9 11 -12q6 -1 11.5 -1.5t12.5 -0.5l-19.5 -53.5l-19.5 -53.5q-10 -26 -20.5 -42t-21.5 -41z" />
<glyph unicode="&#xfb04;" horiz-adv-x="454" d="M313 11q-3 -3 3 -7q4 -3 10 -3q9 0 23 6q7 3 13.5 6.5t14.5 6.5q8 4 15 7l14 6q13 6 13 13q0 4 -2 5q-1 1 -9 1q-10 0 -20 -3q-5 -2 -10 -3t-10 -3q16 20 28 43t20 47l17.5 49t16.5 49l9.5 31.5l9.5 31.5q7 33 18 63q5 16 10.5 30.5t12.5 29.5q13 27 35 54l12 13.5 l13 13.5t14.5 13.5t15.5 11.5q15 12 32 18q19 8 36 8q5 1 10.5 1.5t12.5 1.5q11 1 22 6q10 4 19 11q6 6 8 17q0 11 -2 15q-3 7 -9 13q-5 3 -17 7q-9 3 -26 1q-25 -1 -48 -16q-24 -14 -41 -33l-18 -21t-17 -22q-9 -11 -16.5 -22l-15.5 -22q-11 -15 -20 -30.5t-17 -31.5 t-14.5 -31.5l-13.5 -32.5l-12 -34t-11 -34t-10.5 -34l-11.5 -34l-17 -47t-20 -47t-20.5 -46l-19.5 -46q-10 -5 -17 -11q-9 -7 -13 -16zM146 2q-2 -6 1 -9q2 -2 6 -2t9 3q4 2 7 9q13 23 24 38t21 42q11 27 20.5 54.5l19.5 55.5q5 1 10 1.5t10 0.5q5 1 9.5 1.5t9.5 1.5 q8 1 13 1.5t10 1.5q8 1 8 9q0 4 -3 6q-4 3 -9 4q-2 0 -5 0.5t-6 0.5h-10q-5 0 -8.5 -0.5t-6.5 -0.5q-3 -1 -6 -1t-6 -1l20 52.5t21 52.5t23.5 49t26.5 45q28 42 65 75q37 31 87 48l16 4t17 3q19 1 37 6q9 2 16.5 4.5t13.5 5.5q13 7 15 23q1 6 -3 12q-3 5 -9 10q-7 5 -14 8 q-4 1 -7 1.5t-7 0.5q-32 2 -59 -11q-26 -11 -55 -32q-24 -18 -49 -45l-22 -24t-21 -24q-49 -58 -82 -125q-17 -34 -31 -69l-28 -71h-17t-14 -1q-12 -2 -12 -10q0 -9 11 -12q6 -1 11.5 -1.5t12.5 -0.5l-19.5 -53.5l-19.5 -53.5q-10 -26 -20.5 -42t-21.5 -41zM-5 2q-2 -6 1 -9 q2 -2 6 -2t9 3q4 2 7 9q13 23 24 38t21 42q11 27 20.5 54.5l19.5 55.5q5 1 10 1.5t10 0.5q5 1 9.5 1.5t9.5 1.5q8 1 13 1.5t10 1.5q8 1 8 9q0 4 -3 6q-4 3 -9 4q-2 0 -5 0.5t-6 0.5h-10q-5 0 -8.5 -0.5t-6.5 -0.5q-3 -1 -6 -1t-6 -1l20 52.5t21 52.5t23.5 49t26.5 45 q28 42 65 75q37 31 87 48l16 4t17 3q19 1 37 6q9 2 16.5 4.5t13.5 5.5q13 7 15 23q1 6 -3 12q-3 5 -9 10q-7 5 -14 8q-4 1 -7 1.5t-7 0.5q-32 2 -59 -11q-26 -11 -55 -32q-24 -18 -49 -45l-22 -24t-21 -24q-49 -58 -82 -125q-17 -34 -31 -69l-28 -71h-17t-14 -1 q-12 -2 -12 -10q0 -9 11 -12q6 -1 11.5 -1.5t12.5 -0.5l-19.5 -53.5l-19.5 -53.5q-10 -26 -20.5 -42t-21.5 -41z" />
</font>
</defs>
</svg>
